G04 #@! TF.FileFunction,Copper,L2,Inr*
%FSLAX46Y46*%
G04 Gerber Fmt 4.6, Leading zero omitted, Abs format (unit mm)*
G04 Created by KiCad (PCBNEW 4.0.7-e2-6376~58~ubuntu16.04.1) date Mon Mar 12 00:56:02 2018*
%MOMM*%
%LPD*%
G01*
G04 APERTURE LIST*
%ADD10C,0.100000*%
%ADD11R,1.700000X1.700000*%
%ADD12O,1.700000X1.700000*%
%ADD13C,0.500000*%
%ADD14C,0.450000*%
%ADD15C,0.150000*%
G04 APERTURE END LIST*
D10*
D11*
X68700000Y-36500000D03*
D12*
X68700000Y-39040000D03*
D11*
X63600000Y-36500000D03*
D12*
X63600000Y-39040000D03*
D11*
X21300000Y-28900000D03*
D12*
X21300000Y-26360000D03*
X21300000Y-23820000D03*
X21300000Y-21280000D03*
D11*
X23900000Y-28900000D03*
D12*
X23900000Y-26360000D03*
X23900000Y-23820000D03*
X23900000Y-21280000D03*
D11*
X26500000Y-28900000D03*
D12*
X26500000Y-26360000D03*
X26500000Y-23820000D03*
X26500000Y-21280000D03*
D11*
X68700000Y-49200000D03*
D12*
X68700000Y-46660000D03*
X68700000Y-44120000D03*
X68700000Y-41580000D03*
D11*
X66150000Y-49200000D03*
D12*
X66150000Y-46660000D03*
X66150000Y-44120000D03*
X66150000Y-41580000D03*
X66150000Y-39040000D03*
X66150000Y-36500000D03*
D11*
X63600000Y-49200000D03*
D12*
X63600000Y-46660000D03*
X63600000Y-44120000D03*
X63600000Y-41580000D03*
D11*
X68700000Y-21300000D03*
D12*
X66160000Y-21300000D03*
X63620000Y-21300000D03*
D11*
X68700000Y-23800000D03*
D12*
X66160000Y-23800000D03*
X63620000Y-23800000D03*
D11*
X68700000Y-26300000D03*
D12*
X66160000Y-26300000D03*
X63620000Y-26300000D03*
D11*
X68700000Y-28825000D03*
D12*
X66160000Y-28825000D03*
X63620000Y-28825000D03*
D11*
X63600000Y-31400000D03*
D12*
X66140000Y-31400000D03*
X68680000Y-31400000D03*
D11*
X68700000Y-34000000D03*
D12*
X66160000Y-34000000D03*
X63620000Y-34000000D03*
D11*
X21300000Y-49200000D03*
D12*
X21300000Y-46660000D03*
X21300000Y-44120000D03*
X21300000Y-41580000D03*
X21300000Y-39040000D03*
X21300000Y-36500000D03*
X21300000Y-33960000D03*
X21300000Y-31420000D03*
D11*
X23900000Y-49200000D03*
D12*
X23900000Y-46660000D03*
X23900000Y-44120000D03*
X23900000Y-41580000D03*
X23900000Y-39040000D03*
X23900000Y-36500000D03*
X23900000Y-33960000D03*
X23900000Y-31420000D03*
D11*
X26500000Y-49200000D03*
D12*
X26500000Y-46660000D03*
X26500000Y-44120000D03*
X26500000Y-41580000D03*
X26500000Y-39040000D03*
X26500000Y-36500000D03*
X26500000Y-33960000D03*
X26500000Y-31420000D03*
D13*
X43500000Y-30500000D03*
X58000000Y-50000000D03*
X28000000Y-21500000D03*
X30000000Y-48000000D03*
X29000000Y-48000000D03*
X37353240Y-20846980D03*
X36835309Y-20849810D03*
X68329258Y-47901885D03*
X29079880Y-36882729D03*
X44625000Y-32425000D03*
X31575000Y-35875000D03*
X31317307Y-39199131D03*
X49215170Y-48100643D03*
X61604786Y-48625109D03*
X59472056Y-43712798D03*
X55530999Y-42941405D03*
X32050000Y-28850000D03*
X57967608Y-25454720D03*
X39647145Y-36249020D03*
X29850000Y-29600000D03*
X54050000Y-41475000D03*
X53605903Y-41027070D03*
X35425000Y-50050000D03*
X31800000Y-20925000D03*
X64900000Y-47260001D03*
X30630000Y-37380000D03*
X32249964Y-33306237D03*
X31595825Y-33306237D03*
X59049998Y-37549999D03*
X46142502Y-34437808D03*
X53238943Y-37625470D03*
X58516633Y-25441240D03*
X58849998Y-40600000D03*
X31800000Y-21600000D03*
X31100000Y-21600000D03*
X57542782Y-40239738D03*
X36784647Y-34831383D03*
X38608000Y-42164000D03*
X59000000Y-46600000D03*
X55377826Y-45913076D03*
X54545692Y-45893266D03*
X47400000Y-42081125D03*
X47163515Y-36500000D03*
X47150309Y-35727993D03*
X53860000Y-45890000D03*
X47320394Y-44830836D03*
X36906525Y-42205203D03*
X39096507Y-46989920D03*
X34250000Y-50050000D03*
X59500000Y-31341353D03*
X48166675Y-48100000D03*
X37657989Y-38728500D03*
X37657989Y-39343661D03*
X34244169Y-28802237D03*
X33740000Y-28802237D03*
X45846106Y-47206396D03*
X33740000Y-29320000D03*
X34244169Y-29328412D03*
X51380920Y-48100000D03*
X55694200Y-48014074D03*
X54680545Y-48031551D03*
X36410308Y-44397641D03*
X53125001Y-26383186D03*
X56207414Y-45206940D03*
X55703371Y-29576528D03*
X42189673Y-28497544D03*
X42172326Y-29063041D03*
X39952000Y-41798000D03*
X41336300Y-48388417D03*
X39950000Y-41150000D03*
X37019466Y-27858040D03*
X39250940Y-20649401D03*
X60275000Y-25332550D03*
X62340437Y-37905590D03*
X49264058Y-34627923D03*
X54000000Y-48100000D03*
X46200000Y-46500000D03*
X53000000Y-45100000D03*
X52079522Y-45071647D03*
X43173481Y-45511974D03*
X56620012Y-24342222D03*
X33684236Y-46484261D03*
X34944753Y-35573255D03*
X43688000Y-22957541D03*
X34350000Y-35573255D03*
X34406308Y-39920430D03*
X35052012Y-39920430D03*
X53848000Y-22940002D03*
X60406666Y-24008976D03*
X49300000Y-45006217D03*
X31282767Y-26572244D03*
X31286875Y-27217153D03*
X46088783Y-49409241D03*
X46749099Y-49425038D03*
X28265150Y-35499999D03*
X28265150Y-33796965D03*
X28265150Y-34648482D03*
X31811330Y-27210123D03*
X31811330Y-26549425D03*
X59512050Y-38471047D03*
X56640053Y-29874990D03*
X57100011Y-26775010D03*
X61793900Y-32800014D03*
X32256624Y-36750003D03*
X44678706Y-49941241D03*
X42794279Y-42592748D03*
X32199993Y-48337313D03*
X41803759Y-46838384D03*
X31500000Y-34675000D03*
X27800000Y-31900000D03*
X27800000Y-30800000D03*
X47730970Y-26855355D03*
X36417024Y-31531571D03*
X36400000Y-32100000D03*
X37060290Y-44391471D03*
X64300000Y-27575000D03*
X58099688Y-39053165D03*
X40236270Y-46958092D03*
X39370000Y-42164000D03*
X40649225Y-45368931D03*
X42926000Y-37612600D03*
X59708436Y-24774521D03*
X45146717Y-26860540D03*
X59641628Y-23629824D03*
X42600000Y-30378994D03*
X37071271Y-30003739D03*
X47108355Y-30732340D03*
X37721100Y-29988335D03*
X47681416Y-30193997D03*
X38810049Y-30880615D03*
X38774389Y-30035778D03*
X39681299Y-30003345D03*
X40666836Y-29846339D03*
X42908482Y-40068435D03*
X29958216Y-46214372D03*
X41317823Y-49056719D03*
X31050000Y-47215002D03*
X41324072Y-49734720D03*
X47699482Y-25870575D03*
X47650000Y-37650000D03*
X48074992Y-25340014D03*
X47675000Y-38375000D03*
X46799778Y-25117966D03*
X35910566Y-34105250D03*
X43353025Y-36122913D03*
X33661460Y-35950000D03*
X55155538Y-31688581D03*
X45562461Y-30684091D03*
X29999508Y-36339240D03*
X36194775Y-35820368D03*
X37898488Y-36348512D03*
X55211538Y-45226038D03*
X49780436Y-42500000D03*
X34637311Y-25300012D03*
X54380635Y-45264560D03*
X31540066Y-25035391D03*
X30078230Y-24657008D03*
X54950000Y-42335353D03*
X34050012Y-45412078D03*
X45900000Y-32500000D03*
X47904458Y-32436209D03*
X32600000Y-45000000D03*
X45300000Y-31800000D03*
X47890308Y-31418090D03*
X33661460Y-34200000D03*
X33661460Y-35150000D03*
X68252736Y-30150684D03*
X36571750Y-40290298D03*
X29575268Y-23508280D03*
X54983640Y-31061710D03*
X54196209Y-31724051D03*
X29573259Y-24158288D03*
X29381287Y-26497624D03*
X54705997Y-33433156D03*
X54523970Y-34175527D03*
X29404200Y-24785930D03*
X29450000Y-25851254D03*
X50000000Y-31200000D03*
X49787049Y-30375002D03*
X29400946Y-27147338D03*
X58836332Y-23629824D03*
X42600000Y-31029007D03*
X60108124Y-39665446D03*
X51249091Y-42613097D03*
X34540000Y-40649988D03*
X62006718Y-30268235D03*
X30393660Y-39199980D03*
X39160164Y-28000000D03*
X38196110Y-34924255D03*
X40175000Y-28000000D03*
X38928590Y-34191349D03*
X41286752Y-27900000D03*
X38915492Y-35579204D03*
X39490441Y-35004254D03*
X42105159Y-27792255D03*
X60047295Y-39018287D03*
X50523057Y-31626943D03*
X60185406Y-41479155D03*
X51685439Y-30371871D03*
X60250001Y-42390296D03*
X51037072Y-30418084D03*
X60099609Y-43882190D03*
X52935461Y-30474191D03*
X60980942Y-26750526D03*
X36595525Y-34196330D03*
X61946469Y-29460470D03*
X35814000Y-42164000D03*
X60899986Y-28823664D03*
X28852209Y-36264988D03*
X42887132Y-40718096D03*
X56751527Y-47964686D03*
X42926928Y-41378116D03*
X57500002Y-47175033D03*
X60237919Y-46047803D03*
X55163043Y-36515871D03*
X60058287Y-46900000D03*
X54509265Y-36509668D03*
X52585257Y-27342977D03*
X52700000Y-42650000D03*
X53432050Y-42667950D03*
X54225221Y-26720595D03*
X31502390Y-44172452D03*
X35707794Y-44407794D03*
X48157956Y-39880027D03*
X41825557Y-45500643D03*
X48400926Y-41331078D03*
X47275012Y-40433325D03*
X47642602Y-40977917D03*
X49276634Y-35916815D03*
X57910000Y-32910287D03*
X47852310Y-42547955D03*
X64910000Y-44880000D03*
X61200014Y-31866740D03*
X51105193Y-46709892D03*
X54697258Y-40299050D03*
X54189208Y-35943913D03*
X54071389Y-33043556D03*
X53550399Y-39906754D03*
X53889197Y-35225010D03*
X53905517Y-32315195D03*
X54026301Y-39368571D03*
X54220065Y-27697983D03*
X49795667Y-32300000D03*
X53572296Y-27751938D03*
X51750000Y-27650000D03*
X60020150Y-26707389D03*
X57278917Y-24342222D03*
X48346492Y-31881135D03*
X42523580Y-45500012D03*
X42418408Y-32079400D03*
X42561036Y-33083283D03*
X44413966Y-45447498D03*
X49275036Y-36815643D03*
X48644452Y-42589519D03*
X37739196Y-44370177D03*
X30533315Y-29944415D03*
X42658581Y-36083231D03*
X29987719Y-33238209D03*
X34275000Y-33800000D03*
X39400000Y-40550002D03*
X45499990Y-27418956D03*
X44903025Y-27676148D03*
D14*
X23900000Y-29296146D02*
X24720558Y-30116704D01*
X24720558Y-30116704D02*
X25341702Y-30116704D01*
X25341702Y-30116704D02*
X25349999Y-30125001D01*
X25349999Y-30125001D02*
X27650001Y-30125001D01*
X27650001Y-30125001D02*
X27658298Y-30116704D01*
X27658298Y-30116704D02*
X28524897Y-30116704D01*
X28524897Y-30116704D02*
X29985301Y-31577108D01*
X29985301Y-31577108D02*
X33415533Y-31577108D01*
X33415533Y-31577108D02*
X34971438Y-33133013D01*
X34971438Y-33133013D02*
X34971438Y-35239064D01*
X34971438Y-35239064D02*
X34971438Y-35592617D01*
D15*
X34941472Y-35573255D02*
X34960834Y-35592617D01*
X34960834Y-35592617D02*
X34971438Y-35592617D01*
X23900000Y-29296146D02*
X23900000Y-28900000D01*
D14*
X34410253Y-35573255D02*
X34941472Y-35573255D01*
D15*
X63092001Y-32924999D02*
X64069570Y-32924999D01*
X59836042Y-45304816D02*
X57788249Y-45304816D01*
X62437115Y-28145917D02*
X61468000Y-29115032D01*
X61963339Y-44498536D02*
X61204642Y-45257233D01*
X62437115Y-26039425D02*
X62437115Y-28145917D01*
X55888540Y-47204525D02*
X50529708Y-47204525D01*
X62899715Y-40293622D02*
X61963339Y-41229998D01*
X59883625Y-45257233D02*
X59836042Y-45304816D01*
X64069570Y-32924999D02*
X64926571Y-33782000D01*
X50529708Y-47204525D02*
X49300000Y-45974817D01*
X61468000Y-29115032D02*
X61468000Y-31300998D01*
X64926571Y-39845964D02*
X64478913Y-40293622D01*
X64478913Y-40293622D02*
X62899715Y-40293622D01*
X49300000Y-45359770D02*
X49300000Y-45006217D01*
X61204642Y-45257233D02*
X59883625Y-45257233D01*
X64926571Y-33782000D02*
X64926571Y-39845964D01*
X57788249Y-45304816D02*
X55888540Y-47204525D01*
X60406666Y-24008976D02*
X62437115Y-26039425D01*
X61468000Y-31300998D02*
X63092001Y-32924999D01*
X61963339Y-41229998D02*
X61963339Y-44498536D01*
X49300000Y-45974817D02*
X49300000Y-45359770D01*
X42926000Y-37612600D02*
X42099641Y-38438959D01*
X42099641Y-38438959D02*
X42099641Y-43918515D01*
X42099641Y-43918515D02*
X40899224Y-45118932D01*
X40899224Y-45118932D02*
X40649225Y-45368931D01*
X41317823Y-49056719D02*
X34370627Y-49056719D01*
X33178191Y-47864283D02*
X33108368Y-47864283D01*
X31458457Y-46214372D02*
X30311769Y-46214372D01*
X33108368Y-47864283D02*
X31458457Y-46214372D01*
X34370627Y-49056719D02*
X33178191Y-47864283D01*
X30311769Y-46214372D02*
X29958216Y-46214372D01*
X31050000Y-47215002D02*
X32034808Y-47215002D01*
X34326049Y-49436420D02*
X40672219Y-49436420D01*
X32034808Y-47215002D02*
X32984100Y-48164294D01*
X32984100Y-48164294D02*
X33053923Y-48164294D01*
X33053923Y-48164294D02*
X34326049Y-49436420D01*
X40672219Y-49436420D02*
X40970519Y-49734720D01*
X40970519Y-49734720D02*
X41324072Y-49734720D01*
X47449483Y-26120574D02*
X47699482Y-25870575D01*
X46333334Y-27236723D02*
X47449483Y-26120574D01*
X47650000Y-33500000D02*
X46333334Y-32183334D01*
X47650000Y-37650000D02*
X47650000Y-33500000D01*
X46333334Y-32183334D02*
X46333334Y-27236723D01*
X48138627Y-37911373D02*
X48138627Y-33528057D01*
X48324991Y-28693782D02*
X48324991Y-25590013D01*
X48324991Y-25590013D02*
X48074992Y-25340014D01*
X46633345Y-30385428D02*
X48324991Y-28693782D01*
X46633345Y-32022775D02*
X46633345Y-30385428D01*
X48138627Y-33528057D02*
X46633345Y-32022775D01*
X47675000Y-38375000D02*
X48138627Y-37911373D01*
X43103026Y-36372912D02*
X43353025Y-36122913D01*
X41799631Y-37676307D02*
X43103026Y-36372912D01*
X41799631Y-43519305D02*
X41799631Y-37676307D01*
X39744750Y-45574186D02*
X41799631Y-43519305D01*
X35969757Y-45574186D02*
X39744750Y-45574186D01*
X35710608Y-43701978D02*
X35232793Y-44179793D01*
X36721099Y-43701978D02*
X35710608Y-43701978D01*
X37439186Y-42983891D02*
X36721099Y-43701978D01*
X36791740Y-35714331D02*
X36791740Y-39194199D01*
X36422776Y-35345367D02*
X36791740Y-35714331D01*
X35855098Y-35345367D02*
X36422776Y-35345367D01*
X33911459Y-36199999D02*
X35000466Y-36199999D01*
X35000466Y-36199999D02*
X35855098Y-35345367D01*
X33661460Y-35950000D02*
X33911459Y-36199999D01*
X37439186Y-39841645D02*
X37439186Y-42983891D01*
X35232793Y-44179793D02*
X35232793Y-44837222D01*
X36791740Y-39194199D02*
X37439186Y-39841645D01*
X35232793Y-44837222D02*
X35969757Y-45574186D01*
X45312462Y-30934090D02*
X45562461Y-30684091D01*
X44642153Y-31604399D02*
X45312462Y-30934090D01*
X41656000Y-32138806D02*
X42190407Y-31604399D01*
X41656000Y-33510462D02*
X41656000Y-32138806D01*
X37898488Y-36348512D02*
X38817950Y-36348512D01*
X38817950Y-36348512D02*
X41656000Y-33510462D01*
X42190407Y-31604399D02*
X44642153Y-31604399D01*
X31625000Y-37400000D02*
X34615143Y-37400000D01*
X34615143Y-37400000D02*
X36194775Y-35820368D01*
X30814239Y-36589239D02*
X31625000Y-37400000D01*
X29999508Y-36339240D02*
X30249507Y-36589239D01*
X30249507Y-36589239D02*
X30814239Y-36589239D01*
X34887310Y-25050013D02*
X34637311Y-25300012D01*
X48080936Y-24642956D02*
X35294367Y-24642956D01*
X35294367Y-24642956D02*
X34887310Y-25050013D01*
X49780436Y-33744501D02*
X48884811Y-32848876D01*
X48884811Y-32848876D02*
X48884811Y-25446831D01*
X48884811Y-25446831D02*
X48080936Y-24642956D01*
X49780436Y-42500000D02*
X49780436Y-33744501D01*
X54130636Y-45014561D02*
X54380635Y-45264560D01*
X53608099Y-44492024D02*
X54130636Y-45014561D01*
X49312048Y-32688747D02*
X50261597Y-33638296D01*
X48367224Y-24342945D02*
X49312048Y-25287769D01*
X33978406Y-24342945D02*
X48367224Y-24342945D01*
X33285960Y-25035391D02*
X33978406Y-24342945D01*
X31540066Y-25035391D02*
X33285960Y-25035391D01*
X49312048Y-25287769D02*
X49312048Y-32688747D01*
X51620021Y-44492024D02*
X53608099Y-44492024D01*
X50261597Y-33638296D02*
X50261597Y-43133600D01*
X50261597Y-43133600D02*
X51620021Y-44492024D01*
X54028326Y-30257393D02*
X54028326Y-28807248D01*
X33611392Y-23437121D02*
X33116153Y-23932361D01*
X52602728Y-31682991D02*
X54028326Y-30257393D01*
X54950000Y-42335353D02*
X54196389Y-42335353D01*
X30328229Y-24407009D02*
X30078230Y-24657008D01*
X54805465Y-26629073D02*
X51613513Y-23437121D01*
X52602728Y-40741692D02*
X52602728Y-31682991D01*
X54196389Y-42335353D02*
X52602728Y-40741692D01*
X51613513Y-23437121D02*
X33611392Y-23437121D01*
X30802877Y-23932361D02*
X30328229Y-24407009D01*
X54028326Y-28807248D02*
X54805465Y-28030109D01*
X33116153Y-23932361D02*
X30802877Y-23932361D01*
X54805465Y-28030109D02*
X54805465Y-26629073D01*
X45900000Y-32500000D02*
X45617314Y-32782686D01*
X45617314Y-32782686D02*
X45617314Y-46055312D01*
X45617314Y-46055312D02*
X45349551Y-46323075D01*
X45349551Y-46323075D02*
X38888065Y-46323075D01*
X38888065Y-46323075D02*
X38370394Y-46840746D01*
X38370394Y-46840746D02*
X35478680Y-46840746D01*
X35478680Y-46840746D02*
X34300011Y-45662077D01*
X34300011Y-45662077D02*
X34050012Y-45412078D01*
X34075977Y-44750001D02*
X35866711Y-46540735D01*
X32600000Y-45000000D02*
X32849999Y-44750001D01*
X38246127Y-46540735D02*
X38763797Y-46023064D01*
X35866711Y-46540735D02*
X38246127Y-46540735D01*
X38763797Y-46023064D02*
X45225283Y-46023064D01*
X32849999Y-44750001D02*
X34075977Y-44750001D01*
X45300000Y-45948347D02*
X45300000Y-32153553D01*
X45300000Y-32153553D02*
X45300000Y-31800000D01*
X45225283Y-46023064D02*
X45300000Y-45948347D01*
X69775001Y-30903999D02*
X69021686Y-30150684D01*
X67525012Y-47300269D02*
X67525012Y-46012988D01*
X66788789Y-48036492D02*
X67525012Y-47300269D01*
X57324499Y-49189579D02*
X58477586Y-48036492D01*
X46644021Y-48282518D02*
X47551082Y-49189579D01*
X41111378Y-47913416D02*
X41564301Y-47913416D01*
X40376859Y-48647935D02*
X41111378Y-47913416D01*
X41564301Y-47913416D02*
X41933402Y-48282518D01*
X33232636Y-47564272D02*
X33302459Y-47564272D01*
X29468410Y-43800046D02*
X33232636Y-47564272D01*
X69018725Y-45392277D02*
X69775001Y-44636001D01*
X29468410Y-38981590D02*
X29468410Y-43800046D01*
X30000000Y-38450000D02*
X29468410Y-38981590D01*
X34731452Y-38450000D02*
X30000000Y-38450000D01*
X67525012Y-46012988D02*
X68145723Y-45392277D01*
X47551082Y-49189579D02*
X57324499Y-49189579D01*
X68606289Y-30150684D02*
X68252736Y-30150684D01*
X69021686Y-30150684D02*
X68606289Y-30150684D01*
X69775001Y-44636001D02*
X69775001Y-30903999D01*
X33302459Y-47564272D02*
X34386122Y-48647935D01*
X68145723Y-45392277D02*
X69018725Y-45392277D01*
X58477586Y-48036492D02*
X66788789Y-48036492D01*
X34386122Y-48647935D02*
X40376859Y-48647935D01*
X36571750Y-40290298D02*
X34731452Y-38450000D01*
X41933402Y-48282518D02*
X46644021Y-48282518D01*
X42170724Y-22826949D02*
X33373007Y-22826949D01*
X44849323Y-22657146D02*
X44374698Y-22182520D01*
X30104762Y-23332339D02*
X29928821Y-23508280D01*
X33373007Y-22826949D02*
X32867617Y-23332339D01*
X55405487Y-26380537D02*
X51686269Y-22661319D01*
X42815153Y-22182520D02*
X42170724Y-22826949D01*
X44853498Y-22661319D02*
X44849323Y-22657146D01*
X54628348Y-29055784D02*
X55405487Y-28278645D01*
X55405487Y-28278645D02*
X55405487Y-26380537D01*
X32867617Y-23332339D02*
X30104762Y-23332339D01*
X51686269Y-22661319D02*
X44853498Y-22661319D01*
X44374698Y-22182520D02*
X42815153Y-22182520D01*
X54983640Y-31061710D02*
X54628348Y-30706418D01*
X29928821Y-23508280D02*
X29575268Y-23508280D01*
X54628348Y-30706418D02*
X54628348Y-29055784D01*
X54196209Y-31370498D02*
X54196209Y-31724051D01*
X51562001Y-22961330D02*
X55105476Y-26504805D01*
X44729229Y-22961330D02*
X51562001Y-22961330D01*
X55105476Y-28154377D02*
X54328337Y-28931516D01*
X54328337Y-28931516D02*
X54328337Y-31238370D01*
X54328337Y-31238370D02*
X54196209Y-31370498D01*
X32991885Y-23632350D02*
X33497275Y-23126960D01*
X33497275Y-23126960D02*
X42300436Y-23126960D01*
X42300436Y-23126960D02*
X42944865Y-22482531D01*
X29964194Y-24158288D02*
X30490132Y-23632350D01*
X29573259Y-24158288D02*
X29964194Y-24158288D01*
X44250430Y-22482531D02*
X44729229Y-22961330D01*
X55105476Y-26504805D02*
X55105476Y-28154377D01*
X42944865Y-22482531D02*
X44250430Y-22482531D01*
X30490132Y-23632350D02*
X32991885Y-23632350D01*
X45097861Y-22057126D02*
X44623234Y-21582498D01*
X51930634Y-22057126D02*
X45097861Y-22057126D01*
X29131288Y-26247625D02*
X29381287Y-26497624D01*
X32619081Y-22732317D02*
X29151373Y-22732317D01*
X33124471Y-22226927D02*
X32619081Y-22732317D01*
X56005857Y-30586493D02*
X55228370Y-29809006D01*
X41842577Y-22226927D02*
X33124471Y-22226927D01*
X42487006Y-21582498D02*
X41842577Y-22226927D01*
X29151373Y-22732317D02*
X28449992Y-23433698D01*
X54412067Y-34766628D02*
X54911374Y-34766628D01*
X55228370Y-29809006D02*
X55228370Y-29304320D01*
X56005509Y-26132001D02*
X51930634Y-22057126D01*
X56005509Y-28527181D02*
X56005509Y-26132001D01*
X28449992Y-23433698D02*
X28449992Y-25566329D01*
X56005857Y-33672145D02*
X56005857Y-30586493D01*
X54911374Y-34766628D02*
X56005857Y-33672145D01*
X54705997Y-33433156D02*
X54352444Y-33433156D01*
X55228370Y-29304320D02*
X56005509Y-28527181D01*
X28449992Y-25566329D02*
X29131288Y-26247625D01*
X44623234Y-21582498D02*
X42487006Y-21582498D01*
X54048968Y-33736632D02*
X54048968Y-34403529D01*
X54048968Y-34403529D02*
X54412067Y-34766628D01*
X54352444Y-33433156D02*
X54048968Y-33736632D01*
X54688013Y-33433156D02*
X54705997Y-33433156D01*
X42690885Y-21882509D02*
X44498966Y-21882509D01*
X54928359Y-30148656D02*
X55631019Y-30851316D01*
X44973593Y-22357137D02*
X51806366Y-22357137D01*
X51806366Y-22357137D02*
X55705498Y-26256269D01*
X55631019Y-33422031D02*
X54877523Y-34175527D01*
X55631019Y-30851316D02*
X55631019Y-33422031D01*
X55705498Y-28402913D02*
X54928359Y-29180052D01*
X42046456Y-22526938D02*
X42690885Y-21882509D01*
X33248739Y-22526938D02*
X42046456Y-22526938D01*
X32743349Y-23032328D02*
X33248739Y-22526938D01*
X28750003Y-24131733D02*
X28750003Y-23557966D01*
X28750003Y-23557966D02*
X29275641Y-23032328D01*
X54928359Y-29180052D02*
X54928359Y-30148656D01*
X29404200Y-24785930D02*
X28750003Y-24131733D01*
X55705498Y-26256269D02*
X55705498Y-28402913D01*
X54877523Y-34175527D02*
X54523970Y-34175527D01*
X44498966Y-21882509D02*
X44973593Y-22357137D01*
X29275641Y-23032328D02*
X32743349Y-23032328D01*
X33729870Y-23742923D02*
X33240421Y-24232372D01*
X50000000Y-31200000D02*
X50270668Y-30929332D01*
X50270668Y-24904638D02*
X49108953Y-23742923D01*
X50270668Y-30929332D02*
X50270668Y-24904638D01*
X29699999Y-25601255D02*
X29450000Y-25851254D01*
X29873634Y-25601255D02*
X29699999Y-25601255D01*
X31242517Y-24232372D02*
X29873634Y-25601255D01*
X33240421Y-24232372D02*
X31242517Y-24232372D01*
X49108953Y-23742923D02*
X33729870Y-23742923D01*
X49787049Y-30375002D02*
X49787049Y-25179921D01*
X49787049Y-25179921D02*
X48650062Y-24042934D01*
X33854137Y-24042934D02*
X33364689Y-24532383D01*
X30100000Y-25799169D02*
X30100000Y-26801837D01*
X48650062Y-24042934D02*
X33854137Y-24042934D01*
X29754499Y-27147338D02*
X29400946Y-27147338D01*
X31366786Y-24532383D02*
X30100000Y-25799169D01*
X33364689Y-24532383D02*
X31366786Y-24532383D01*
X30100000Y-26801837D02*
X29754499Y-27147338D01*
X54560466Y-44397437D02*
X59470584Y-44397437D01*
X59510821Y-44357200D02*
X60783103Y-44357200D01*
X59470584Y-44397437D02*
X59510821Y-44357200D01*
X51230451Y-42732010D02*
X52300817Y-43802376D01*
X53965407Y-43802376D02*
X54560466Y-44397437D01*
X61063304Y-40620626D02*
X60358123Y-39915445D01*
X60783103Y-44357200D02*
X61063304Y-44076999D01*
X61063304Y-44076999D02*
X61063304Y-40620626D01*
X52300817Y-43802376D02*
X53965407Y-43802376D01*
X60358123Y-39915445D02*
X60108124Y-39665446D01*
X51299798Y-42723111D02*
X51249091Y-42672404D01*
X51249091Y-42672404D02*
X51249091Y-42613097D01*
X66599237Y-30268235D02*
X62360271Y-30268235D01*
X60505940Y-47436470D02*
X62445931Y-45496479D01*
X58229050Y-47436470D02*
X60505940Y-47436470D01*
X57075963Y-48589557D02*
X58229050Y-47436470D01*
X62360271Y-30268235D02*
X62006718Y-30268235D01*
X40127721Y-48045436D02*
X40859763Y-47313394D01*
X34632181Y-48045436D02*
X40127721Y-48045436D01*
X33481172Y-46964250D02*
X33550995Y-46964250D01*
X32124999Y-45608077D02*
X33481172Y-46964250D01*
X32124999Y-44771999D02*
X32124999Y-45608077D01*
X34257997Y-42639001D02*
X32124999Y-44771999D01*
X36042001Y-42639001D02*
X34257997Y-42639001D01*
X40859763Y-47313394D02*
X41812838Y-47313395D01*
X67235001Y-30903999D02*
X66599237Y-30268235D01*
X32844246Y-41650566D02*
X36003568Y-41650566D01*
X67235001Y-44615664D02*
X67235001Y-30903999D01*
X41812838Y-47313395D02*
X42181938Y-47682496D01*
X47799618Y-48589557D02*
X57075963Y-48589557D01*
X66354186Y-45496479D02*
X67235001Y-44615664D01*
X36289001Y-42392001D02*
X36042001Y-42639001D01*
X42181938Y-47682496D02*
X46892557Y-47682496D01*
X46892557Y-47682496D02*
X47799618Y-48589557D01*
X33550995Y-46964250D02*
X34632181Y-48045436D01*
X36289001Y-41935999D02*
X36289001Y-42392001D01*
X30393660Y-39199980D02*
X32844246Y-41650566D01*
X36003568Y-41650566D02*
X36289001Y-41935999D01*
X62445931Y-45496479D02*
X66354186Y-45496479D01*
X39160164Y-28000000D02*
X38196110Y-28964054D01*
X38196110Y-28964054D02*
X38196110Y-34570702D01*
X38196110Y-34570702D02*
X38196110Y-34924255D01*
X40175000Y-32944939D02*
X39178589Y-33941350D01*
X40175000Y-28000000D02*
X40175000Y-32944939D01*
X39178589Y-33941350D02*
X38928590Y-34191349D01*
X41286752Y-31004573D02*
X40943397Y-31347928D01*
X40943397Y-32857304D02*
X38915492Y-34885209D01*
X40943397Y-31347928D02*
X40943397Y-32857304D01*
X38915492Y-35225651D02*
X38915492Y-35579204D01*
X38915492Y-34885209D02*
X38915492Y-35225651D01*
X41286752Y-27900000D02*
X41286752Y-31004573D01*
X41587538Y-31128065D02*
X41277598Y-31438005D01*
X41587538Y-28309876D02*
X41587538Y-31128065D01*
X39740440Y-34754255D02*
X39490441Y-35004254D01*
X41277598Y-31438005D02*
X41277598Y-33217097D01*
X42105159Y-27792255D02*
X41587538Y-28309876D01*
X41277598Y-33217097D02*
X39740440Y-34754255D01*
X60400848Y-39018287D02*
X60047295Y-39018287D01*
X61363315Y-44250002D02*
X61363315Y-39980754D01*
X54436198Y-44697448D02*
X59594852Y-44697448D01*
X52022982Y-44102387D02*
X53841139Y-44102387D01*
X59594852Y-44697448D02*
X59635089Y-44657211D01*
X50523057Y-31626943D02*
X50523057Y-31980496D01*
X61363315Y-39980754D02*
X60400848Y-39018287D01*
X60956106Y-44657211D02*
X61363315Y-44250002D01*
X50523057Y-31980496D02*
X50732057Y-32189496D01*
X59635089Y-44657211D02*
X60956106Y-44657211D01*
X50732057Y-42811462D02*
X52022982Y-44102387D01*
X53841139Y-44102387D02*
X54436198Y-44697448D01*
X50732057Y-32189496D02*
X50732057Y-42811462D01*
X54213942Y-43202354D02*
X54809002Y-43797415D01*
X57867146Y-43797415D02*
X59935407Y-41729154D01*
X59935407Y-41729154D02*
X60185406Y-41479155D01*
X51685439Y-30371871D02*
X51685439Y-30725424D01*
X54809002Y-43797415D02*
X57867146Y-43797415D01*
X51685439Y-30725424D02*
X51332079Y-31078784D01*
X52562804Y-43202354D02*
X54213942Y-43202354D01*
X52057963Y-42697513D02*
X52562804Y-43202354D01*
X52057963Y-41894934D02*
X52057963Y-42697513D01*
X51332079Y-41169050D02*
X52057963Y-41894934D01*
X51332079Y-31078784D02*
X51332079Y-41169050D01*
X59896448Y-42390296D02*
X60250001Y-42390296D01*
X51037072Y-30771637D02*
X51032068Y-30776641D01*
X51757952Y-42019202D02*
X51757952Y-42821781D01*
X51032068Y-30776641D02*
X51032068Y-41293318D01*
X58189317Y-44097426D02*
X59896448Y-42390296D01*
X51757952Y-42821781D02*
X52438536Y-43502365D01*
X51037072Y-30418084D02*
X51037072Y-30771637D01*
X52438536Y-43502365D02*
X54089675Y-43502365D01*
X54089675Y-43502365D02*
X54684734Y-44097426D01*
X51032068Y-41293318D02*
X51757952Y-42019202D01*
X54684734Y-44097426D02*
X58189317Y-44097426D01*
X52232112Y-40796246D02*
X54933270Y-43497404D01*
X60763298Y-43218501D02*
X60349608Y-43632191D01*
X52232112Y-31561647D02*
X52232112Y-40796246D01*
X60349608Y-43632191D02*
X60099609Y-43882190D01*
X60763298Y-41360296D02*
X60763298Y-43218501D01*
X60378001Y-40974999D02*
X60763298Y-41360296D01*
X52935461Y-30474191D02*
X52935461Y-30858298D01*
X52935461Y-30858298D02*
X52232112Y-31561647D01*
X54933270Y-43497404D02*
X57489130Y-43497404D01*
X57489130Y-43497404D02*
X60011535Y-40974999D01*
X60011535Y-40974999D02*
X60378001Y-40974999D01*
X58718527Y-24647419D02*
X58877835Y-24647419D01*
X55828223Y-21757115D02*
X58718527Y-24647419D01*
X60730943Y-26500527D02*
X60980942Y-26750526D01*
X58877835Y-24647419D02*
X60730943Y-26500527D01*
X44831512Y-21282487D02*
X45306139Y-21757115D01*
X42362738Y-21282487D02*
X44831512Y-21282487D01*
X41718309Y-21926916D02*
X42362738Y-21282487D01*
X32431693Y-22432307D02*
X32937084Y-21926916D01*
X29027104Y-22432308D02*
X32431693Y-22432307D01*
X32937084Y-21926916D02*
X41718309Y-21926916D01*
X28149981Y-23309431D02*
X29027104Y-22432308D01*
X28149981Y-28911981D02*
X28149981Y-23309431D01*
X30365098Y-31127098D02*
X28149981Y-28911981D01*
X33879846Y-31127098D02*
X30365098Y-31127098D01*
X36595525Y-33842777D02*
X33879846Y-31127098D01*
X45306139Y-21757115D02*
X55828223Y-21757115D01*
X36595525Y-34196330D02*
X36595525Y-33842777D01*
X62196468Y-29710469D02*
X61946469Y-29460470D01*
X62409521Y-29923522D02*
X62196468Y-29710469D01*
X67225001Y-47176001D02*
X67225001Y-45432261D01*
X66664521Y-47736481D02*
X67225001Y-47176001D01*
X46768289Y-47982507D02*
X47675350Y-48889568D01*
X58353318Y-47736481D02*
X66664521Y-47736481D01*
X41688569Y-47613405D02*
X42057670Y-47982507D01*
X40984031Y-47613405D02*
X41688569Y-47613405D01*
X66724522Y-29923522D02*
X62409521Y-29923522D01*
X40251989Y-48345447D02*
X40984031Y-47613405D01*
X34507913Y-48345447D02*
X40251989Y-48345447D01*
X33426727Y-47264261D02*
X34507913Y-48345447D01*
X31824988Y-45732345D02*
X33356904Y-47264261D01*
X34308719Y-42164000D02*
X31824988Y-44647731D01*
X35814000Y-42164000D02*
X34308719Y-42164000D01*
X67225001Y-45432261D02*
X67535010Y-45122252D01*
X33356904Y-47264261D02*
X33426727Y-47264261D01*
X57200231Y-48889568D02*
X58353318Y-47736481D01*
X47675350Y-48889568D02*
X57200231Y-48889568D01*
X31824988Y-44647731D02*
X31824988Y-45732345D01*
X67535010Y-30734010D02*
X66724522Y-29923522D01*
X67535010Y-45122252D02*
X67535010Y-30734010D01*
X42057670Y-47982507D02*
X46768289Y-47982507D01*
X28405348Y-32704081D02*
X23027656Y-32704081D01*
X28852209Y-33150942D02*
X28405348Y-32704081D01*
X28852209Y-36264988D02*
X28852209Y-33150942D01*
X22536075Y-26132923D02*
X23636815Y-25032183D01*
X22536075Y-32212500D02*
X22536075Y-26132923D01*
X23027656Y-32704081D02*
X22536075Y-32212500D01*
X32781652Y-21626905D02*
X41594041Y-21626905D01*
X32287023Y-22121534D02*
X32781652Y-21626905D01*
X28912895Y-22121534D02*
X32287023Y-22121534D01*
X27846893Y-23187536D02*
X28912895Y-22121534D01*
X27846893Y-24197061D02*
X27846893Y-23187536D01*
X27011771Y-25032183D02*
X27846893Y-24197061D01*
X23636815Y-25032183D02*
X27011771Y-25032183D01*
X55477862Y-20982476D02*
X58653565Y-24158179D01*
X42238470Y-20982476D02*
X55477862Y-20982476D01*
X41594041Y-21626905D02*
X42238470Y-20982476D01*
X58653565Y-24158179D02*
X59852867Y-24158179D01*
X59852867Y-24158179D02*
X60994688Y-25300000D01*
X60994688Y-25300000D02*
X60994688Y-25633513D01*
X60994688Y-25633513D02*
X62137104Y-26775929D01*
X62137104Y-26775929D02*
X62137104Y-27586546D01*
X62137104Y-27586546D02*
X61149985Y-28573665D01*
X61149985Y-28573665D02*
X60899986Y-28823664D01*
X51632090Y-31313111D02*
X52160449Y-30784752D01*
X52160449Y-30784752D02*
X52160449Y-30121922D01*
X52700000Y-42650000D02*
X52700000Y-42112692D01*
X52169103Y-30113268D02*
X52169103Y-28112684D01*
X52160449Y-30121922D02*
X52169103Y-30113268D01*
X52169103Y-28112684D02*
X52585257Y-27696530D01*
X51632090Y-41044782D02*
X51632090Y-31313111D01*
X52700000Y-42112692D02*
X51632090Y-41044782D01*
X52585257Y-27696530D02*
X52585257Y-27342977D01*
X51932101Y-40920513D02*
X51932101Y-31437379D01*
X53434743Y-42634743D02*
X53434743Y-42423155D01*
X53434743Y-42423155D02*
X51932101Y-40920513D01*
X51932101Y-31437379D02*
X52460460Y-30909020D01*
X52460460Y-30909020D02*
X52460460Y-30246190D01*
X52460460Y-30246190D02*
X52469114Y-30237536D01*
X52469114Y-30237536D02*
X52469114Y-28256561D01*
X52469114Y-28256561D02*
X53118420Y-27607255D01*
X53118420Y-27607255D02*
X53118420Y-27473843D01*
X53118420Y-27473843D02*
X53871668Y-26720595D01*
X53871668Y-26720595D02*
X54225221Y-26720595D01*
X62322524Y-45195608D02*
X61960888Y-45557244D01*
X59960310Y-45604827D02*
X58064769Y-45604827D01*
X58064769Y-45604827D02*
X56165060Y-47504536D01*
X50395465Y-47504536D02*
X47852310Y-44961381D01*
X60007893Y-45557244D02*
X59960310Y-45604827D01*
X64594392Y-45195608D02*
X62322524Y-45195608D01*
X64910000Y-44880000D02*
X64594392Y-45195608D01*
X61960888Y-45557244D02*
X60007893Y-45557244D01*
X47852310Y-42901508D02*
X47852310Y-42547955D01*
X56165060Y-47504536D02*
X50395465Y-47504536D01*
X47852310Y-44961381D02*
X47852310Y-42901508D01*
X57558064Y-45004805D02*
X59711774Y-45004805D01*
X59759357Y-44957222D02*
X61080374Y-44957222D01*
X62400000Y-36759130D02*
X62400000Y-32713173D01*
X61663326Y-44374270D02*
X61663326Y-37495804D01*
X59711774Y-45004805D02*
X59759357Y-44957222D01*
X62400000Y-32713173D02*
X61553567Y-31866740D01*
X61553567Y-31866740D02*
X61200014Y-31866740D01*
X61663326Y-37495804D02*
X62400000Y-36759130D01*
X51105193Y-46709892D02*
X55852977Y-46709892D01*
X61080374Y-44957222D02*
X61663326Y-44374270D01*
X55852977Y-46709892D02*
X57558064Y-45004805D01*
X60020150Y-26353836D02*
X60020150Y-26707389D01*
X60020150Y-26222946D02*
X60020150Y-26353836D01*
X58744634Y-24947430D02*
X60020150Y-26222946D01*
X57884125Y-24947430D02*
X58744634Y-24947430D01*
X57278917Y-24342222D02*
X57884125Y-24947430D01*
X42523580Y-45146459D02*
X42523580Y-45500012D01*
X42523580Y-45110657D02*
X42523580Y-45146459D01*
X41988667Y-32509141D02*
X41988667Y-33340852D01*
X43865926Y-35218111D02*
X43865926Y-36078727D01*
X41988667Y-33340852D02*
X43865926Y-35218111D01*
X43839644Y-36105009D02*
X43839644Y-43794593D01*
X43839644Y-43794593D02*
X42523580Y-45110657D01*
X43865926Y-36078727D02*
X43839644Y-36105009D01*
X42418408Y-32079400D02*
X41988667Y-32509141D01*
X44413966Y-34936213D02*
X42811035Y-33333282D01*
X44413966Y-45447498D02*
X44413966Y-34936213D01*
X42811035Y-33333282D02*
X42561036Y-33083283D01*
X49275036Y-36815643D02*
X49261102Y-36829577D01*
X49261102Y-36829577D02*
X49261102Y-41972869D01*
X49261102Y-41972869D02*
X48894451Y-42339520D01*
X48894451Y-42339520D02*
X48644452Y-42589519D01*
X37739196Y-44370177D02*
X38132990Y-43976383D01*
X38132990Y-43976383D02*
X38132990Y-38008247D01*
X38132990Y-38008247D02*
X37094227Y-36969484D01*
X37094227Y-36969484D02*
X37094227Y-35778943D01*
X37094227Y-35778943D02*
X37600000Y-35273170D01*
X37600000Y-35273170D02*
X37600000Y-32011545D01*
X37600000Y-32011545D02*
X35532870Y-29944415D01*
X35532870Y-29944415D02*
X30533315Y-29944415D01*
X39400000Y-39341812D02*
X42408582Y-36333230D01*
X39400000Y-40550002D02*
X39400000Y-39341812D01*
X42408582Y-36333230D02*
X42658581Y-36083231D01*
X29987719Y-33238209D02*
X31054487Y-32171441D01*
X31054487Y-32171441D02*
X33082435Y-32171441D01*
X33082435Y-32171441D02*
X34275000Y-33364006D01*
X34275000Y-33364006D02*
X34275000Y-33800000D01*
G36*
X69725000Y-48206449D02*
X69714441Y-48190040D01*
X69639253Y-48138666D01*
X69550000Y-48120592D01*
X67850000Y-48120592D01*
X67766620Y-48136281D01*
X67690040Y-48185559D01*
X67638666Y-48260747D01*
X67620592Y-48350000D01*
X67620592Y-50050000D01*
X67636281Y-50133380D01*
X67685559Y-50209960D01*
X67707571Y-50225000D01*
X67143551Y-50225000D01*
X67159960Y-50214441D01*
X67211334Y-50139253D01*
X67229408Y-50050000D01*
X67229408Y-48350000D01*
X67213719Y-48266620D01*
X67164441Y-48190040D01*
X67102101Y-48147444D01*
X67737144Y-47512401D01*
X67802176Y-47415074D01*
X67825012Y-47300269D01*
X67825012Y-47279776D01*
X67918800Y-47420140D01*
X68267555Y-47653170D01*
X68678940Y-47735000D01*
X68721060Y-47735000D01*
X69132445Y-47653170D01*
X69481200Y-47420140D01*
X69714230Y-47071385D01*
X69725000Y-47017241D01*
X69725000Y-48206449D01*
X69725000Y-48206449D01*
G37*
X69725000Y-48206449D02*
X69714441Y-48190040D01*
X69639253Y-48138666D01*
X69550000Y-48120592D01*
X67850000Y-48120592D01*
X67766620Y-48136281D01*
X67690040Y-48185559D01*
X67638666Y-48260747D01*
X67620592Y-48350000D01*
X67620592Y-50050000D01*
X67636281Y-50133380D01*
X67685559Y-50209960D01*
X67707571Y-50225000D01*
X67143551Y-50225000D01*
X67159960Y-50214441D01*
X67211334Y-50139253D01*
X67229408Y-50050000D01*
X67229408Y-48350000D01*
X67213719Y-48266620D01*
X67164441Y-48190040D01*
X67102101Y-48147444D01*
X67737144Y-47512401D01*
X67802176Y-47415074D01*
X67825012Y-47300269D01*
X67825012Y-47279776D01*
X67918800Y-47420140D01*
X68267555Y-47653170D01*
X68678940Y-47735000D01*
X68721060Y-47735000D01*
X69132445Y-47653170D01*
X69481200Y-47420140D01*
X69714230Y-47071385D01*
X69725000Y-47017241D01*
X69725000Y-48206449D01*
G36*
X20285770Y-26771385D02*
X20518800Y-27120140D01*
X20867555Y-27353170D01*
X21278940Y-27435000D01*
X21321060Y-27435000D01*
X21732445Y-27353170D01*
X22081200Y-27120140D01*
X22236075Y-26888353D01*
X22236075Y-27842115D01*
X22194755Y-27825000D01*
X21381250Y-27825000D01*
X21325000Y-27881250D01*
X21325000Y-28875000D01*
X21345000Y-28875000D01*
X21345000Y-28925000D01*
X21325000Y-28925000D01*
X21325000Y-29918750D01*
X21381250Y-29975000D01*
X22194755Y-29975000D01*
X22236075Y-29957885D01*
X22236075Y-30928405D01*
X22184155Y-30808525D01*
X21882851Y-30516719D01*
X21492814Y-30362430D01*
X21325000Y-30401538D01*
X21325000Y-31395000D01*
X21345000Y-31395000D01*
X21345000Y-31445000D01*
X21325000Y-31445000D01*
X21325000Y-32438462D01*
X21492814Y-32477570D01*
X21882851Y-32323281D01*
X22184155Y-32031475D01*
X22236075Y-31911595D01*
X22236075Y-32212500D01*
X22258911Y-32327305D01*
X22323943Y-32424632D01*
X22815524Y-32916213D01*
X22912851Y-32981245D01*
X23027656Y-33004081D01*
X23411805Y-33004081D01*
X23118800Y-33199860D01*
X22885770Y-33548615D01*
X22803940Y-33960000D01*
X22885770Y-34371385D01*
X23118800Y-34720140D01*
X23467555Y-34953170D01*
X23878940Y-35035000D01*
X23921060Y-35035000D01*
X24332445Y-34953170D01*
X24681200Y-34720140D01*
X24914230Y-34371385D01*
X24996060Y-33960000D01*
X24914230Y-33548615D01*
X24681200Y-33199860D01*
X24388195Y-33004081D01*
X26011805Y-33004081D01*
X25718800Y-33199860D01*
X25485770Y-33548615D01*
X25403940Y-33960000D01*
X25485770Y-34371385D01*
X25718800Y-34720140D01*
X26067555Y-34953170D01*
X26478940Y-35035000D01*
X26521060Y-35035000D01*
X26932445Y-34953170D01*
X27281200Y-34720140D01*
X27514230Y-34371385D01*
X27596060Y-33960000D01*
X27514230Y-33548615D01*
X27281200Y-33199860D01*
X26988195Y-33004081D01*
X28281084Y-33004081D01*
X28552209Y-33275206D01*
X28552209Y-33412187D01*
X28534567Y-33394514D01*
X28360048Y-33322047D01*
X28171081Y-33321883D01*
X27996436Y-33394045D01*
X27862699Y-33527548D01*
X27790232Y-33702067D01*
X27790068Y-33891034D01*
X27862230Y-34065679D01*
X27995733Y-34199416D01*
X28051787Y-34222692D01*
X27996436Y-34245562D01*
X27862699Y-34379065D01*
X27790232Y-34553584D01*
X27790068Y-34742551D01*
X27862230Y-34917196D01*
X27995733Y-35050933D01*
X28051787Y-35074209D01*
X27996436Y-35097079D01*
X27862699Y-35230582D01*
X27790232Y-35405101D01*
X27790068Y-35594068D01*
X27862230Y-35768713D01*
X27995733Y-35902450D01*
X28170252Y-35974917D01*
X28359219Y-35975081D01*
X28533864Y-35902919D01*
X28552209Y-35884606D01*
X28552209Y-35893299D01*
X28449758Y-35995571D01*
X28377291Y-36170090D01*
X28377127Y-36359057D01*
X28449289Y-36533702D01*
X28582792Y-36667439D01*
X28757311Y-36739906D01*
X28946278Y-36740070D01*
X29120923Y-36667908D01*
X29254660Y-36534405D01*
X29327127Y-36359886D01*
X29327291Y-36170919D01*
X29255129Y-35996274D01*
X29152209Y-35893174D01*
X29152209Y-34769069D01*
X31024918Y-34769069D01*
X31097080Y-34943714D01*
X31230583Y-35077451D01*
X31405102Y-35149918D01*
X31594069Y-35150082D01*
X31768714Y-35077920D01*
X31902451Y-34944417D01*
X31974918Y-34769898D01*
X31975082Y-34580931D01*
X31902920Y-34406286D01*
X31769417Y-34272549D01*
X31594898Y-34200082D01*
X31405931Y-34199918D01*
X31231286Y-34272080D01*
X31097549Y-34405583D01*
X31025082Y-34580102D01*
X31024918Y-34769069D01*
X29152209Y-34769069D01*
X29152209Y-33150942D01*
X29129373Y-33036137D01*
X29064341Y-32938810D01*
X28617480Y-32491949D01*
X28520153Y-32426917D01*
X28405348Y-32404081D01*
X26946048Y-32404081D01*
X27281200Y-32180140D01*
X27355719Y-32068614D01*
X27397080Y-32168714D01*
X27530583Y-32302451D01*
X27705102Y-32374918D01*
X27894069Y-32375082D01*
X28068714Y-32302920D01*
X28202451Y-32169417D01*
X28274918Y-31994898D01*
X28275082Y-31805931D01*
X28202920Y-31631286D01*
X28069417Y-31497549D01*
X27894898Y-31425082D01*
X27705931Y-31424918D01*
X27585155Y-31474822D01*
X27596060Y-31420000D01*
X27554786Y-31212501D01*
X27705102Y-31274918D01*
X27894069Y-31275082D01*
X28068714Y-31202920D01*
X28202451Y-31069417D01*
X28274918Y-30894898D01*
X28275082Y-30705931D01*
X28217554Y-30566704D01*
X28338501Y-30566704D01*
X29667103Y-31895306D01*
X29813093Y-31992854D01*
X29985301Y-32027108D01*
X30774556Y-32027108D01*
X30038411Y-32763253D01*
X29893650Y-32763127D01*
X29719005Y-32835289D01*
X29585268Y-32968792D01*
X29512801Y-33143311D01*
X29512637Y-33332278D01*
X29584799Y-33506923D01*
X29718302Y-33640660D01*
X29892821Y-33713127D01*
X30081788Y-33713291D01*
X30256433Y-33641129D01*
X30390170Y-33507626D01*
X30462637Y-33333107D01*
X30462763Y-33187429D01*
X31178751Y-32471441D01*
X32958171Y-32471441D01*
X33944994Y-33458264D01*
X33872549Y-33530583D01*
X33800082Y-33705102D01*
X33800049Y-33743224D01*
X33756358Y-33725082D01*
X33567391Y-33724918D01*
X33392746Y-33797080D01*
X33259009Y-33930583D01*
X33186542Y-34105102D01*
X33186378Y-34294069D01*
X33258540Y-34468714D01*
X33392043Y-34602451D01*
X33566562Y-34674918D01*
X33567389Y-34674919D01*
X33392746Y-34747080D01*
X33259009Y-34880583D01*
X33186542Y-35055102D01*
X33186378Y-35244069D01*
X33258540Y-35418714D01*
X33389708Y-35550112D01*
X33259009Y-35680583D01*
X33186542Y-35855102D01*
X33186378Y-36044069D01*
X33258540Y-36218714D01*
X33392043Y-36352451D01*
X33566562Y-36424918D01*
X33718662Y-36425050D01*
X33796654Y-36477163D01*
X33911459Y-36499999D01*
X35000466Y-36499999D01*
X35113330Y-36477549D01*
X34490879Y-37100000D01*
X32578354Y-37100000D01*
X32659075Y-37019420D01*
X32731542Y-36844901D01*
X32731706Y-36655934D01*
X32659544Y-36481289D01*
X32526041Y-36347552D01*
X32351522Y-36275085D01*
X32162555Y-36274921D01*
X31987910Y-36347083D01*
X31854173Y-36480586D01*
X31781706Y-36655105D01*
X31781542Y-36844072D01*
X31853704Y-37018717D01*
X31934845Y-37100000D01*
X31749264Y-37100000D01*
X31026371Y-36377107D01*
X30929044Y-36312075D01*
X30814239Y-36289239D01*
X30474552Y-36289239D01*
X30474590Y-36245171D01*
X30402428Y-36070526D01*
X30268925Y-35936789D01*
X30094406Y-35864322D01*
X29905439Y-35864158D01*
X29730794Y-35936320D01*
X29597057Y-36069823D01*
X29524590Y-36244342D01*
X29524426Y-36433309D01*
X29596588Y-36607954D01*
X29730091Y-36741691D01*
X29904610Y-36814158D01*
X30056710Y-36814290D01*
X30134702Y-36866403D01*
X30249507Y-36889239D01*
X30689975Y-36889239D01*
X31412868Y-37612132D01*
X31510195Y-37677164D01*
X31625000Y-37700000D01*
X34615143Y-37700000D01*
X34729948Y-37677164D01*
X34827275Y-37612132D01*
X36144083Y-36295324D01*
X36288844Y-36295450D01*
X36463489Y-36223288D01*
X36491740Y-36195086D01*
X36491740Y-39194199D01*
X36514576Y-39309004D01*
X36579608Y-39406331D01*
X37139186Y-39965909D01*
X37139186Y-42859627D01*
X36596835Y-43401978D01*
X35710608Y-43401978D01*
X35595803Y-43424814D01*
X35498476Y-43489846D01*
X35020661Y-43967661D01*
X34955629Y-44064988D01*
X34932793Y-44179793D01*
X34932793Y-44837222D01*
X34955629Y-44952027D01*
X35020661Y-45049354D01*
X35757625Y-45786318D01*
X35854952Y-45851350D01*
X35969757Y-45874186D01*
X38488411Y-45874186D01*
X38121863Y-46240735D01*
X35990975Y-46240735D01*
X34288109Y-44537869D01*
X34190782Y-44472837D01*
X34075977Y-44450001D01*
X32871261Y-44450001D01*
X34382261Y-42939001D01*
X36042001Y-42939001D01*
X36156806Y-42916165D01*
X36254133Y-42851133D01*
X36501133Y-42604133D01*
X36566165Y-42506806D01*
X36589001Y-42392001D01*
X36589001Y-41935999D01*
X36566165Y-41821194D01*
X36501133Y-41723867D01*
X36215700Y-41438434D01*
X36118373Y-41373402D01*
X36003568Y-41350566D01*
X32968510Y-41350566D01*
X31632443Y-40014499D01*
X33931226Y-40014499D01*
X34003388Y-40189144D01*
X34136891Y-40322881D01*
X34178170Y-40340021D01*
X34137549Y-40380571D01*
X34065082Y-40555090D01*
X34064918Y-40744057D01*
X34137080Y-40918702D01*
X34270583Y-41052439D01*
X34445102Y-41124906D01*
X34634069Y-41125070D01*
X34808714Y-41052908D01*
X34942451Y-40919405D01*
X35014918Y-40744886D01*
X35015082Y-40555919D01*
X34947000Y-40391148D01*
X34957114Y-40395348D01*
X35146081Y-40395512D01*
X35320726Y-40323350D01*
X35454463Y-40189847D01*
X35526930Y-40015328D01*
X35527094Y-39826361D01*
X35454932Y-39651716D01*
X35321429Y-39517979D01*
X35146910Y-39445512D01*
X34957943Y-39445348D01*
X34783298Y-39517510D01*
X34729183Y-39571531D01*
X34675725Y-39517979D01*
X34501206Y-39445512D01*
X34312239Y-39445348D01*
X34137594Y-39517510D01*
X34003857Y-39651013D01*
X33931390Y-39825532D01*
X33931226Y-40014499D01*
X31632443Y-40014499D01*
X30868616Y-39250672D01*
X30868742Y-39105911D01*
X30796580Y-38931266D01*
X30663077Y-38797529D01*
X30548615Y-38750000D01*
X34607188Y-38750000D01*
X36096794Y-40239606D01*
X36096668Y-40384367D01*
X36168830Y-40559012D01*
X36302333Y-40692749D01*
X36476852Y-40765216D01*
X36665819Y-40765380D01*
X36840464Y-40693218D01*
X36974201Y-40559715D01*
X37046668Y-40385196D01*
X37046832Y-40196229D01*
X36974670Y-40021584D01*
X36841167Y-39887847D01*
X36666648Y-39815380D01*
X36520970Y-39815254D01*
X34943584Y-38237868D01*
X34846257Y-38172836D01*
X34731452Y-38150000D01*
X30000000Y-38150000D01*
X29885195Y-38172836D01*
X29787868Y-38237868D01*
X29256278Y-38769458D01*
X29191246Y-38866785D01*
X29168410Y-38981590D01*
X29168410Y-43800046D01*
X29191246Y-43914851D01*
X29256278Y-44012178D01*
X31158472Y-45914372D01*
X30329905Y-45914372D01*
X30227633Y-45811921D01*
X30053114Y-45739454D01*
X29864147Y-45739290D01*
X29689502Y-45811452D01*
X29555765Y-45944955D01*
X29483298Y-46119474D01*
X29483134Y-46308441D01*
X29555296Y-46483086D01*
X29688799Y-46616823D01*
X29863318Y-46689290D01*
X30052285Y-46689454D01*
X30226930Y-46617292D01*
X30330030Y-46514372D01*
X31334193Y-46514372D01*
X31734823Y-46915002D01*
X31421689Y-46915002D01*
X31319417Y-46812551D01*
X31144898Y-46740084D01*
X30955931Y-46739920D01*
X30781286Y-46812082D01*
X30647549Y-46945585D01*
X30575082Y-47120104D01*
X30574918Y-47309071D01*
X30647080Y-47483716D01*
X30780583Y-47617453D01*
X30955102Y-47689920D01*
X31144069Y-47690084D01*
X31318714Y-47617922D01*
X31421814Y-47515002D01*
X31910544Y-47515002D01*
X32257905Y-47862363D01*
X32105924Y-47862231D01*
X31931279Y-47934393D01*
X31797542Y-48067896D01*
X31725075Y-48242415D01*
X31724911Y-48431382D01*
X31797073Y-48606027D01*
X31930576Y-48739764D01*
X32105095Y-48812231D01*
X32294062Y-48812395D01*
X32468707Y-48740233D01*
X32602444Y-48606730D01*
X32674911Y-48432211D01*
X32675044Y-48279502D01*
X32771968Y-48376426D01*
X32869295Y-48441458D01*
X32916141Y-48450776D01*
X34113917Y-49648552D01*
X34211244Y-49713584D01*
X34326049Y-49736420D01*
X40547955Y-49736420D01*
X40758387Y-49946852D01*
X40855714Y-50011884D01*
X40947890Y-50030219D01*
X41054655Y-50137171D01*
X41229174Y-50209638D01*
X41418141Y-50209802D01*
X41592786Y-50137640D01*
X41726523Y-50004137D01*
X41798990Y-49829618D01*
X41799154Y-49640651D01*
X41726992Y-49466006D01*
X41653704Y-49392590D01*
X41720274Y-49326136D01*
X41792741Y-49151617D01*
X41792905Y-48962650D01*
X41720743Y-48788005D01*
X41664646Y-48731810D01*
X41738751Y-48657834D01*
X41787997Y-48539237D01*
X41818596Y-48559682D01*
X41933401Y-48582518D01*
X46519757Y-48582518D01*
X46918150Y-48980911D01*
X46843997Y-48950120D01*
X46655030Y-48949956D01*
X46480385Y-49022118D01*
X46426850Y-49075560D01*
X46358200Y-49006790D01*
X46183681Y-48934323D01*
X45994714Y-48934159D01*
X45820069Y-49006321D01*
X45686332Y-49139824D01*
X45613865Y-49314343D01*
X45613701Y-49503310D01*
X45685863Y-49677955D01*
X45819366Y-49811692D01*
X45993885Y-49884159D01*
X46182852Y-49884323D01*
X46357497Y-49812161D01*
X46411032Y-49758719D01*
X46479682Y-49827489D01*
X46654201Y-49899956D01*
X46843168Y-49900120D01*
X47017813Y-49827958D01*
X47151550Y-49694455D01*
X47224017Y-49519936D01*
X47224181Y-49330969D01*
X47193180Y-49255941D01*
X47338950Y-49401711D01*
X47436277Y-49466743D01*
X47551082Y-49489579D01*
X57324499Y-49489579D01*
X57439304Y-49466743D01*
X57536631Y-49401711D01*
X58601850Y-48336492D01*
X62523327Y-48336492D01*
X62520592Y-48350000D01*
X62520592Y-50050000D01*
X62536281Y-50133380D01*
X62585559Y-50209960D01*
X62607571Y-50225000D01*
X62075284Y-50225000D01*
X62075316Y-50188578D01*
X61798062Y-49517571D01*
X61285129Y-49003742D01*
X60614608Y-48725317D01*
X59888578Y-48724684D01*
X59217571Y-49001938D01*
X58703742Y-49514871D01*
X58425317Y-50185392D01*
X58425282Y-50225000D01*
X45066790Y-50225000D01*
X45081157Y-50210658D01*
X45153624Y-50036139D01*
X45153788Y-49847172D01*
X45081626Y-49672527D01*
X44948123Y-49538790D01*
X44773604Y-49466323D01*
X44584637Y-49466159D01*
X44409992Y-49538321D01*
X44276255Y-49671824D01*
X44203788Y-49846343D01*
X44203624Y-50035310D01*
X44275786Y-50209955D01*
X44290805Y-50225000D01*
X31575241Y-50225000D01*
X31575316Y-50138578D01*
X31298062Y-49467571D01*
X30785129Y-48953742D01*
X30114608Y-48675317D01*
X29388578Y-48674684D01*
X28717571Y-48951938D01*
X28203742Y-49464871D01*
X27925317Y-50135392D01*
X27925239Y-50225000D01*
X27493551Y-50225000D01*
X27509960Y-50214441D01*
X27561334Y-50139253D01*
X27579408Y-50050000D01*
X27579408Y-48350000D01*
X27563719Y-48266620D01*
X27514441Y-48190040D01*
X27439253Y-48138666D01*
X27350000Y-48120592D01*
X25650000Y-48120592D01*
X25566620Y-48136281D01*
X25490040Y-48185559D01*
X25438666Y-48260747D01*
X25420592Y-48350000D01*
X25420592Y-50050000D01*
X25436281Y-50133380D01*
X25485559Y-50209960D01*
X25507571Y-50225000D01*
X24893551Y-50225000D01*
X24909960Y-50214441D01*
X24961334Y-50139253D01*
X24979408Y-50050000D01*
X24979408Y-48350000D01*
X24963719Y-48266620D01*
X24914441Y-48190040D01*
X24839253Y-48138666D01*
X24750000Y-48120592D01*
X23050000Y-48120592D01*
X22966620Y-48136281D01*
X22890040Y-48185559D01*
X22838666Y-48260747D01*
X22820592Y-48350000D01*
X22820592Y-50050000D01*
X22836281Y-50133380D01*
X22885559Y-50209960D01*
X22907571Y-50225000D01*
X22293198Y-50225000D01*
X22340746Y-50177452D01*
X22375000Y-50094756D01*
X22375000Y-49281250D01*
X22318750Y-49225000D01*
X21325000Y-49225000D01*
X21325000Y-49245000D01*
X21275000Y-49245000D01*
X21275000Y-49225000D01*
X21255000Y-49225000D01*
X21255000Y-49175000D01*
X21275000Y-49175000D01*
X21275000Y-48181250D01*
X21325000Y-48181250D01*
X21325000Y-49175000D01*
X22318750Y-49175000D01*
X22375000Y-49118750D01*
X22375000Y-48305244D01*
X22340746Y-48222548D01*
X22277452Y-48159254D01*
X22194755Y-48125000D01*
X21381250Y-48125000D01*
X21325000Y-48181250D01*
X21275000Y-48181250D01*
X21218750Y-48125000D01*
X20405245Y-48125000D01*
X20322548Y-48159254D01*
X20275000Y-48206802D01*
X20275000Y-46946273D01*
X20415845Y-47271475D01*
X20717149Y-47563281D01*
X21107186Y-47717570D01*
X21275000Y-47678462D01*
X21275000Y-46685000D01*
X21325000Y-46685000D01*
X21325000Y-47678462D01*
X21492814Y-47717570D01*
X21882851Y-47563281D01*
X22184155Y-47271475D01*
X22350854Y-46886578D01*
X22357567Y-46852814D01*
X22318443Y-46685000D01*
X21325000Y-46685000D01*
X21275000Y-46685000D01*
X21255000Y-46685000D01*
X21255000Y-46660000D01*
X22803940Y-46660000D01*
X22885770Y-47071385D01*
X23118800Y-47420140D01*
X23467555Y-47653170D01*
X23878940Y-47735000D01*
X23921060Y-47735000D01*
X24332445Y-47653170D01*
X24681200Y-47420140D01*
X24914230Y-47071385D01*
X24996060Y-46660000D01*
X25403940Y-46660000D01*
X25485770Y-47071385D01*
X25718800Y-47420140D01*
X26067555Y-47653170D01*
X26478940Y-47735000D01*
X26521060Y-47735000D01*
X26932445Y-47653170D01*
X27281200Y-47420140D01*
X27514230Y-47071385D01*
X27596060Y-46660000D01*
X27514230Y-46248615D01*
X27281200Y-45899860D01*
X26932445Y-45666830D01*
X26521060Y-45585000D01*
X26478940Y-45585000D01*
X26067555Y-45666830D01*
X25718800Y-45899860D01*
X25485770Y-46248615D01*
X25403940Y-46660000D01*
X24996060Y-46660000D01*
X24914230Y-46248615D01*
X24681200Y-45899860D01*
X24332445Y-45666830D01*
X23921060Y-45585000D01*
X23878940Y-45585000D01*
X23467555Y-45666830D01*
X23118800Y-45899860D01*
X22885770Y-46248615D01*
X22803940Y-46660000D01*
X21255000Y-46660000D01*
X21255000Y-46635000D01*
X21275000Y-46635000D01*
X21275000Y-45641538D01*
X21325000Y-45641538D01*
X21325000Y-46635000D01*
X22318443Y-46635000D01*
X22357567Y-46467186D01*
X22350854Y-46433422D01*
X22184155Y-46048525D01*
X21882851Y-45756719D01*
X21492814Y-45602430D01*
X21325000Y-45641538D01*
X21275000Y-45641538D01*
X21107186Y-45602430D01*
X20717149Y-45756719D01*
X20415845Y-46048525D01*
X20275000Y-46373727D01*
X20275000Y-44406273D01*
X20415845Y-44731475D01*
X20717149Y-45023281D01*
X21107186Y-45177570D01*
X21275000Y-45138462D01*
X21275000Y-44145000D01*
X21325000Y-44145000D01*
X21325000Y-45138462D01*
X21492814Y-45177570D01*
X21882851Y-45023281D01*
X22184155Y-44731475D01*
X22350854Y-44346578D01*
X22357567Y-44312814D01*
X22318443Y-44145000D01*
X21325000Y-44145000D01*
X21275000Y-44145000D01*
X21255000Y-44145000D01*
X21255000Y-44120000D01*
X22803940Y-44120000D01*
X22885770Y-44531385D01*
X23118800Y-44880140D01*
X23467555Y-45113170D01*
X23878940Y-45195000D01*
X23921060Y-45195000D01*
X24332445Y-45113170D01*
X24681200Y-44880140D01*
X24914230Y-44531385D01*
X24996060Y-44120000D01*
X25403940Y-44120000D01*
X25485770Y-44531385D01*
X25718800Y-44880140D01*
X26067555Y-45113170D01*
X26478940Y-45195000D01*
X26521060Y-45195000D01*
X26932445Y-45113170D01*
X27281200Y-44880140D01*
X27514230Y-44531385D01*
X27596060Y-44120000D01*
X27514230Y-43708615D01*
X27281200Y-43359860D01*
X26932445Y-43126830D01*
X26521060Y-43045000D01*
X26478940Y-43045000D01*
X26067555Y-43126830D01*
X25718800Y-43359860D01*
X25485770Y-43708615D01*
X25403940Y-44120000D01*
X24996060Y-44120000D01*
X24914230Y-43708615D01*
X24681200Y-43359860D01*
X24332445Y-43126830D01*
X23921060Y-43045000D01*
X23878940Y-43045000D01*
X23467555Y-43126830D01*
X23118800Y-43359860D01*
X22885770Y-43708615D01*
X22803940Y-44120000D01*
X21255000Y-44120000D01*
X21255000Y-44095000D01*
X21275000Y-44095000D01*
X21275000Y-43101538D01*
X21325000Y-43101538D01*
X21325000Y-44095000D01*
X22318443Y-44095000D01*
X22357567Y-43927186D01*
X22350854Y-43893422D01*
X22184155Y-43508525D01*
X21882851Y-43216719D01*
X21492814Y-43062430D01*
X21325000Y-43101538D01*
X21275000Y-43101538D01*
X21107186Y-43062430D01*
X20717149Y-43216719D01*
X20415845Y-43508525D01*
X20275000Y-43833727D01*
X20275000Y-41866273D01*
X20415845Y-42191475D01*
X20717149Y-42483281D01*
X21107186Y-42637570D01*
X21275000Y-42598462D01*
X21275000Y-41605000D01*
X21325000Y-41605000D01*
X21325000Y-42598462D01*
X21492814Y-42637570D01*
X21882851Y-42483281D01*
X22184155Y-42191475D01*
X22350854Y-41806578D01*
X22357567Y-41772814D01*
X22318443Y-41605000D01*
X21325000Y-41605000D01*
X21275000Y-41605000D01*
X21255000Y-41605000D01*
X21255000Y-41580000D01*
X22803940Y-41580000D01*
X22885770Y-41991385D01*
X23118800Y-42340140D01*
X23467555Y-42573170D01*
X23878940Y-42655000D01*
X23921060Y-42655000D01*
X24332445Y-42573170D01*
X24681200Y-42340140D01*
X24914230Y-41991385D01*
X24996060Y-41580000D01*
X25403940Y-41580000D01*
X25485770Y-41991385D01*
X25718800Y-42340140D01*
X26067555Y-42573170D01*
X26478940Y-42655000D01*
X26521060Y-42655000D01*
X26932445Y-42573170D01*
X27281200Y-42340140D01*
X27514230Y-41991385D01*
X27596060Y-41580000D01*
X27514230Y-41168615D01*
X27281200Y-40819860D01*
X26932445Y-40586830D01*
X26521060Y-40505000D01*
X26478940Y-40505000D01*
X26067555Y-40586830D01*
X25718800Y-40819860D01*
X25485770Y-41168615D01*
X25403940Y-41580000D01*
X24996060Y-41580000D01*
X24914230Y-41168615D01*
X24681200Y-40819860D01*
X24332445Y-40586830D01*
X23921060Y-40505000D01*
X23878940Y-40505000D01*
X23467555Y-40586830D01*
X23118800Y-40819860D01*
X22885770Y-41168615D01*
X22803940Y-41580000D01*
X21255000Y-41580000D01*
X21255000Y-41555000D01*
X21275000Y-41555000D01*
X21275000Y-40561538D01*
X21325000Y-40561538D01*
X21325000Y-41555000D01*
X22318443Y-41555000D01*
X22357567Y-41387186D01*
X22350854Y-41353422D01*
X22184155Y-40968525D01*
X21882851Y-40676719D01*
X21492814Y-40522430D01*
X21325000Y-40561538D01*
X21275000Y-40561538D01*
X21107186Y-40522430D01*
X20717149Y-40676719D01*
X20415845Y-40968525D01*
X20275000Y-41293727D01*
X20275000Y-39326273D01*
X20415845Y-39651475D01*
X20717149Y-39943281D01*
X21107186Y-40097570D01*
X21275000Y-40058462D01*
X21275000Y-39065000D01*
X21325000Y-39065000D01*
X21325000Y-40058462D01*
X21492814Y-40097570D01*
X21882851Y-39943281D01*
X22184155Y-39651475D01*
X22350854Y-39266578D01*
X22357567Y-39232814D01*
X22318443Y-39065000D01*
X21325000Y-39065000D01*
X21275000Y-39065000D01*
X21255000Y-39065000D01*
X21255000Y-39040000D01*
X22803940Y-39040000D01*
X22885770Y-39451385D01*
X23118800Y-39800140D01*
X23467555Y-40033170D01*
X23878940Y-40115000D01*
X23921060Y-40115000D01*
X24332445Y-40033170D01*
X24681200Y-39800140D01*
X24914230Y-39451385D01*
X24996060Y-39040000D01*
X25403940Y-39040000D01*
X25485770Y-39451385D01*
X25718800Y-39800140D01*
X26067555Y-40033170D01*
X26478940Y-40115000D01*
X26521060Y-40115000D01*
X26932445Y-40033170D01*
X27281200Y-39800140D01*
X27514230Y-39451385D01*
X27596060Y-39040000D01*
X27514230Y-38628615D01*
X27281200Y-38279860D01*
X26932445Y-38046830D01*
X26521060Y-37965000D01*
X26478940Y-37965000D01*
X26067555Y-38046830D01*
X25718800Y-38279860D01*
X25485770Y-38628615D01*
X25403940Y-39040000D01*
X24996060Y-39040000D01*
X24914230Y-38628615D01*
X24681200Y-38279860D01*
X24332445Y-38046830D01*
X23921060Y-37965000D01*
X23878940Y-37965000D01*
X23467555Y-38046830D01*
X23118800Y-38279860D01*
X22885770Y-38628615D01*
X22803940Y-39040000D01*
X21255000Y-39040000D01*
X21255000Y-39015000D01*
X21275000Y-39015000D01*
X21275000Y-38021538D01*
X21325000Y-38021538D01*
X21325000Y-39015000D01*
X22318443Y-39015000D01*
X22357567Y-38847186D01*
X22350854Y-38813422D01*
X22184155Y-38428525D01*
X21882851Y-38136719D01*
X21492814Y-37982430D01*
X21325000Y-38021538D01*
X21275000Y-38021538D01*
X21107186Y-37982430D01*
X20717149Y-38136719D01*
X20415845Y-38428525D01*
X20275000Y-38753727D01*
X20275000Y-36786273D01*
X20415845Y-37111475D01*
X20717149Y-37403281D01*
X21107186Y-37557570D01*
X21275000Y-37518462D01*
X21275000Y-36525000D01*
X21325000Y-36525000D01*
X21325000Y-37518462D01*
X21492814Y-37557570D01*
X21882851Y-37403281D01*
X22184155Y-37111475D01*
X22350854Y-36726578D01*
X22357567Y-36692814D01*
X22318443Y-36525000D01*
X21325000Y-36525000D01*
X21275000Y-36525000D01*
X21255000Y-36525000D01*
X21255000Y-36500000D01*
X22803940Y-36500000D01*
X22885770Y-36911385D01*
X23118800Y-37260140D01*
X23467555Y-37493170D01*
X23878940Y-37575000D01*
X23921060Y-37575000D01*
X24332445Y-37493170D01*
X24681200Y-37260140D01*
X24914230Y-36911385D01*
X24996060Y-36500000D01*
X25403940Y-36500000D01*
X25485770Y-36911385D01*
X25718800Y-37260140D01*
X26067555Y-37493170D01*
X26478940Y-37575000D01*
X26521060Y-37575000D01*
X26932445Y-37493170D01*
X27281200Y-37260140D01*
X27514230Y-36911385D01*
X27596060Y-36500000D01*
X27514230Y-36088615D01*
X27281200Y-35739860D01*
X26932445Y-35506830D01*
X26521060Y-35425000D01*
X26478940Y-35425000D01*
X26067555Y-35506830D01*
X25718800Y-35739860D01*
X25485770Y-36088615D01*
X25403940Y-36500000D01*
X24996060Y-36500000D01*
X24914230Y-36088615D01*
X24681200Y-35739860D01*
X24332445Y-35506830D01*
X23921060Y-35425000D01*
X23878940Y-35425000D01*
X23467555Y-35506830D01*
X23118800Y-35739860D01*
X22885770Y-36088615D01*
X22803940Y-36500000D01*
X21255000Y-36500000D01*
X21255000Y-36475000D01*
X21275000Y-36475000D01*
X21275000Y-35481538D01*
X21325000Y-35481538D01*
X21325000Y-36475000D01*
X22318443Y-36475000D01*
X22357567Y-36307186D01*
X22350854Y-36273422D01*
X22184155Y-35888525D01*
X21882851Y-35596719D01*
X21492814Y-35442430D01*
X21325000Y-35481538D01*
X21275000Y-35481538D01*
X21107186Y-35442430D01*
X20717149Y-35596719D01*
X20415845Y-35888525D01*
X20275000Y-36213727D01*
X20275000Y-34246273D01*
X20415845Y-34571475D01*
X20717149Y-34863281D01*
X21107186Y-35017570D01*
X21275000Y-34978462D01*
X21275000Y-33985000D01*
X21325000Y-33985000D01*
X21325000Y-34978462D01*
X21492814Y-35017570D01*
X21882851Y-34863281D01*
X22184155Y-34571475D01*
X22350854Y-34186578D01*
X22357567Y-34152814D01*
X22318443Y-33985000D01*
X21325000Y-33985000D01*
X21275000Y-33985000D01*
X21255000Y-33985000D01*
X21255000Y-33935000D01*
X21275000Y-33935000D01*
X21275000Y-32941538D01*
X21325000Y-32941538D01*
X21325000Y-33935000D01*
X22318443Y-33935000D01*
X22357567Y-33767186D01*
X22350854Y-33733422D01*
X22184155Y-33348525D01*
X21882851Y-33056719D01*
X21492814Y-32902430D01*
X21325000Y-32941538D01*
X21275000Y-32941538D01*
X21107186Y-32902430D01*
X20717149Y-33056719D01*
X20415845Y-33348525D01*
X20275000Y-33673727D01*
X20275000Y-31706273D01*
X20415845Y-32031475D01*
X20717149Y-32323281D01*
X21107186Y-32477570D01*
X21275000Y-32438462D01*
X21275000Y-31445000D01*
X21255000Y-31445000D01*
X21255000Y-31395000D01*
X21275000Y-31395000D01*
X21275000Y-30401538D01*
X21107186Y-30362430D01*
X20717149Y-30516719D01*
X20415845Y-30808525D01*
X20275000Y-31133727D01*
X20275000Y-29893198D01*
X20322548Y-29940746D01*
X20405245Y-29975000D01*
X21218750Y-29975000D01*
X21275000Y-29918750D01*
X21275000Y-28925000D01*
X21255000Y-28925000D01*
X21255000Y-28875000D01*
X21275000Y-28875000D01*
X21275000Y-27881250D01*
X21218750Y-27825000D01*
X20405245Y-27825000D01*
X20322548Y-27859254D01*
X20275000Y-27906802D01*
X20275000Y-26717241D01*
X20285770Y-26771385D01*
X20285770Y-26771385D01*
G37*
X20285770Y-26771385D02*
X20518800Y-27120140D01*
X20867555Y-27353170D01*
X21278940Y-27435000D01*
X21321060Y-27435000D01*
X21732445Y-27353170D01*
X22081200Y-27120140D01*
X22236075Y-26888353D01*
X22236075Y-27842115D01*
X22194755Y-27825000D01*
X21381250Y-27825000D01*
X21325000Y-27881250D01*
X21325000Y-28875000D01*
X21345000Y-28875000D01*
X21345000Y-28925000D01*
X21325000Y-28925000D01*
X21325000Y-29918750D01*
X21381250Y-29975000D01*
X22194755Y-29975000D01*
X22236075Y-29957885D01*
X22236075Y-30928405D01*
X22184155Y-30808525D01*
X21882851Y-30516719D01*
X21492814Y-30362430D01*
X21325000Y-30401538D01*
X21325000Y-31395000D01*
X21345000Y-31395000D01*
X21345000Y-31445000D01*
X21325000Y-31445000D01*
X21325000Y-32438462D01*
X21492814Y-32477570D01*
X21882851Y-32323281D01*
X22184155Y-32031475D01*
X22236075Y-31911595D01*
X22236075Y-32212500D01*
X22258911Y-32327305D01*
X22323943Y-32424632D01*
X22815524Y-32916213D01*
X22912851Y-32981245D01*
X23027656Y-33004081D01*
X23411805Y-33004081D01*
X23118800Y-33199860D01*
X22885770Y-33548615D01*
X22803940Y-33960000D01*
X22885770Y-34371385D01*
X23118800Y-34720140D01*
X23467555Y-34953170D01*
X23878940Y-35035000D01*
X23921060Y-35035000D01*
X24332445Y-34953170D01*
X24681200Y-34720140D01*
X24914230Y-34371385D01*
X24996060Y-33960000D01*
X24914230Y-33548615D01*
X24681200Y-33199860D01*
X24388195Y-33004081D01*
X26011805Y-33004081D01*
X25718800Y-33199860D01*
X25485770Y-33548615D01*
X25403940Y-33960000D01*
X25485770Y-34371385D01*
X25718800Y-34720140D01*
X26067555Y-34953170D01*
X26478940Y-35035000D01*
X26521060Y-35035000D01*
X26932445Y-34953170D01*
X27281200Y-34720140D01*
X27514230Y-34371385D01*
X27596060Y-33960000D01*
X27514230Y-33548615D01*
X27281200Y-33199860D01*
X26988195Y-33004081D01*
X28281084Y-33004081D01*
X28552209Y-33275206D01*
X28552209Y-33412187D01*
X28534567Y-33394514D01*
X28360048Y-33322047D01*
X28171081Y-33321883D01*
X27996436Y-33394045D01*
X27862699Y-33527548D01*
X27790232Y-33702067D01*
X27790068Y-33891034D01*
X27862230Y-34065679D01*
X27995733Y-34199416D01*
X28051787Y-34222692D01*
X27996436Y-34245562D01*
X27862699Y-34379065D01*
X27790232Y-34553584D01*
X27790068Y-34742551D01*
X27862230Y-34917196D01*
X27995733Y-35050933D01*
X28051787Y-35074209D01*
X27996436Y-35097079D01*
X27862699Y-35230582D01*
X27790232Y-35405101D01*
X27790068Y-35594068D01*
X27862230Y-35768713D01*
X27995733Y-35902450D01*
X28170252Y-35974917D01*
X28359219Y-35975081D01*
X28533864Y-35902919D01*
X28552209Y-35884606D01*
X28552209Y-35893299D01*
X28449758Y-35995571D01*
X28377291Y-36170090D01*
X28377127Y-36359057D01*
X28449289Y-36533702D01*
X28582792Y-36667439D01*
X28757311Y-36739906D01*
X28946278Y-36740070D01*
X29120923Y-36667908D01*
X29254660Y-36534405D01*
X29327127Y-36359886D01*
X29327291Y-36170919D01*
X29255129Y-35996274D01*
X29152209Y-35893174D01*
X29152209Y-34769069D01*
X31024918Y-34769069D01*
X31097080Y-34943714D01*
X31230583Y-35077451D01*
X31405102Y-35149918D01*
X31594069Y-35150082D01*
X31768714Y-35077920D01*
X31902451Y-34944417D01*
X31974918Y-34769898D01*
X31975082Y-34580931D01*
X31902920Y-34406286D01*
X31769417Y-34272549D01*
X31594898Y-34200082D01*
X31405931Y-34199918D01*
X31231286Y-34272080D01*
X31097549Y-34405583D01*
X31025082Y-34580102D01*
X31024918Y-34769069D01*
X29152209Y-34769069D01*
X29152209Y-33150942D01*
X29129373Y-33036137D01*
X29064341Y-32938810D01*
X28617480Y-32491949D01*
X28520153Y-32426917D01*
X28405348Y-32404081D01*
X26946048Y-32404081D01*
X27281200Y-32180140D01*
X27355719Y-32068614D01*
X27397080Y-32168714D01*
X27530583Y-32302451D01*
X27705102Y-32374918D01*
X27894069Y-32375082D01*
X28068714Y-32302920D01*
X28202451Y-32169417D01*
X28274918Y-31994898D01*
X28275082Y-31805931D01*
X28202920Y-31631286D01*
X28069417Y-31497549D01*
X27894898Y-31425082D01*
X27705931Y-31424918D01*
X27585155Y-31474822D01*
X27596060Y-31420000D01*
X27554786Y-31212501D01*
X27705102Y-31274918D01*
X27894069Y-31275082D01*
X28068714Y-31202920D01*
X28202451Y-31069417D01*
X28274918Y-30894898D01*
X28275082Y-30705931D01*
X28217554Y-30566704D01*
X28338501Y-30566704D01*
X29667103Y-31895306D01*
X29813093Y-31992854D01*
X29985301Y-32027108D01*
X30774556Y-32027108D01*
X30038411Y-32763253D01*
X29893650Y-32763127D01*
X29719005Y-32835289D01*
X29585268Y-32968792D01*
X29512801Y-33143311D01*
X29512637Y-33332278D01*
X29584799Y-33506923D01*
X29718302Y-33640660D01*
X29892821Y-33713127D01*
X30081788Y-33713291D01*
X30256433Y-33641129D01*
X30390170Y-33507626D01*
X30462637Y-33333107D01*
X30462763Y-33187429D01*
X31178751Y-32471441D01*
X32958171Y-32471441D01*
X33944994Y-33458264D01*
X33872549Y-33530583D01*
X33800082Y-33705102D01*
X33800049Y-33743224D01*
X33756358Y-33725082D01*
X33567391Y-33724918D01*
X33392746Y-33797080D01*
X33259009Y-33930583D01*
X33186542Y-34105102D01*
X33186378Y-34294069D01*
X33258540Y-34468714D01*
X33392043Y-34602451D01*
X33566562Y-34674918D01*
X33567389Y-34674919D01*
X33392746Y-34747080D01*
X33259009Y-34880583D01*
X33186542Y-35055102D01*
X33186378Y-35244069D01*
X33258540Y-35418714D01*
X33389708Y-35550112D01*
X33259009Y-35680583D01*
X33186542Y-35855102D01*
X33186378Y-36044069D01*
X33258540Y-36218714D01*
X33392043Y-36352451D01*
X33566562Y-36424918D01*
X33718662Y-36425050D01*
X33796654Y-36477163D01*
X33911459Y-36499999D01*
X35000466Y-36499999D01*
X35113330Y-36477549D01*
X34490879Y-37100000D01*
X32578354Y-37100000D01*
X32659075Y-37019420D01*
X32731542Y-36844901D01*
X32731706Y-36655934D01*
X32659544Y-36481289D01*
X32526041Y-36347552D01*
X32351522Y-36275085D01*
X32162555Y-36274921D01*
X31987910Y-36347083D01*
X31854173Y-36480586D01*
X31781706Y-36655105D01*
X31781542Y-36844072D01*
X31853704Y-37018717D01*
X31934845Y-37100000D01*
X31749264Y-37100000D01*
X31026371Y-36377107D01*
X30929044Y-36312075D01*
X30814239Y-36289239D01*
X30474552Y-36289239D01*
X30474590Y-36245171D01*
X30402428Y-36070526D01*
X30268925Y-35936789D01*
X30094406Y-35864322D01*
X29905439Y-35864158D01*
X29730794Y-35936320D01*
X29597057Y-36069823D01*
X29524590Y-36244342D01*
X29524426Y-36433309D01*
X29596588Y-36607954D01*
X29730091Y-36741691D01*
X29904610Y-36814158D01*
X30056710Y-36814290D01*
X30134702Y-36866403D01*
X30249507Y-36889239D01*
X30689975Y-36889239D01*
X31412868Y-37612132D01*
X31510195Y-37677164D01*
X31625000Y-37700000D01*
X34615143Y-37700000D01*
X34729948Y-37677164D01*
X34827275Y-37612132D01*
X36144083Y-36295324D01*
X36288844Y-36295450D01*
X36463489Y-36223288D01*
X36491740Y-36195086D01*
X36491740Y-39194199D01*
X36514576Y-39309004D01*
X36579608Y-39406331D01*
X37139186Y-39965909D01*
X37139186Y-42859627D01*
X36596835Y-43401978D01*
X35710608Y-43401978D01*
X35595803Y-43424814D01*
X35498476Y-43489846D01*
X35020661Y-43967661D01*
X34955629Y-44064988D01*
X34932793Y-44179793D01*
X34932793Y-44837222D01*
X34955629Y-44952027D01*
X35020661Y-45049354D01*
X35757625Y-45786318D01*
X35854952Y-45851350D01*
X35969757Y-45874186D01*
X38488411Y-45874186D01*
X38121863Y-46240735D01*
X35990975Y-46240735D01*
X34288109Y-44537869D01*
X34190782Y-44472837D01*
X34075977Y-44450001D01*
X32871261Y-44450001D01*
X34382261Y-42939001D01*
X36042001Y-42939001D01*
X36156806Y-42916165D01*
X36254133Y-42851133D01*
X36501133Y-42604133D01*
X36566165Y-42506806D01*
X36589001Y-42392001D01*
X36589001Y-41935999D01*
X36566165Y-41821194D01*
X36501133Y-41723867D01*
X36215700Y-41438434D01*
X36118373Y-41373402D01*
X36003568Y-41350566D01*
X32968510Y-41350566D01*
X31632443Y-40014499D01*
X33931226Y-40014499D01*
X34003388Y-40189144D01*
X34136891Y-40322881D01*
X34178170Y-40340021D01*
X34137549Y-40380571D01*
X34065082Y-40555090D01*
X34064918Y-40744057D01*
X34137080Y-40918702D01*
X34270583Y-41052439D01*
X34445102Y-41124906D01*
X34634069Y-41125070D01*
X34808714Y-41052908D01*
X34942451Y-40919405D01*
X35014918Y-40744886D01*
X35015082Y-40555919D01*
X34947000Y-40391148D01*
X34957114Y-40395348D01*
X35146081Y-40395512D01*
X35320726Y-40323350D01*
X35454463Y-40189847D01*
X35526930Y-40015328D01*
X35527094Y-39826361D01*
X35454932Y-39651716D01*
X35321429Y-39517979D01*
X35146910Y-39445512D01*
X34957943Y-39445348D01*
X34783298Y-39517510D01*
X34729183Y-39571531D01*
X34675725Y-39517979D01*
X34501206Y-39445512D01*
X34312239Y-39445348D01*
X34137594Y-39517510D01*
X34003857Y-39651013D01*
X33931390Y-39825532D01*
X33931226Y-40014499D01*
X31632443Y-40014499D01*
X30868616Y-39250672D01*
X30868742Y-39105911D01*
X30796580Y-38931266D01*
X30663077Y-38797529D01*
X30548615Y-38750000D01*
X34607188Y-38750000D01*
X36096794Y-40239606D01*
X36096668Y-40384367D01*
X36168830Y-40559012D01*
X36302333Y-40692749D01*
X36476852Y-40765216D01*
X36665819Y-40765380D01*
X36840464Y-40693218D01*
X36974201Y-40559715D01*
X37046668Y-40385196D01*
X37046832Y-40196229D01*
X36974670Y-40021584D01*
X36841167Y-39887847D01*
X36666648Y-39815380D01*
X36520970Y-39815254D01*
X34943584Y-38237868D01*
X34846257Y-38172836D01*
X34731452Y-38150000D01*
X30000000Y-38150000D01*
X29885195Y-38172836D01*
X29787868Y-38237868D01*
X29256278Y-38769458D01*
X29191246Y-38866785D01*
X29168410Y-38981590D01*
X29168410Y-43800046D01*
X29191246Y-43914851D01*
X29256278Y-44012178D01*
X31158472Y-45914372D01*
X30329905Y-45914372D01*
X30227633Y-45811921D01*
X30053114Y-45739454D01*
X29864147Y-45739290D01*
X29689502Y-45811452D01*
X29555765Y-45944955D01*
X29483298Y-46119474D01*
X29483134Y-46308441D01*
X29555296Y-46483086D01*
X29688799Y-46616823D01*
X29863318Y-46689290D01*
X30052285Y-46689454D01*
X30226930Y-46617292D01*
X30330030Y-46514372D01*
X31334193Y-46514372D01*
X31734823Y-46915002D01*
X31421689Y-46915002D01*
X31319417Y-46812551D01*
X31144898Y-46740084D01*
X30955931Y-46739920D01*
X30781286Y-46812082D01*
X30647549Y-46945585D01*
X30575082Y-47120104D01*
X30574918Y-47309071D01*
X30647080Y-47483716D01*
X30780583Y-47617453D01*
X30955102Y-47689920D01*
X31144069Y-47690084D01*
X31318714Y-47617922D01*
X31421814Y-47515002D01*
X31910544Y-47515002D01*
X32257905Y-47862363D01*
X32105924Y-47862231D01*
X31931279Y-47934393D01*
X31797542Y-48067896D01*
X31725075Y-48242415D01*
X31724911Y-48431382D01*
X31797073Y-48606027D01*
X31930576Y-48739764D01*
X32105095Y-48812231D01*
X32294062Y-48812395D01*
X32468707Y-48740233D01*
X32602444Y-48606730D01*
X32674911Y-48432211D01*
X32675044Y-48279502D01*
X32771968Y-48376426D01*
X32869295Y-48441458D01*
X32916141Y-48450776D01*
X34113917Y-49648552D01*
X34211244Y-49713584D01*
X34326049Y-49736420D01*
X40547955Y-49736420D01*
X40758387Y-49946852D01*
X40855714Y-50011884D01*
X40947890Y-50030219D01*
X41054655Y-50137171D01*
X41229174Y-50209638D01*
X41418141Y-50209802D01*
X41592786Y-50137640D01*
X41726523Y-50004137D01*
X41798990Y-49829618D01*
X41799154Y-49640651D01*
X41726992Y-49466006D01*
X41653704Y-49392590D01*
X41720274Y-49326136D01*
X41792741Y-49151617D01*
X41792905Y-48962650D01*
X41720743Y-48788005D01*
X41664646Y-48731810D01*
X41738751Y-48657834D01*
X41787997Y-48539237D01*
X41818596Y-48559682D01*
X41933401Y-48582518D01*
X46519757Y-48582518D01*
X46918150Y-48980911D01*
X46843997Y-48950120D01*
X46655030Y-48949956D01*
X46480385Y-49022118D01*
X46426850Y-49075560D01*
X46358200Y-49006790D01*
X46183681Y-48934323D01*
X45994714Y-48934159D01*
X45820069Y-49006321D01*
X45686332Y-49139824D01*
X45613865Y-49314343D01*
X45613701Y-49503310D01*
X45685863Y-49677955D01*
X45819366Y-49811692D01*
X45993885Y-49884159D01*
X46182852Y-49884323D01*
X46357497Y-49812161D01*
X46411032Y-49758719D01*
X46479682Y-49827489D01*
X46654201Y-49899956D01*
X46843168Y-49900120D01*
X47017813Y-49827958D01*
X47151550Y-49694455D01*
X47224017Y-49519936D01*
X47224181Y-49330969D01*
X47193180Y-49255941D01*
X47338950Y-49401711D01*
X47436277Y-49466743D01*
X47551082Y-49489579D01*
X57324499Y-49489579D01*
X57439304Y-49466743D01*
X57536631Y-49401711D01*
X58601850Y-48336492D01*
X62523327Y-48336492D01*
X62520592Y-48350000D01*
X62520592Y-50050000D01*
X62536281Y-50133380D01*
X62585559Y-50209960D01*
X62607571Y-50225000D01*
X62075284Y-50225000D01*
X62075316Y-50188578D01*
X61798062Y-49517571D01*
X61285129Y-49003742D01*
X60614608Y-48725317D01*
X59888578Y-48724684D01*
X59217571Y-49001938D01*
X58703742Y-49514871D01*
X58425317Y-50185392D01*
X58425282Y-50225000D01*
X45066790Y-50225000D01*
X45081157Y-50210658D01*
X45153624Y-50036139D01*
X45153788Y-49847172D01*
X45081626Y-49672527D01*
X44948123Y-49538790D01*
X44773604Y-49466323D01*
X44584637Y-49466159D01*
X44409992Y-49538321D01*
X44276255Y-49671824D01*
X44203788Y-49846343D01*
X44203624Y-50035310D01*
X44275786Y-50209955D01*
X44290805Y-50225000D01*
X31575241Y-50225000D01*
X31575316Y-50138578D01*
X31298062Y-49467571D01*
X30785129Y-48953742D01*
X30114608Y-48675317D01*
X29388578Y-48674684D01*
X28717571Y-48951938D01*
X28203742Y-49464871D01*
X27925317Y-50135392D01*
X27925239Y-50225000D01*
X27493551Y-50225000D01*
X27509960Y-50214441D01*
X27561334Y-50139253D01*
X27579408Y-50050000D01*
X27579408Y-48350000D01*
X27563719Y-48266620D01*
X27514441Y-48190040D01*
X27439253Y-48138666D01*
X27350000Y-48120592D01*
X25650000Y-48120592D01*
X25566620Y-48136281D01*
X25490040Y-48185559D01*
X25438666Y-48260747D01*
X25420592Y-48350000D01*
X25420592Y-50050000D01*
X25436281Y-50133380D01*
X25485559Y-50209960D01*
X25507571Y-50225000D01*
X24893551Y-50225000D01*
X24909960Y-50214441D01*
X24961334Y-50139253D01*
X24979408Y-50050000D01*
X24979408Y-48350000D01*
X24963719Y-48266620D01*
X24914441Y-48190040D01*
X24839253Y-48138666D01*
X24750000Y-48120592D01*
X23050000Y-48120592D01*
X22966620Y-48136281D01*
X22890040Y-48185559D01*
X22838666Y-48260747D01*
X22820592Y-48350000D01*
X22820592Y-50050000D01*
X22836281Y-50133380D01*
X22885559Y-50209960D01*
X22907571Y-50225000D01*
X22293198Y-50225000D01*
X22340746Y-50177452D01*
X22375000Y-50094756D01*
X22375000Y-49281250D01*
X22318750Y-49225000D01*
X21325000Y-49225000D01*
X21325000Y-49245000D01*
X21275000Y-49245000D01*
X21275000Y-49225000D01*
X21255000Y-49225000D01*
X21255000Y-49175000D01*
X21275000Y-49175000D01*
X21275000Y-48181250D01*
X21325000Y-48181250D01*
X21325000Y-49175000D01*
X22318750Y-49175000D01*
X22375000Y-49118750D01*
X22375000Y-48305244D01*
X22340746Y-48222548D01*
X22277452Y-48159254D01*
X22194755Y-48125000D01*
X21381250Y-48125000D01*
X21325000Y-48181250D01*
X21275000Y-48181250D01*
X21218750Y-48125000D01*
X20405245Y-48125000D01*
X20322548Y-48159254D01*
X20275000Y-48206802D01*
X20275000Y-46946273D01*
X20415845Y-47271475D01*
X20717149Y-47563281D01*
X21107186Y-47717570D01*
X21275000Y-47678462D01*
X21275000Y-46685000D01*
X21325000Y-46685000D01*
X21325000Y-47678462D01*
X21492814Y-47717570D01*
X21882851Y-47563281D01*
X22184155Y-47271475D01*
X22350854Y-46886578D01*
X22357567Y-46852814D01*
X22318443Y-46685000D01*
X21325000Y-46685000D01*
X21275000Y-46685000D01*
X21255000Y-46685000D01*
X21255000Y-46660000D01*
X22803940Y-46660000D01*
X22885770Y-47071385D01*
X23118800Y-47420140D01*
X23467555Y-47653170D01*
X23878940Y-47735000D01*
X23921060Y-47735000D01*
X24332445Y-47653170D01*
X24681200Y-47420140D01*
X24914230Y-47071385D01*
X24996060Y-46660000D01*
X25403940Y-46660000D01*
X25485770Y-47071385D01*
X25718800Y-47420140D01*
X26067555Y-47653170D01*
X26478940Y-47735000D01*
X26521060Y-47735000D01*
X26932445Y-47653170D01*
X27281200Y-47420140D01*
X27514230Y-47071385D01*
X27596060Y-46660000D01*
X27514230Y-46248615D01*
X27281200Y-45899860D01*
X26932445Y-45666830D01*
X26521060Y-45585000D01*
X26478940Y-45585000D01*
X26067555Y-45666830D01*
X25718800Y-45899860D01*
X25485770Y-46248615D01*
X25403940Y-46660000D01*
X24996060Y-46660000D01*
X24914230Y-46248615D01*
X24681200Y-45899860D01*
X24332445Y-45666830D01*
X23921060Y-45585000D01*
X23878940Y-45585000D01*
X23467555Y-45666830D01*
X23118800Y-45899860D01*
X22885770Y-46248615D01*
X22803940Y-46660000D01*
X21255000Y-46660000D01*
X21255000Y-46635000D01*
X21275000Y-46635000D01*
X21275000Y-45641538D01*
X21325000Y-45641538D01*
X21325000Y-46635000D01*
X22318443Y-46635000D01*
X22357567Y-46467186D01*
X22350854Y-46433422D01*
X22184155Y-46048525D01*
X21882851Y-45756719D01*
X21492814Y-45602430D01*
X21325000Y-45641538D01*
X21275000Y-45641538D01*
X21107186Y-45602430D01*
X20717149Y-45756719D01*
X20415845Y-46048525D01*
X20275000Y-46373727D01*
X20275000Y-44406273D01*
X20415845Y-44731475D01*
X20717149Y-45023281D01*
X21107186Y-45177570D01*
X21275000Y-45138462D01*
X21275000Y-44145000D01*
X21325000Y-44145000D01*
X21325000Y-45138462D01*
X21492814Y-45177570D01*
X21882851Y-45023281D01*
X22184155Y-44731475D01*
X22350854Y-44346578D01*
X22357567Y-44312814D01*
X22318443Y-44145000D01*
X21325000Y-44145000D01*
X21275000Y-44145000D01*
X21255000Y-44145000D01*
X21255000Y-44120000D01*
X22803940Y-44120000D01*
X22885770Y-44531385D01*
X23118800Y-44880140D01*
X23467555Y-45113170D01*
X23878940Y-45195000D01*
X23921060Y-45195000D01*
X24332445Y-45113170D01*
X24681200Y-44880140D01*
X24914230Y-44531385D01*
X24996060Y-44120000D01*
X25403940Y-44120000D01*
X25485770Y-44531385D01*
X25718800Y-44880140D01*
X26067555Y-45113170D01*
X26478940Y-45195000D01*
X26521060Y-45195000D01*
X26932445Y-45113170D01*
X27281200Y-44880140D01*
X27514230Y-44531385D01*
X27596060Y-44120000D01*
X27514230Y-43708615D01*
X27281200Y-43359860D01*
X26932445Y-43126830D01*
X26521060Y-43045000D01*
X26478940Y-43045000D01*
X26067555Y-43126830D01*
X25718800Y-43359860D01*
X25485770Y-43708615D01*
X25403940Y-44120000D01*
X24996060Y-44120000D01*
X24914230Y-43708615D01*
X24681200Y-43359860D01*
X24332445Y-43126830D01*
X23921060Y-43045000D01*
X23878940Y-43045000D01*
X23467555Y-43126830D01*
X23118800Y-43359860D01*
X22885770Y-43708615D01*
X22803940Y-44120000D01*
X21255000Y-44120000D01*
X21255000Y-44095000D01*
X21275000Y-44095000D01*
X21275000Y-43101538D01*
X21325000Y-43101538D01*
X21325000Y-44095000D01*
X22318443Y-44095000D01*
X22357567Y-43927186D01*
X22350854Y-43893422D01*
X22184155Y-43508525D01*
X21882851Y-43216719D01*
X21492814Y-43062430D01*
X21325000Y-43101538D01*
X21275000Y-43101538D01*
X21107186Y-43062430D01*
X20717149Y-43216719D01*
X20415845Y-43508525D01*
X20275000Y-43833727D01*
X20275000Y-41866273D01*
X20415845Y-42191475D01*
X20717149Y-42483281D01*
X21107186Y-42637570D01*
X21275000Y-42598462D01*
X21275000Y-41605000D01*
X21325000Y-41605000D01*
X21325000Y-42598462D01*
X21492814Y-42637570D01*
X21882851Y-42483281D01*
X22184155Y-42191475D01*
X22350854Y-41806578D01*
X22357567Y-41772814D01*
X22318443Y-41605000D01*
X21325000Y-41605000D01*
X21275000Y-41605000D01*
X21255000Y-41605000D01*
X21255000Y-41580000D01*
X22803940Y-41580000D01*
X22885770Y-41991385D01*
X23118800Y-42340140D01*
X23467555Y-42573170D01*
X23878940Y-42655000D01*
X23921060Y-42655000D01*
X24332445Y-42573170D01*
X24681200Y-42340140D01*
X24914230Y-41991385D01*
X24996060Y-41580000D01*
X25403940Y-41580000D01*
X25485770Y-41991385D01*
X25718800Y-42340140D01*
X26067555Y-42573170D01*
X26478940Y-42655000D01*
X26521060Y-42655000D01*
X26932445Y-42573170D01*
X27281200Y-42340140D01*
X27514230Y-41991385D01*
X27596060Y-41580000D01*
X27514230Y-41168615D01*
X27281200Y-40819860D01*
X26932445Y-40586830D01*
X26521060Y-40505000D01*
X26478940Y-40505000D01*
X26067555Y-40586830D01*
X25718800Y-40819860D01*
X25485770Y-41168615D01*
X25403940Y-41580000D01*
X24996060Y-41580000D01*
X24914230Y-41168615D01*
X24681200Y-40819860D01*
X24332445Y-40586830D01*
X23921060Y-40505000D01*
X23878940Y-40505000D01*
X23467555Y-40586830D01*
X23118800Y-40819860D01*
X22885770Y-41168615D01*
X22803940Y-41580000D01*
X21255000Y-41580000D01*
X21255000Y-41555000D01*
X21275000Y-41555000D01*
X21275000Y-40561538D01*
X21325000Y-40561538D01*
X21325000Y-41555000D01*
X22318443Y-41555000D01*
X22357567Y-41387186D01*
X22350854Y-41353422D01*
X22184155Y-40968525D01*
X21882851Y-40676719D01*
X21492814Y-40522430D01*
X21325000Y-40561538D01*
X21275000Y-40561538D01*
X21107186Y-40522430D01*
X20717149Y-40676719D01*
X20415845Y-40968525D01*
X20275000Y-41293727D01*
X20275000Y-39326273D01*
X20415845Y-39651475D01*
X20717149Y-39943281D01*
X21107186Y-40097570D01*
X21275000Y-40058462D01*
X21275000Y-39065000D01*
X21325000Y-39065000D01*
X21325000Y-40058462D01*
X21492814Y-40097570D01*
X21882851Y-39943281D01*
X22184155Y-39651475D01*
X22350854Y-39266578D01*
X22357567Y-39232814D01*
X22318443Y-39065000D01*
X21325000Y-39065000D01*
X21275000Y-39065000D01*
X21255000Y-39065000D01*
X21255000Y-39040000D01*
X22803940Y-39040000D01*
X22885770Y-39451385D01*
X23118800Y-39800140D01*
X23467555Y-40033170D01*
X23878940Y-40115000D01*
X23921060Y-40115000D01*
X24332445Y-40033170D01*
X24681200Y-39800140D01*
X24914230Y-39451385D01*
X24996060Y-39040000D01*
X25403940Y-39040000D01*
X25485770Y-39451385D01*
X25718800Y-39800140D01*
X26067555Y-40033170D01*
X26478940Y-40115000D01*
X26521060Y-40115000D01*
X26932445Y-40033170D01*
X27281200Y-39800140D01*
X27514230Y-39451385D01*
X27596060Y-39040000D01*
X27514230Y-38628615D01*
X27281200Y-38279860D01*
X26932445Y-38046830D01*
X26521060Y-37965000D01*
X26478940Y-37965000D01*
X26067555Y-38046830D01*
X25718800Y-38279860D01*
X25485770Y-38628615D01*
X25403940Y-39040000D01*
X24996060Y-39040000D01*
X24914230Y-38628615D01*
X24681200Y-38279860D01*
X24332445Y-38046830D01*
X23921060Y-37965000D01*
X23878940Y-37965000D01*
X23467555Y-38046830D01*
X23118800Y-38279860D01*
X22885770Y-38628615D01*
X22803940Y-39040000D01*
X21255000Y-39040000D01*
X21255000Y-39015000D01*
X21275000Y-39015000D01*
X21275000Y-38021538D01*
X21325000Y-38021538D01*
X21325000Y-39015000D01*
X22318443Y-39015000D01*
X22357567Y-38847186D01*
X22350854Y-38813422D01*
X22184155Y-38428525D01*
X21882851Y-38136719D01*
X21492814Y-37982430D01*
X21325000Y-38021538D01*
X21275000Y-38021538D01*
X21107186Y-37982430D01*
X20717149Y-38136719D01*
X20415845Y-38428525D01*
X20275000Y-38753727D01*
X20275000Y-36786273D01*
X20415845Y-37111475D01*
X20717149Y-37403281D01*
X21107186Y-37557570D01*
X21275000Y-37518462D01*
X21275000Y-36525000D01*
X21325000Y-36525000D01*
X21325000Y-37518462D01*
X21492814Y-37557570D01*
X21882851Y-37403281D01*
X22184155Y-37111475D01*
X22350854Y-36726578D01*
X22357567Y-36692814D01*
X22318443Y-36525000D01*
X21325000Y-36525000D01*
X21275000Y-36525000D01*
X21255000Y-36525000D01*
X21255000Y-36500000D01*
X22803940Y-36500000D01*
X22885770Y-36911385D01*
X23118800Y-37260140D01*
X23467555Y-37493170D01*
X23878940Y-37575000D01*
X23921060Y-37575000D01*
X24332445Y-37493170D01*
X24681200Y-37260140D01*
X24914230Y-36911385D01*
X24996060Y-36500000D01*
X25403940Y-36500000D01*
X25485770Y-36911385D01*
X25718800Y-37260140D01*
X26067555Y-37493170D01*
X26478940Y-37575000D01*
X26521060Y-37575000D01*
X26932445Y-37493170D01*
X27281200Y-37260140D01*
X27514230Y-36911385D01*
X27596060Y-36500000D01*
X27514230Y-36088615D01*
X27281200Y-35739860D01*
X26932445Y-35506830D01*
X26521060Y-35425000D01*
X26478940Y-35425000D01*
X26067555Y-35506830D01*
X25718800Y-35739860D01*
X25485770Y-36088615D01*
X25403940Y-36500000D01*
X24996060Y-36500000D01*
X24914230Y-36088615D01*
X24681200Y-35739860D01*
X24332445Y-35506830D01*
X23921060Y-35425000D01*
X23878940Y-35425000D01*
X23467555Y-35506830D01*
X23118800Y-35739860D01*
X22885770Y-36088615D01*
X22803940Y-36500000D01*
X21255000Y-36500000D01*
X21255000Y-36475000D01*
X21275000Y-36475000D01*
X21275000Y-35481538D01*
X21325000Y-35481538D01*
X21325000Y-36475000D01*
X22318443Y-36475000D01*
X22357567Y-36307186D01*
X22350854Y-36273422D01*
X22184155Y-35888525D01*
X21882851Y-35596719D01*
X21492814Y-35442430D01*
X21325000Y-35481538D01*
X21275000Y-35481538D01*
X21107186Y-35442430D01*
X20717149Y-35596719D01*
X20415845Y-35888525D01*
X20275000Y-36213727D01*
X20275000Y-34246273D01*
X20415845Y-34571475D01*
X20717149Y-34863281D01*
X21107186Y-35017570D01*
X21275000Y-34978462D01*
X21275000Y-33985000D01*
X21325000Y-33985000D01*
X21325000Y-34978462D01*
X21492814Y-35017570D01*
X21882851Y-34863281D01*
X22184155Y-34571475D01*
X22350854Y-34186578D01*
X22357567Y-34152814D01*
X22318443Y-33985000D01*
X21325000Y-33985000D01*
X21275000Y-33985000D01*
X21255000Y-33985000D01*
X21255000Y-33935000D01*
X21275000Y-33935000D01*
X21275000Y-32941538D01*
X21325000Y-32941538D01*
X21325000Y-33935000D01*
X22318443Y-33935000D01*
X22357567Y-33767186D01*
X22350854Y-33733422D01*
X22184155Y-33348525D01*
X21882851Y-33056719D01*
X21492814Y-32902430D01*
X21325000Y-32941538D01*
X21275000Y-32941538D01*
X21107186Y-32902430D01*
X20717149Y-33056719D01*
X20415845Y-33348525D01*
X20275000Y-33673727D01*
X20275000Y-31706273D01*
X20415845Y-32031475D01*
X20717149Y-32323281D01*
X21107186Y-32477570D01*
X21275000Y-32438462D01*
X21275000Y-31445000D01*
X21255000Y-31445000D01*
X21255000Y-31395000D01*
X21275000Y-31395000D01*
X21275000Y-30401538D01*
X21107186Y-30362430D01*
X20717149Y-30516719D01*
X20415845Y-30808525D01*
X20275000Y-31133727D01*
X20275000Y-29893198D01*
X20322548Y-29940746D01*
X20405245Y-29975000D01*
X21218750Y-29975000D01*
X21275000Y-29918750D01*
X21275000Y-28925000D01*
X21255000Y-28925000D01*
X21255000Y-28875000D01*
X21275000Y-28875000D01*
X21275000Y-27881250D01*
X21218750Y-27825000D01*
X20405245Y-27825000D01*
X20322548Y-27859254D01*
X20275000Y-27906802D01*
X20275000Y-26717241D01*
X20285770Y-26771385D01*
G36*
X56276609Y-47869788D02*
X56276445Y-48058755D01*
X56348607Y-48233400D01*
X56404666Y-48289557D01*
X54435612Y-48289557D01*
X54474918Y-48194898D01*
X54475082Y-48005931D01*
X54402920Y-47831286D01*
X54376217Y-47804536D01*
X56165060Y-47804536D01*
X56279865Y-47781700D01*
X56325982Y-47750886D01*
X56276609Y-47869788D01*
X56276609Y-47869788D01*
G37*
X56276609Y-47869788D02*
X56276445Y-48058755D01*
X56348607Y-48233400D01*
X56404666Y-48289557D01*
X54435612Y-48289557D01*
X54474918Y-48194898D01*
X54475082Y-48005931D01*
X54402920Y-47831286D01*
X54376217Y-47804536D01*
X56165060Y-47804536D01*
X56279865Y-47781700D01*
X56325982Y-47750886D01*
X56276609Y-47869788D01*
G36*
X48584811Y-32848876D02*
X48607647Y-32963681D01*
X48672679Y-33061008D01*
X49480436Y-33868765D01*
X49480436Y-34203448D01*
X49358956Y-34153005D01*
X49169989Y-34152841D01*
X48995344Y-34225003D01*
X48861607Y-34358506D01*
X48789140Y-34533025D01*
X48788976Y-34721992D01*
X48861138Y-34896637D01*
X48994641Y-35030374D01*
X49169160Y-35102841D01*
X49358127Y-35103005D01*
X49480436Y-35052468D01*
X49480436Y-35487118D01*
X49371532Y-35441897D01*
X49182565Y-35441733D01*
X49007920Y-35513895D01*
X48874183Y-35647398D01*
X48801716Y-35821917D01*
X48801552Y-36010884D01*
X48873714Y-36185529D01*
X49007217Y-36319266D01*
X49119583Y-36365925D01*
X49006322Y-36412723D01*
X48872585Y-36546226D01*
X48800118Y-36720745D01*
X48799954Y-36909712D01*
X48872116Y-37084357D01*
X48961102Y-37173499D01*
X48961102Y-41848605D01*
X48695144Y-42114563D01*
X48550383Y-42114437D01*
X48375738Y-42186599D01*
X48263320Y-42298820D01*
X48255230Y-42279241D01*
X48121727Y-42145504D01*
X47947208Y-42073037D01*
X47758241Y-42072873D01*
X47583596Y-42145035D01*
X47449859Y-42278538D01*
X47377392Y-42453057D01*
X47377228Y-42642024D01*
X47449390Y-42816669D01*
X47552310Y-42919769D01*
X47552310Y-44961381D01*
X47575146Y-45076186D01*
X47640178Y-45173513D01*
X50183333Y-47716668D01*
X50280660Y-47781700D01*
X50395465Y-47804536D01*
X53623642Y-47804536D01*
X53597549Y-47830583D01*
X53525082Y-48005102D01*
X53524918Y-48194069D01*
X53564373Y-48289557D01*
X47923882Y-48289557D01*
X47104689Y-47470364D01*
X47007362Y-47405332D01*
X46892557Y-47382496D01*
X42306202Y-47382496D01*
X42118782Y-47195076D01*
X42206210Y-47107801D01*
X42278677Y-46933282D01*
X42278841Y-46744315D01*
X42228746Y-46623075D01*
X45349551Y-46623075D01*
X45464356Y-46600239D01*
X45561683Y-46535207D01*
X45748724Y-46348166D01*
X45725082Y-46405102D01*
X45724918Y-46594069D01*
X45797080Y-46768714D01*
X45930583Y-46902451D01*
X46105102Y-46974918D01*
X46294069Y-46975082D01*
X46468714Y-46902920D01*
X46602451Y-46769417D01*
X46674918Y-46594898D01*
X46675082Y-46405931D01*
X46602920Y-46231286D01*
X46469417Y-46097549D01*
X46294898Y-46025082D01*
X46105931Y-46024918D01*
X45931286Y-46097080D01*
X45903486Y-46124832D01*
X45917314Y-46055312D01*
X45917314Y-40527394D01*
X46799930Y-40527394D01*
X46872092Y-40702039D01*
X47005595Y-40835776D01*
X47167667Y-40903074D01*
X47167520Y-41071986D01*
X47239682Y-41246631D01*
X47373185Y-41380368D01*
X47547704Y-41452835D01*
X47736671Y-41452999D01*
X47911316Y-41380837D01*
X47925895Y-41366283D01*
X47925844Y-41425147D01*
X47998006Y-41599792D01*
X48131509Y-41733529D01*
X48306028Y-41805996D01*
X48494995Y-41806160D01*
X48669640Y-41733998D01*
X48803377Y-41600495D01*
X48875844Y-41425976D01*
X48876008Y-41237009D01*
X48803846Y-41062364D01*
X48670343Y-40928627D01*
X48495824Y-40856160D01*
X48306857Y-40855996D01*
X48132212Y-40928158D01*
X48117633Y-40942712D01*
X48117684Y-40883848D01*
X48045522Y-40709203D01*
X47912019Y-40575466D01*
X47749947Y-40508168D01*
X47750094Y-40339256D01*
X47677932Y-40164611D01*
X47544429Y-40030874D01*
X47407694Y-39974096D01*
X47682874Y-39974096D01*
X47755036Y-40148741D01*
X47888539Y-40282478D01*
X48063058Y-40354945D01*
X48252025Y-40355109D01*
X48426670Y-40282947D01*
X48560407Y-40149444D01*
X48632874Y-39974925D01*
X48633038Y-39785958D01*
X48560876Y-39611313D01*
X48427373Y-39477576D01*
X48252854Y-39405109D01*
X48063887Y-39404945D01*
X47889242Y-39477107D01*
X47755505Y-39610610D01*
X47683038Y-39785129D01*
X47682874Y-39974096D01*
X47407694Y-39974096D01*
X47369910Y-39958407D01*
X47180943Y-39958243D01*
X47006298Y-40030405D01*
X46872561Y-40163908D01*
X46800094Y-40338427D01*
X46799930Y-40527394D01*
X45917314Y-40527394D01*
X45917314Y-32975015D01*
X45994069Y-32975082D01*
X46168714Y-32902920D01*
X46302451Y-32769417D01*
X46358991Y-32633255D01*
X47350000Y-33624264D01*
X47350000Y-37278311D01*
X47247549Y-37380583D01*
X47175082Y-37555102D01*
X47174918Y-37744069D01*
X47247080Y-37918714D01*
X47353227Y-38025047D01*
X47272549Y-38105583D01*
X47200082Y-38280102D01*
X47199918Y-38469069D01*
X47272080Y-38643714D01*
X47405583Y-38777451D01*
X47580102Y-38849918D01*
X47769069Y-38850082D01*
X47943714Y-38777920D01*
X48077451Y-38644417D01*
X48149918Y-38469898D01*
X48150044Y-38324220D01*
X48350759Y-38123505D01*
X48415791Y-38026178D01*
X48438627Y-37911373D01*
X48438627Y-33528057D01*
X48415791Y-33413252D01*
X48350759Y-33315925D01*
X47946079Y-32911245D01*
X47998527Y-32911291D01*
X48173172Y-32839129D01*
X48306909Y-32705626D01*
X48379376Y-32531107D01*
X48379528Y-32356164D01*
X48440561Y-32356217D01*
X48584811Y-32296614D01*
X48584811Y-32848876D01*
X48584811Y-32848876D01*
G37*
X48584811Y-32848876D02*
X48607647Y-32963681D01*
X48672679Y-33061008D01*
X49480436Y-33868765D01*
X49480436Y-34203448D01*
X49358956Y-34153005D01*
X49169989Y-34152841D01*
X48995344Y-34225003D01*
X48861607Y-34358506D01*
X48789140Y-34533025D01*
X48788976Y-34721992D01*
X48861138Y-34896637D01*
X48994641Y-35030374D01*
X49169160Y-35102841D01*
X49358127Y-35103005D01*
X49480436Y-35052468D01*
X49480436Y-35487118D01*
X49371532Y-35441897D01*
X49182565Y-35441733D01*
X49007920Y-35513895D01*
X48874183Y-35647398D01*
X48801716Y-35821917D01*
X48801552Y-36010884D01*
X48873714Y-36185529D01*
X49007217Y-36319266D01*
X49119583Y-36365925D01*
X49006322Y-36412723D01*
X48872585Y-36546226D01*
X48800118Y-36720745D01*
X48799954Y-36909712D01*
X48872116Y-37084357D01*
X48961102Y-37173499D01*
X48961102Y-41848605D01*
X48695144Y-42114563D01*
X48550383Y-42114437D01*
X48375738Y-42186599D01*
X48263320Y-42298820D01*
X48255230Y-42279241D01*
X48121727Y-42145504D01*
X47947208Y-42073037D01*
X47758241Y-42072873D01*
X47583596Y-42145035D01*
X47449859Y-42278538D01*
X47377392Y-42453057D01*
X47377228Y-42642024D01*
X47449390Y-42816669D01*
X47552310Y-42919769D01*
X47552310Y-44961381D01*
X47575146Y-45076186D01*
X47640178Y-45173513D01*
X50183333Y-47716668D01*
X50280660Y-47781700D01*
X50395465Y-47804536D01*
X53623642Y-47804536D01*
X53597549Y-47830583D01*
X53525082Y-48005102D01*
X53524918Y-48194069D01*
X53564373Y-48289557D01*
X47923882Y-48289557D01*
X47104689Y-47470364D01*
X47007362Y-47405332D01*
X46892557Y-47382496D01*
X42306202Y-47382496D01*
X42118782Y-47195076D01*
X42206210Y-47107801D01*
X42278677Y-46933282D01*
X42278841Y-46744315D01*
X42228746Y-46623075D01*
X45349551Y-46623075D01*
X45464356Y-46600239D01*
X45561683Y-46535207D01*
X45748724Y-46348166D01*
X45725082Y-46405102D01*
X45724918Y-46594069D01*
X45797080Y-46768714D01*
X45930583Y-46902451D01*
X46105102Y-46974918D01*
X46294069Y-46975082D01*
X46468714Y-46902920D01*
X46602451Y-46769417D01*
X46674918Y-46594898D01*
X46675082Y-46405931D01*
X46602920Y-46231286D01*
X46469417Y-46097549D01*
X46294898Y-46025082D01*
X46105931Y-46024918D01*
X45931286Y-46097080D01*
X45903486Y-46124832D01*
X45917314Y-46055312D01*
X45917314Y-40527394D01*
X46799930Y-40527394D01*
X46872092Y-40702039D01*
X47005595Y-40835776D01*
X47167667Y-40903074D01*
X47167520Y-41071986D01*
X47239682Y-41246631D01*
X47373185Y-41380368D01*
X47547704Y-41452835D01*
X47736671Y-41452999D01*
X47911316Y-41380837D01*
X47925895Y-41366283D01*
X47925844Y-41425147D01*
X47998006Y-41599792D01*
X48131509Y-41733529D01*
X48306028Y-41805996D01*
X48494995Y-41806160D01*
X48669640Y-41733998D01*
X48803377Y-41600495D01*
X48875844Y-41425976D01*
X48876008Y-41237009D01*
X48803846Y-41062364D01*
X48670343Y-40928627D01*
X48495824Y-40856160D01*
X48306857Y-40855996D01*
X48132212Y-40928158D01*
X48117633Y-40942712D01*
X48117684Y-40883848D01*
X48045522Y-40709203D01*
X47912019Y-40575466D01*
X47749947Y-40508168D01*
X47750094Y-40339256D01*
X47677932Y-40164611D01*
X47544429Y-40030874D01*
X47407694Y-39974096D01*
X47682874Y-39974096D01*
X47755036Y-40148741D01*
X47888539Y-40282478D01*
X48063058Y-40354945D01*
X48252025Y-40355109D01*
X48426670Y-40282947D01*
X48560407Y-40149444D01*
X48632874Y-39974925D01*
X48633038Y-39785958D01*
X48560876Y-39611313D01*
X48427373Y-39477576D01*
X48252854Y-39405109D01*
X48063887Y-39404945D01*
X47889242Y-39477107D01*
X47755505Y-39610610D01*
X47683038Y-39785129D01*
X47682874Y-39974096D01*
X47407694Y-39974096D01*
X47369910Y-39958407D01*
X47180943Y-39958243D01*
X47006298Y-40030405D01*
X46872561Y-40163908D01*
X46800094Y-40338427D01*
X46799930Y-40527394D01*
X45917314Y-40527394D01*
X45917314Y-32975015D01*
X45994069Y-32975082D01*
X46168714Y-32902920D01*
X46302451Y-32769417D01*
X46358991Y-32633255D01*
X47350000Y-33624264D01*
X47350000Y-37278311D01*
X47247549Y-37380583D01*
X47175082Y-37555102D01*
X47174918Y-37744069D01*
X47247080Y-37918714D01*
X47353227Y-38025047D01*
X47272549Y-38105583D01*
X47200082Y-38280102D01*
X47199918Y-38469069D01*
X47272080Y-38643714D01*
X47405583Y-38777451D01*
X47580102Y-38849918D01*
X47769069Y-38850082D01*
X47943714Y-38777920D01*
X48077451Y-38644417D01*
X48149918Y-38469898D01*
X48150044Y-38324220D01*
X48350759Y-38123505D01*
X48415791Y-38026178D01*
X48438627Y-37911373D01*
X48438627Y-33528057D01*
X48415791Y-33413252D01*
X48350759Y-33315925D01*
X47946079Y-32911245D01*
X47998527Y-32911291D01*
X48173172Y-32839129D01*
X48306909Y-32705626D01*
X48379376Y-32531107D01*
X48379528Y-32356164D01*
X48440561Y-32356217D01*
X48584811Y-32296614D01*
X48584811Y-32848876D01*
G36*
X33647561Y-45142661D02*
X33575094Y-45317180D01*
X33574930Y-45506147D01*
X33647092Y-45680792D01*
X33780595Y-45814529D01*
X33955114Y-45886996D01*
X34100792Y-45887122D01*
X35266548Y-47052878D01*
X35363875Y-47117910D01*
X35478680Y-47140746D01*
X38370394Y-47140746D01*
X38485199Y-47117910D01*
X38582526Y-47052878D01*
X39012329Y-46623075D01*
X39899534Y-46623075D01*
X39833819Y-46688675D01*
X39761352Y-46863194D01*
X39761188Y-47052161D01*
X39833350Y-47226806D01*
X39966853Y-47360543D01*
X40141372Y-47433010D01*
X40315732Y-47433161D01*
X40003457Y-47745436D01*
X34756445Y-47745436D01*
X33914201Y-46903192D01*
X33952950Y-46887181D01*
X34086687Y-46753678D01*
X34159154Y-46579159D01*
X34159318Y-46390192D01*
X34087156Y-46215547D01*
X33953653Y-46081810D01*
X33779134Y-46009343D01*
X33590167Y-46009179D01*
X33415522Y-46081341D01*
X33281785Y-46214844D01*
X33244888Y-46303702D01*
X32424999Y-45483813D01*
X32424999Y-45441656D01*
X32505102Y-45474918D01*
X32694069Y-45475082D01*
X32868714Y-45402920D01*
X33002451Y-45269417D01*
X33074918Y-45094898D01*
X33074957Y-45050001D01*
X33740383Y-45050001D01*
X33647561Y-45142661D01*
X33647561Y-45142661D01*
G37*
X33647561Y-45142661D02*
X33575094Y-45317180D01*
X33574930Y-45506147D01*
X33647092Y-45680792D01*
X33780595Y-45814529D01*
X33955114Y-45886996D01*
X34100792Y-45887122D01*
X35266548Y-47052878D01*
X35363875Y-47117910D01*
X35478680Y-47140746D01*
X38370394Y-47140746D01*
X38485199Y-47117910D01*
X38582526Y-47052878D01*
X39012329Y-46623075D01*
X39899534Y-46623075D01*
X39833819Y-46688675D01*
X39761352Y-46863194D01*
X39761188Y-47052161D01*
X39833350Y-47226806D01*
X39966853Y-47360543D01*
X40141372Y-47433010D01*
X40315732Y-47433161D01*
X40003457Y-47745436D01*
X34756445Y-47745436D01*
X33914201Y-46903192D01*
X33952950Y-46887181D01*
X34086687Y-46753678D01*
X34159154Y-46579159D01*
X34159318Y-46390192D01*
X34087156Y-46215547D01*
X33953653Y-46081810D01*
X33779134Y-46009343D01*
X33590167Y-46009179D01*
X33415522Y-46081341D01*
X33281785Y-46214844D01*
X33244888Y-46303702D01*
X32424999Y-45483813D01*
X32424999Y-45441656D01*
X32505102Y-45474918D01*
X32694069Y-45475082D01*
X32868714Y-45402920D01*
X33002451Y-45269417D01*
X33074918Y-45094898D01*
X33074957Y-45050001D01*
X33740383Y-45050001D01*
X33647561Y-45142661D01*
G36*
X65368800Y-45899860D02*
X65135770Y-46248615D01*
X65053940Y-46660000D01*
X65135770Y-47071385D01*
X65368800Y-47420140D01*
X65393256Y-47436481D01*
X64356744Y-47436481D01*
X64381200Y-47420140D01*
X64614230Y-47071385D01*
X64696060Y-46660000D01*
X64614230Y-46248615D01*
X64381200Y-45899860D01*
X64226479Y-45796479D01*
X65523521Y-45796479D01*
X65368800Y-45899860D01*
X65368800Y-45899860D01*
G37*
X65368800Y-45899860D02*
X65135770Y-46248615D01*
X65053940Y-46660000D01*
X65135770Y-47071385D01*
X65368800Y-47420140D01*
X65393256Y-47436481D01*
X64356744Y-47436481D01*
X64381200Y-47420140D01*
X64614230Y-47071385D01*
X64696060Y-46660000D01*
X64614230Y-46248615D01*
X64381200Y-45899860D01*
X64226479Y-45796479D01*
X65523521Y-45796479D01*
X65368800Y-45899860D01*
G36*
X59763001Y-45952905D02*
X59762837Y-46141872D01*
X59834999Y-46316517D01*
X59949345Y-46431063D01*
X59789573Y-46497080D01*
X59655836Y-46630583D01*
X59583369Y-46805102D01*
X59583205Y-46994069D01*
X59642044Y-47136470D01*
X58229050Y-47136470D01*
X58114245Y-47159306D01*
X58016918Y-47224338D01*
X57974923Y-47266333D01*
X57975084Y-47080964D01*
X57902922Y-46906319D01*
X57769419Y-46772582D01*
X57594900Y-46700115D01*
X57405933Y-46699951D01*
X57385442Y-46708418D01*
X58189033Y-45904827D01*
X59782965Y-45904827D01*
X59763001Y-45952905D01*
X59763001Y-45952905D01*
G37*
X59763001Y-45952905D02*
X59762837Y-46141872D01*
X59834999Y-46316517D01*
X59949345Y-46431063D01*
X59789573Y-46497080D01*
X59655836Y-46630583D01*
X59583369Y-46805102D01*
X59583205Y-46994069D01*
X59642044Y-47136470D01*
X58229050Y-47136470D01*
X58114245Y-47159306D01*
X58016918Y-47224338D01*
X57974923Y-47266333D01*
X57975084Y-47080964D01*
X57902922Y-46906319D01*
X57769419Y-46772582D01*
X57594900Y-46700115D01*
X57405933Y-46699951D01*
X57385442Y-46708418D01*
X58189033Y-45904827D01*
X59782965Y-45904827D01*
X59763001Y-45952905D01*
G36*
X49305518Y-42405102D02*
X49305354Y-42594069D01*
X49377516Y-42768714D01*
X49511019Y-42902451D01*
X49685538Y-42974918D01*
X49874505Y-42975082D01*
X49961597Y-42939096D01*
X49961597Y-43133600D01*
X49984433Y-43248405D01*
X50049465Y-43345732D01*
X51407889Y-44704156D01*
X51505216Y-44769188D01*
X51620021Y-44792024D01*
X51687295Y-44792024D01*
X51677071Y-44802230D01*
X51604604Y-44976749D01*
X51604440Y-45165716D01*
X51676602Y-45340361D01*
X51810105Y-45474098D01*
X51984624Y-45546565D01*
X52173591Y-45546729D01*
X52348236Y-45474567D01*
X52481973Y-45341064D01*
X52533942Y-45215909D01*
X52597080Y-45368714D01*
X52730583Y-45502451D01*
X52905102Y-45574918D01*
X53094069Y-45575082D01*
X53268714Y-45502920D01*
X53402451Y-45369417D01*
X53474918Y-45194898D01*
X53475082Y-45005931D01*
X53402920Y-44831286D01*
X53363727Y-44792024D01*
X53483835Y-44792024D01*
X53905679Y-45213868D01*
X53905553Y-45358629D01*
X53977715Y-45533274D01*
X54111218Y-45667011D01*
X54285737Y-45739478D01*
X54474704Y-45739642D01*
X54649349Y-45667480D01*
X54783086Y-45533977D01*
X54804007Y-45483593D01*
X54808618Y-45494752D01*
X54942121Y-45628489D01*
X55116640Y-45700956D01*
X55305607Y-45701120D01*
X55480252Y-45628958D01*
X55613989Y-45495455D01*
X55686456Y-45320936D01*
X55686620Y-45131969D01*
X55631037Y-44997448D01*
X55780080Y-44997448D01*
X55732496Y-45112042D01*
X55732332Y-45301009D01*
X55804494Y-45475654D01*
X55937997Y-45609391D01*
X56112516Y-45681858D01*
X56301483Y-45682022D01*
X56476128Y-45609860D01*
X56609865Y-45476357D01*
X56682332Y-45301838D01*
X56682496Y-45112871D01*
X56634804Y-44997448D01*
X57141157Y-44997448D01*
X55728713Y-46409892D01*
X51476882Y-46409892D01*
X51374610Y-46307441D01*
X51200091Y-46234974D01*
X51011124Y-46234810D01*
X50836479Y-46306972D01*
X50702742Y-46440475D01*
X50630275Y-46614994D01*
X50630111Y-46803961D01*
X50671663Y-46904525D01*
X50653972Y-46904525D01*
X49600000Y-45850553D01*
X49600000Y-45377906D01*
X49702451Y-45275634D01*
X49774918Y-45101115D01*
X49775082Y-44912148D01*
X49702920Y-44737503D01*
X49569417Y-44603766D01*
X49394898Y-44531299D01*
X49205931Y-44531135D01*
X49031286Y-44603297D01*
X48897549Y-44736800D01*
X48825082Y-44911319D01*
X48824918Y-45100286D01*
X48897080Y-45274931D01*
X49000000Y-45378031D01*
X49000000Y-45684807D01*
X48152310Y-44837117D01*
X48152310Y-42919644D01*
X48233442Y-42838654D01*
X48241532Y-42858233D01*
X48375035Y-42991970D01*
X48549554Y-43064437D01*
X48738521Y-43064601D01*
X48913166Y-42992439D01*
X49046903Y-42858936D01*
X49119370Y-42684417D01*
X49119496Y-42538739D01*
X49342717Y-42315518D01*
X49305518Y-42405102D01*
X49305518Y-42405102D01*
G37*
X49305518Y-42405102D02*
X49305354Y-42594069D01*
X49377516Y-42768714D01*
X49511019Y-42902451D01*
X49685538Y-42974918D01*
X49874505Y-42975082D01*
X49961597Y-42939096D01*
X49961597Y-43133600D01*
X49984433Y-43248405D01*
X50049465Y-43345732D01*
X51407889Y-44704156D01*
X51505216Y-44769188D01*
X51620021Y-44792024D01*
X51687295Y-44792024D01*
X51677071Y-44802230D01*
X51604604Y-44976749D01*
X51604440Y-45165716D01*
X51676602Y-45340361D01*
X51810105Y-45474098D01*
X51984624Y-45546565D01*
X52173591Y-45546729D01*
X52348236Y-45474567D01*
X52481973Y-45341064D01*
X52533942Y-45215909D01*
X52597080Y-45368714D01*
X52730583Y-45502451D01*
X52905102Y-45574918D01*
X53094069Y-45575082D01*
X53268714Y-45502920D01*
X53402451Y-45369417D01*
X53474918Y-45194898D01*
X53475082Y-45005931D01*
X53402920Y-44831286D01*
X53363727Y-44792024D01*
X53483835Y-44792024D01*
X53905679Y-45213868D01*
X53905553Y-45358629D01*
X53977715Y-45533274D01*
X54111218Y-45667011D01*
X54285737Y-45739478D01*
X54474704Y-45739642D01*
X54649349Y-45667480D01*
X54783086Y-45533977D01*
X54804007Y-45483593D01*
X54808618Y-45494752D01*
X54942121Y-45628489D01*
X55116640Y-45700956D01*
X55305607Y-45701120D01*
X55480252Y-45628958D01*
X55613989Y-45495455D01*
X55686456Y-45320936D01*
X55686620Y-45131969D01*
X55631037Y-44997448D01*
X55780080Y-44997448D01*
X55732496Y-45112042D01*
X55732332Y-45301009D01*
X55804494Y-45475654D01*
X55937997Y-45609391D01*
X56112516Y-45681858D01*
X56301483Y-45682022D01*
X56476128Y-45609860D01*
X56609865Y-45476357D01*
X56682332Y-45301838D01*
X56682496Y-45112871D01*
X56634804Y-44997448D01*
X57141157Y-44997448D01*
X55728713Y-46409892D01*
X51476882Y-46409892D01*
X51374610Y-46307441D01*
X51200091Y-46234974D01*
X51011124Y-46234810D01*
X50836479Y-46306972D01*
X50702742Y-46440475D01*
X50630275Y-46614994D01*
X50630111Y-46803961D01*
X50671663Y-46904525D01*
X50653972Y-46904525D01*
X49600000Y-45850553D01*
X49600000Y-45377906D01*
X49702451Y-45275634D01*
X49774918Y-45101115D01*
X49775082Y-44912148D01*
X49702920Y-44737503D01*
X49569417Y-44603766D01*
X49394898Y-44531299D01*
X49205931Y-44531135D01*
X49031286Y-44603297D01*
X48897549Y-44736800D01*
X48825082Y-44911319D01*
X48824918Y-45100286D01*
X48897080Y-45274931D01*
X49000000Y-45378031D01*
X49000000Y-45684807D01*
X48152310Y-44837117D01*
X48152310Y-42919644D01*
X48233442Y-42838654D01*
X48241532Y-42858233D01*
X48375035Y-42991970D01*
X48549554Y-43064437D01*
X48738521Y-43064601D01*
X48913166Y-42992439D01*
X49046903Y-42858936D01*
X49119370Y-42684417D01*
X49119496Y-42538739D01*
X49342717Y-42315518D01*
X49305518Y-42405102D01*
G36*
X44824918Y-31894069D02*
X44897080Y-32068714D01*
X45000000Y-32171814D01*
X45000000Y-45723064D01*
X44810257Y-45723064D01*
X44816417Y-45716915D01*
X44888884Y-45542396D01*
X44889048Y-45353429D01*
X44816886Y-45178784D01*
X44713966Y-45075684D01*
X44713966Y-34936213D01*
X44691130Y-34821408D01*
X44626098Y-34724081D01*
X43035992Y-33133975D01*
X43036118Y-32989214D01*
X42963956Y-32814569D01*
X42830453Y-32680832D01*
X42655934Y-32608365D01*
X42466967Y-32608201D01*
X42292322Y-32680363D01*
X42288667Y-32684012D01*
X42288667Y-32633405D01*
X42367716Y-32554356D01*
X42512477Y-32554482D01*
X42687122Y-32482320D01*
X42820859Y-32348817D01*
X42893326Y-32174298D01*
X42893490Y-31985331D01*
X42860050Y-31904399D01*
X44642153Y-31904399D01*
X44756958Y-31881563D01*
X44824968Y-31836120D01*
X44824918Y-31894069D01*
X44824918Y-31894069D01*
G37*
X44824918Y-31894069D02*
X44897080Y-32068714D01*
X45000000Y-32171814D01*
X45000000Y-45723064D01*
X44810257Y-45723064D01*
X44816417Y-45716915D01*
X44888884Y-45542396D01*
X44889048Y-45353429D01*
X44816886Y-45178784D01*
X44713966Y-45075684D01*
X44713966Y-34936213D01*
X44691130Y-34821408D01*
X44626098Y-34724081D01*
X43035992Y-33133975D01*
X43036118Y-32989214D01*
X42963956Y-32814569D01*
X42830453Y-32680832D01*
X42655934Y-32608365D01*
X42466967Y-32608201D01*
X42292322Y-32680363D01*
X42288667Y-32684012D01*
X42288667Y-32633405D01*
X42367716Y-32554356D01*
X42512477Y-32554482D01*
X42687122Y-32482320D01*
X42820859Y-32348817D01*
X42893326Y-32174298D01*
X42893490Y-31985331D01*
X42860050Y-31904399D01*
X44642153Y-31904399D01*
X44756958Y-31881563D01*
X44824968Y-31836120D01*
X44824918Y-31894069D01*
G36*
X43565926Y-35342375D02*
X43565926Y-35696994D01*
X43447923Y-35647995D01*
X43258956Y-35647831D01*
X43084311Y-35719993D01*
X43025624Y-35778577D01*
X42927998Y-35680780D01*
X42753479Y-35608313D01*
X42564512Y-35608149D01*
X42389867Y-35680311D01*
X42256130Y-35813814D01*
X42183663Y-35988333D01*
X42183537Y-36134011D01*
X39187868Y-39129680D01*
X39122836Y-39227007D01*
X39100000Y-39341812D01*
X39100000Y-40178313D01*
X38997549Y-40280585D01*
X38925082Y-40455104D01*
X38924918Y-40644071D01*
X38997080Y-40818716D01*
X39130583Y-40952453D01*
X39305102Y-41024920D01*
X39487549Y-41025078D01*
X39475082Y-41055102D01*
X39474918Y-41244069D01*
X39547080Y-41418714D01*
X39603247Y-41474979D01*
X39549549Y-41528583D01*
X39480256Y-41695459D01*
X39464898Y-41689082D01*
X39275931Y-41688918D01*
X39101286Y-41761080D01*
X38967549Y-41894583D01*
X38895082Y-42069102D01*
X38894918Y-42258069D01*
X38967080Y-42432714D01*
X39100583Y-42566451D01*
X39275102Y-42638918D01*
X39464069Y-42639082D01*
X39638714Y-42566920D01*
X39772451Y-42433417D01*
X39841744Y-42266541D01*
X39857102Y-42272918D01*
X40046069Y-42273082D01*
X40220714Y-42200920D01*
X40354451Y-42067417D01*
X40426918Y-41892898D01*
X40427082Y-41703931D01*
X40354920Y-41529286D01*
X40298753Y-41473021D01*
X40352451Y-41419417D01*
X40424918Y-41244898D01*
X40425082Y-41055931D01*
X40352920Y-40881286D01*
X40219417Y-40747549D01*
X40044898Y-40675082D01*
X39862451Y-40674924D01*
X39874918Y-40644900D01*
X39875082Y-40455933D01*
X39802920Y-40281288D01*
X39700000Y-40178188D01*
X39700000Y-39466076D01*
X41502080Y-37663996D01*
X41499631Y-37676307D01*
X41499631Y-43395041D01*
X39620486Y-45274186D01*
X36094021Y-45274186D01*
X35702625Y-44882790D01*
X35801863Y-44882876D01*
X35976508Y-44810714D01*
X36110245Y-44677211D01*
X36182712Y-44502692D01*
X36182876Y-44313725D01*
X36110714Y-44139080D01*
X35977211Y-44005343D01*
X35969107Y-44001978D01*
X36721099Y-44001978D01*
X36794337Y-43987410D01*
X36791576Y-43988551D01*
X36657839Y-44122054D01*
X36585372Y-44296573D01*
X36585208Y-44485540D01*
X36657370Y-44660185D01*
X36790873Y-44793922D01*
X36965392Y-44866389D01*
X37154359Y-44866553D01*
X37329004Y-44794391D01*
X37410396Y-44713141D01*
X37469779Y-44772628D01*
X37644298Y-44845095D01*
X37833265Y-44845259D01*
X38007910Y-44773097D01*
X38141647Y-44639594D01*
X38214114Y-44465075D01*
X38214240Y-44319397D01*
X38345122Y-44188515D01*
X38410154Y-44091188D01*
X38432990Y-43976383D01*
X38432990Y-38008247D01*
X38410154Y-37893442D01*
X38345122Y-37796115D01*
X37394227Y-36845220D01*
X37394227Y-35903207D01*
X37812132Y-35485302D01*
X37877164Y-35387975D01*
X37895556Y-35295514D01*
X37926693Y-35326706D01*
X38101212Y-35399173D01*
X38290179Y-35399337D01*
X38464824Y-35327175D01*
X38598561Y-35193672D01*
X38615492Y-35152898D01*
X38615492Y-35207515D01*
X38513041Y-35309787D01*
X38440574Y-35484306D01*
X38440410Y-35673273D01*
X38512572Y-35847918D01*
X38646075Y-35981655D01*
X38726957Y-36015241D01*
X38693686Y-36048512D01*
X38270177Y-36048512D01*
X38167905Y-35946061D01*
X37993386Y-35873594D01*
X37804419Y-35873430D01*
X37629774Y-35945592D01*
X37496037Y-36079095D01*
X37423570Y-36253614D01*
X37423406Y-36442581D01*
X37495568Y-36617226D01*
X37629071Y-36750963D01*
X37803590Y-36823430D01*
X37992557Y-36823594D01*
X38167202Y-36751432D01*
X38270302Y-36648512D01*
X38817950Y-36648512D01*
X38932755Y-36625676D01*
X39030082Y-36560644D01*
X41868132Y-33722594D01*
X41899380Y-33675829D01*
X43565926Y-35342375D01*
X43565926Y-35342375D01*
G37*
X43565926Y-35342375D02*
X43565926Y-35696994D01*
X43447923Y-35647995D01*
X43258956Y-35647831D01*
X43084311Y-35719993D01*
X43025624Y-35778577D01*
X42927998Y-35680780D01*
X42753479Y-35608313D01*
X42564512Y-35608149D01*
X42389867Y-35680311D01*
X42256130Y-35813814D01*
X42183663Y-35988333D01*
X42183537Y-36134011D01*
X39187868Y-39129680D01*
X39122836Y-39227007D01*
X39100000Y-39341812D01*
X39100000Y-40178313D01*
X38997549Y-40280585D01*
X38925082Y-40455104D01*
X38924918Y-40644071D01*
X38997080Y-40818716D01*
X39130583Y-40952453D01*
X39305102Y-41024920D01*
X39487549Y-41025078D01*
X39475082Y-41055102D01*
X39474918Y-41244069D01*
X39547080Y-41418714D01*
X39603247Y-41474979D01*
X39549549Y-41528583D01*
X39480256Y-41695459D01*
X39464898Y-41689082D01*
X39275931Y-41688918D01*
X39101286Y-41761080D01*
X38967549Y-41894583D01*
X38895082Y-42069102D01*
X38894918Y-42258069D01*
X38967080Y-42432714D01*
X39100583Y-42566451D01*
X39275102Y-42638918D01*
X39464069Y-42639082D01*
X39638714Y-42566920D01*
X39772451Y-42433417D01*
X39841744Y-42266541D01*
X39857102Y-42272918D01*
X40046069Y-42273082D01*
X40220714Y-42200920D01*
X40354451Y-42067417D01*
X40426918Y-41892898D01*
X40427082Y-41703931D01*
X40354920Y-41529286D01*
X40298753Y-41473021D01*
X40352451Y-41419417D01*
X40424918Y-41244898D01*
X40425082Y-41055931D01*
X40352920Y-40881286D01*
X40219417Y-40747549D01*
X40044898Y-40675082D01*
X39862451Y-40674924D01*
X39874918Y-40644900D01*
X39875082Y-40455933D01*
X39802920Y-40281288D01*
X39700000Y-40178188D01*
X39700000Y-39466076D01*
X41502080Y-37663996D01*
X41499631Y-37676307D01*
X41499631Y-43395041D01*
X39620486Y-45274186D01*
X36094021Y-45274186D01*
X35702625Y-44882790D01*
X35801863Y-44882876D01*
X35976508Y-44810714D01*
X36110245Y-44677211D01*
X36182712Y-44502692D01*
X36182876Y-44313725D01*
X36110714Y-44139080D01*
X35977211Y-44005343D01*
X35969107Y-44001978D01*
X36721099Y-44001978D01*
X36794337Y-43987410D01*
X36791576Y-43988551D01*
X36657839Y-44122054D01*
X36585372Y-44296573D01*
X36585208Y-44485540D01*
X36657370Y-44660185D01*
X36790873Y-44793922D01*
X36965392Y-44866389D01*
X37154359Y-44866553D01*
X37329004Y-44794391D01*
X37410396Y-44713141D01*
X37469779Y-44772628D01*
X37644298Y-44845095D01*
X37833265Y-44845259D01*
X38007910Y-44773097D01*
X38141647Y-44639594D01*
X38214114Y-44465075D01*
X38214240Y-44319397D01*
X38345122Y-44188515D01*
X38410154Y-44091188D01*
X38432990Y-43976383D01*
X38432990Y-38008247D01*
X38410154Y-37893442D01*
X38345122Y-37796115D01*
X37394227Y-36845220D01*
X37394227Y-35903207D01*
X37812132Y-35485302D01*
X37877164Y-35387975D01*
X37895556Y-35295514D01*
X37926693Y-35326706D01*
X38101212Y-35399173D01*
X38290179Y-35399337D01*
X38464824Y-35327175D01*
X38598561Y-35193672D01*
X38615492Y-35152898D01*
X38615492Y-35207515D01*
X38513041Y-35309787D01*
X38440574Y-35484306D01*
X38440410Y-35673273D01*
X38512572Y-35847918D01*
X38646075Y-35981655D01*
X38726957Y-36015241D01*
X38693686Y-36048512D01*
X38270177Y-36048512D01*
X38167905Y-35946061D01*
X37993386Y-35873594D01*
X37804419Y-35873430D01*
X37629774Y-35945592D01*
X37496037Y-36079095D01*
X37423570Y-36253614D01*
X37423406Y-36442581D01*
X37495568Y-36617226D01*
X37629071Y-36750963D01*
X37803590Y-36823430D01*
X37992557Y-36823594D01*
X38167202Y-36751432D01*
X38270302Y-36648512D01*
X38817950Y-36648512D01*
X38932755Y-36625676D01*
X39030082Y-36560644D01*
X41868132Y-33722594D01*
X41899380Y-33675829D01*
X43565926Y-35342375D01*
G36*
X65368800Y-39800140D02*
X65717555Y-40033170D01*
X66128940Y-40115000D01*
X66171060Y-40115000D01*
X66582445Y-40033170D01*
X66931200Y-39800140D01*
X66935001Y-39794451D01*
X66935001Y-40825549D01*
X66931200Y-40819860D01*
X66582445Y-40586830D01*
X66171060Y-40505000D01*
X66128940Y-40505000D01*
X65717555Y-40586830D01*
X65368800Y-40819860D01*
X65135770Y-41168615D01*
X65053940Y-41580000D01*
X65135770Y-41991385D01*
X65368800Y-42340140D01*
X65717555Y-42573170D01*
X66128940Y-42655000D01*
X66171060Y-42655000D01*
X66582445Y-42573170D01*
X66931200Y-42340140D01*
X66935001Y-42334451D01*
X66935001Y-43365549D01*
X66931200Y-43359860D01*
X66582445Y-43126830D01*
X66171060Y-43045000D01*
X66128940Y-43045000D01*
X65717555Y-43126830D01*
X65368800Y-43359860D01*
X65135770Y-43708615D01*
X65053940Y-44120000D01*
X65120167Y-44452946D01*
X65004898Y-44405082D01*
X64815931Y-44404918D01*
X64641286Y-44477080D01*
X64621005Y-44497326D01*
X64696060Y-44120000D01*
X64614230Y-43708615D01*
X64381200Y-43359860D01*
X64032445Y-43126830D01*
X63621060Y-43045000D01*
X63578940Y-43045000D01*
X63167555Y-43126830D01*
X62818800Y-43359860D01*
X62585770Y-43708615D01*
X62503940Y-44120000D01*
X62585770Y-44531385D01*
X62818800Y-44880140D01*
X62841950Y-44895608D01*
X62322524Y-44895608D01*
X62207719Y-44918444D01*
X62110392Y-44983476D01*
X61836624Y-45257244D01*
X61628895Y-45257244D01*
X62175471Y-44710668D01*
X62240503Y-44613341D01*
X62263339Y-44498536D01*
X62263339Y-41772814D01*
X62542433Y-41772814D01*
X62549146Y-41806578D01*
X62715845Y-42191475D01*
X63017149Y-42483281D01*
X63407186Y-42637570D01*
X63575000Y-42598462D01*
X63575000Y-41605000D01*
X63625000Y-41605000D01*
X63625000Y-42598462D01*
X63792814Y-42637570D01*
X64182851Y-42483281D01*
X64484155Y-42191475D01*
X64650854Y-41806578D01*
X64657567Y-41772814D01*
X64618443Y-41605000D01*
X63625000Y-41605000D01*
X63575000Y-41605000D01*
X62581557Y-41605000D01*
X62542433Y-41772814D01*
X62263339Y-41772814D01*
X62263339Y-41354262D01*
X63023979Y-40593622D01*
X63227215Y-40593622D01*
X63017149Y-40676719D01*
X62715845Y-40968525D01*
X62549146Y-41353422D01*
X62542433Y-41387186D01*
X62581557Y-41555000D01*
X63575000Y-41555000D01*
X63575000Y-41535000D01*
X63625000Y-41535000D01*
X63625000Y-41555000D01*
X64618443Y-41555000D01*
X64657567Y-41387186D01*
X64650854Y-41353422D01*
X64484155Y-40968525D01*
X64182851Y-40676719D01*
X63972785Y-40593622D01*
X64478913Y-40593622D01*
X64593718Y-40570786D01*
X64691045Y-40505754D01*
X65138703Y-40058096D01*
X65203735Y-39960769D01*
X65226571Y-39845964D01*
X65226571Y-39587279D01*
X65368800Y-39800140D01*
X65368800Y-39800140D01*
G37*
X65368800Y-39800140D02*
X65717555Y-40033170D01*
X66128940Y-40115000D01*
X66171060Y-40115000D01*
X66582445Y-40033170D01*
X66931200Y-39800140D01*
X66935001Y-39794451D01*
X66935001Y-40825549D01*
X66931200Y-40819860D01*
X66582445Y-40586830D01*
X66171060Y-40505000D01*
X66128940Y-40505000D01*
X65717555Y-40586830D01*
X65368800Y-40819860D01*
X65135770Y-41168615D01*
X65053940Y-41580000D01*
X65135770Y-41991385D01*
X65368800Y-42340140D01*
X65717555Y-42573170D01*
X66128940Y-42655000D01*
X66171060Y-42655000D01*
X66582445Y-42573170D01*
X66931200Y-42340140D01*
X66935001Y-42334451D01*
X66935001Y-43365549D01*
X66931200Y-43359860D01*
X66582445Y-43126830D01*
X66171060Y-43045000D01*
X66128940Y-43045000D01*
X65717555Y-43126830D01*
X65368800Y-43359860D01*
X65135770Y-43708615D01*
X65053940Y-44120000D01*
X65120167Y-44452946D01*
X65004898Y-44405082D01*
X64815931Y-44404918D01*
X64641286Y-44477080D01*
X64621005Y-44497326D01*
X64696060Y-44120000D01*
X64614230Y-43708615D01*
X64381200Y-43359860D01*
X64032445Y-43126830D01*
X63621060Y-43045000D01*
X63578940Y-43045000D01*
X63167555Y-43126830D01*
X62818800Y-43359860D01*
X62585770Y-43708615D01*
X62503940Y-44120000D01*
X62585770Y-44531385D01*
X62818800Y-44880140D01*
X62841950Y-44895608D01*
X62322524Y-44895608D01*
X62207719Y-44918444D01*
X62110392Y-44983476D01*
X61836624Y-45257244D01*
X61628895Y-45257244D01*
X62175471Y-44710668D01*
X62240503Y-44613341D01*
X62263339Y-44498536D01*
X62263339Y-41772814D01*
X62542433Y-41772814D01*
X62549146Y-41806578D01*
X62715845Y-42191475D01*
X63017149Y-42483281D01*
X63407186Y-42637570D01*
X63575000Y-42598462D01*
X63575000Y-41605000D01*
X63625000Y-41605000D01*
X63625000Y-42598462D01*
X63792814Y-42637570D01*
X64182851Y-42483281D01*
X64484155Y-42191475D01*
X64650854Y-41806578D01*
X64657567Y-41772814D01*
X64618443Y-41605000D01*
X63625000Y-41605000D01*
X63575000Y-41605000D01*
X62581557Y-41605000D01*
X62542433Y-41772814D01*
X62263339Y-41772814D01*
X62263339Y-41354262D01*
X63023979Y-40593622D01*
X63227215Y-40593622D01*
X63017149Y-40676719D01*
X62715845Y-40968525D01*
X62549146Y-41353422D01*
X62542433Y-41387186D01*
X62581557Y-41555000D01*
X63575000Y-41555000D01*
X63575000Y-41535000D01*
X63625000Y-41535000D01*
X63625000Y-41555000D01*
X64618443Y-41555000D01*
X64657567Y-41387186D01*
X64650854Y-41353422D01*
X64484155Y-40968525D01*
X64182851Y-40676719D01*
X63972785Y-40593622D01*
X64478913Y-40593622D01*
X64593718Y-40570786D01*
X64691045Y-40505754D01*
X65138703Y-40058096D01*
X65203735Y-39960769D01*
X65226571Y-39845964D01*
X65226571Y-39587279D01*
X65368800Y-39800140D01*
G36*
X59980584Y-42792747D02*
X60155103Y-42865214D01*
X60344070Y-42865378D01*
X60463298Y-42816114D01*
X60463298Y-43094237D01*
X60150301Y-43407234D01*
X60005540Y-43407108D01*
X59830895Y-43479270D01*
X59697158Y-43612773D01*
X59624691Y-43787292D01*
X59624527Y-43976259D01*
X59657971Y-44057200D01*
X59510821Y-44057200D01*
X59396016Y-44080036D01*
X59369974Y-44097437D01*
X58613570Y-44097437D01*
X59949450Y-42761558D01*
X59980584Y-42792747D01*
X59980584Y-42792747D01*
G37*
X59980584Y-42792747D02*
X60155103Y-42865214D01*
X60344070Y-42865378D01*
X60463298Y-42816114D01*
X60463298Y-43094237D01*
X60150301Y-43407234D01*
X60005540Y-43407108D01*
X59830895Y-43479270D01*
X59697158Y-43612773D01*
X59624691Y-43787292D01*
X59624527Y-43976259D01*
X59657971Y-44057200D01*
X59510821Y-44057200D01*
X59396016Y-44080036D01*
X59369974Y-44097437D01*
X58613570Y-44097437D01*
X59949450Y-42761558D01*
X59980584Y-42792747D01*
G36*
X37832990Y-38132511D02*
X37832990Y-43852119D01*
X37789888Y-43895221D01*
X37645127Y-43895095D01*
X37470482Y-43967257D01*
X37389090Y-44048507D01*
X37329707Y-43989020D01*
X37155188Y-43916553D01*
X36966221Y-43916389D01*
X36870835Y-43955802D01*
X36933231Y-43914110D01*
X37651318Y-43196023D01*
X37716350Y-43098696D01*
X37739186Y-42983891D01*
X37739186Y-39841645D01*
X37716350Y-39726840D01*
X37651318Y-39629513D01*
X37091740Y-39069935D01*
X37091740Y-37391261D01*
X37832990Y-38132511D01*
X37832990Y-38132511D01*
G37*
X37832990Y-38132511D02*
X37832990Y-43852119D01*
X37789888Y-43895221D01*
X37645127Y-43895095D01*
X37470482Y-43967257D01*
X37389090Y-44048507D01*
X37329707Y-43989020D01*
X37155188Y-43916553D01*
X36966221Y-43916389D01*
X36870835Y-43955802D01*
X36933231Y-43914110D01*
X37651318Y-43196023D01*
X37716350Y-43098696D01*
X37739186Y-42983891D01*
X37739186Y-39841645D01*
X37716350Y-39726840D01*
X37651318Y-39629513D01*
X37091740Y-39069935D01*
X37091740Y-37391261D01*
X37832990Y-38132511D01*
G36*
X67918800Y-39800140D02*
X68267555Y-40033170D01*
X68678940Y-40115000D01*
X68721060Y-40115000D01*
X69132445Y-40033170D01*
X69475001Y-39804282D01*
X69475001Y-40862812D01*
X69282851Y-40676719D01*
X68892814Y-40522430D01*
X68725000Y-40561538D01*
X68725000Y-41555000D01*
X68745000Y-41555000D01*
X68745000Y-41605000D01*
X68725000Y-41605000D01*
X68725000Y-42598462D01*
X68892814Y-42637570D01*
X69282851Y-42483281D01*
X69475001Y-42297188D01*
X69475001Y-43355718D01*
X69132445Y-43126830D01*
X68721060Y-43045000D01*
X68678940Y-43045000D01*
X68267555Y-43126830D01*
X67918800Y-43359860D01*
X67835010Y-43485261D01*
X67835010Y-42210036D01*
X68117149Y-42483281D01*
X68507186Y-42637570D01*
X68675000Y-42598462D01*
X68675000Y-41605000D01*
X68655000Y-41605000D01*
X68655000Y-41555000D01*
X68675000Y-41555000D01*
X68675000Y-40561538D01*
X68507186Y-40522430D01*
X68117149Y-40676719D01*
X67835010Y-40949964D01*
X67835010Y-39674739D01*
X67918800Y-39800140D01*
X67918800Y-39800140D01*
G37*
X67918800Y-39800140D02*
X68267555Y-40033170D01*
X68678940Y-40115000D01*
X68721060Y-40115000D01*
X69132445Y-40033170D01*
X69475001Y-39804282D01*
X69475001Y-40862812D01*
X69282851Y-40676719D01*
X68892814Y-40522430D01*
X68725000Y-40561538D01*
X68725000Y-41555000D01*
X68745000Y-41555000D01*
X68745000Y-41605000D01*
X68725000Y-41605000D01*
X68725000Y-42598462D01*
X68892814Y-42637570D01*
X69282851Y-42483281D01*
X69475001Y-42297188D01*
X69475001Y-43355718D01*
X69132445Y-43126830D01*
X68721060Y-43045000D01*
X68678940Y-43045000D01*
X68267555Y-43126830D01*
X67918800Y-43359860D01*
X67835010Y-43485261D01*
X67835010Y-42210036D01*
X68117149Y-42483281D01*
X68507186Y-42637570D01*
X68675000Y-42598462D01*
X68675000Y-41605000D01*
X68655000Y-41605000D01*
X68655000Y-41555000D01*
X68675000Y-41555000D01*
X68675000Y-40561538D01*
X68507186Y-40522430D01*
X68117149Y-40676719D01*
X67835010Y-40949964D01*
X67835010Y-39674739D01*
X67918800Y-39800140D01*
G36*
X58294274Y-24647430D02*
X58008389Y-24647430D01*
X57753873Y-24392914D01*
X57753999Y-24248153D01*
X57681837Y-24073508D01*
X57548334Y-23939771D01*
X57373815Y-23867304D01*
X57184848Y-23867140D01*
X57010203Y-23939302D01*
X56949476Y-23999923D01*
X56889429Y-23939771D01*
X56714910Y-23867304D01*
X56525943Y-23867140D01*
X56351298Y-23939302D01*
X56217561Y-24072805D01*
X56145094Y-24247324D01*
X56144930Y-24436291D01*
X56217092Y-24610936D01*
X56350595Y-24744673D01*
X56525114Y-24817140D01*
X56714081Y-24817304D01*
X56888726Y-24745142D01*
X56949453Y-24684521D01*
X57009500Y-24744673D01*
X57184019Y-24817140D01*
X57329697Y-24817266D01*
X57671993Y-25159562D01*
X57769320Y-25224594D01*
X57884125Y-25247430D01*
X58620370Y-25247430D01*
X59714390Y-26341450D01*
X59617699Y-26437972D01*
X59545232Y-26612491D01*
X59545068Y-26801458D01*
X59617230Y-26976103D01*
X59750733Y-27109840D01*
X59925252Y-27182307D01*
X60114219Y-27182471D01*
X60288864Y-27110309D01*
X60422601Y-26976806D01*
X60495068Y-26802287D01*
X60495166Y-26689014D01*
X60505986Y-26699834D01*
X60505860Y-26844595D01*
X60578022Y-27019240D01*
X60711525Y-27152977D01*
X60886044Y-27225444D01*
X61075011Y-27225608D01*
X61249656Y-27153446D01*
X61383393Y-27019943D01*
X61455860Y-26845424D01*
X61456024Y-26656457D01*
X61383862Y-26481812D01*
X61250359Y-26348075D01*
X61075840Y-26275608D01*
X60930162Y-26275482D01*
X60435049Y-25780369D01*
X60543714Y-25735470D01*
X60677451Y-25601967D01*
X60694688Y-25560456D01*
X60694688Y-25633513D01*
X60717524Y-25748318D01*
X60782556Y-25845645D01*
X61837104Y-26900193D01*
X61837104Y-27462282D01*
X60950678Y-28348708D01*
X60805917Y-28348582D01*
X60631272Y-28420744D01*
X60497535Y-28554247D01*
X60425068Y-28728766D01*
X60424904Y-28917733D01*
X60497066Y-29092378D01*
X60630569Y-29226115D01*
X60805088Y-29298582D01*
X60994055Y-29298746D01*
X61168000Y-29226873D01*
X61168000Y-31300998D01*
X61186047Y-31391728D01*
X61105945Y-31391658D01*
X60931300Y-31463820D01*
X60797563Y-31597323D01*
X60725096Y-31771842D01*
X60724932Y-31960809D01*
X60797094Y-32135454D01*
X60930597Y-32269191D01*
X61105116Y-32341658D01*
X61294083Y-32341822D01*
X61468728Y-32269660D01*
X61500503Y-32237940D01*
X61620340Y-32357777D01*
X61525186Y-32397094D01*
X61391449Y-32530597D01*
X61318982Y-32705116D01*
X61318818Y-32894083D01*
X61390980Y-33068728D01*
X61524483Y-33202465D01*
X61699002Y-33274932D01*
X61887969Y-33275096D01*
X62062614Y-33202934D01*
X62100000Y-33165613D01*
X62100000Y-36634866D01*
X61451194Y-37283672D01*
X61386162Y-37380999D01*
X61363326Y-37495804D01*
X61363326Y-39556501D01*
X60612980Y-38806155D01*
X60515653Y-38741123D01*
X60423477Y-38722788D01*
X60316712Y-38615836D01*
X60142193Y-38543369D01*
X59986988Y-38543234D01*
X59987132Y-38376978D01*
X59914970Y-38202333D01*
X59781467Y-38068596D01*
X59606948Y-37996129D01*
X59417981Y-37995965D01*
X59243336Y-38068127D01*
X59109599Y-38201630D01*
X59037132Y-38376149D01*
X59036968Y-38565116D01*
X59109130Y-38739761D01*
X59242633Y-38873498D01*
X59417152Y-38945965D01*
X59572357Y-38946100D01*
X59572213Y-39112356D01*
X59644375Y-39287001D01*
X59729484Y-39372259D01*
X59705673Y-39396029D01*
X59633206Y-39570548D01*
X59633042Y-39759515D01*
X59705204Y-39934160D01*
X59838707Y-40067897D01*
X60013226Y-40140364D01*
X60158904Y-40140490D01*
X60763304Y-40744890D01*
X60763304Y-40936038D01*
X60590133Y-40762867D01*
X60492806Y-40697835D01*
X60378001Y-40674999D01*
X60011535Y-40674999D01*
X59896730Y-40697835D01*
X59799403Y-40762867D01*
X57364866Y-43197404D01*
X55057534Y-43197404D01*
X54495483Y-42635353D01*
X54578311Y-42635353D01*
X54680583Y-42737804D01*
X54855102Y-42810271D01*
X55044069Y-42810435D01*
X55218714Y-42738273D01*
X55352451Y-42604770D01*
X55424918Y-42430251D01*
X55425082Y-42241284D01*
X55352920Y-42066639D01*
X55219417Y-41932902D01*
X55044898Y-41860435D01*
X54855931Y-41860271D01*
X54681286Y-41932433D01*
X54578186Y-42035353D01*
X54320653Y-42035353D01*
X52902728Y-40617428D01*
X52902728Y-40393119D01*
X54222176Y-40393119D01*
X54294338Y-40567764D01*
X54427841Y-40701501D01*
X54602360Y-40773968D01*
X54791327Y-40774132D01*
X54965972Y-40701970D01*
X55099709Y-40568467D01*
X55172176Y-40393948D01*
X55172340Y-40204981D01*
X55100178Y-40030336D01*
X54966675Y-39896599D01*
X54792156Y-39824132D01*
X54603189Y-39823968D01*
X54428544Y-39896130D01*
X54294807Y-40029633D01*
X54222340Y-40204152D01*
X54222176Y-40393119D01*
X52902728Y-40393119D01*
X52902728Y-40000823D01*
X53075317Y-40000823D01*
X53147479Y-40175468D01*
X53280982Y-40309205D01*
X53455501Y-40381672D01*
X53644468Y-40381836D01*
X53819113Y-40309674D01*
X53952850Y-40176171D01*
X54025317Y-40001652D01*
X54025454Y-39843571D01*
X54120370Y-39843653D01*
X54295015Y-39771491D01*
X54428752Y-39637988D01*
X54501219Y-39463469D01*
X54501383Y-39274502D01*
X54448797Y-39147234D01*
X57624606Y-39147234D01*
X57696768Y-39321879D01*
X57830271Y-39455616D01*
X58004790Y-39528083D01*
X58193757Y-39528247D01*
X58368402Y-39456085D01*
X58502139Y-39322582D01*
X58574606Y-39148063D01*
X58574770Y-38959096D01*
X58502608Y-38784451D01*
X58369105Y-38650714D01*
X58194586Y-38578247D01*
X58005619Y-38578083D01*
X57830974Y-38650245D01*
X57697237Y-38783748D01*
X57624770Y-38958267D01*
X57624606Y-39147234D01*
X54448797Y-39147234D01*
X54429221Y-39099857D01*
X54295718Y-38966120D01*
X54121199Y-38893653D01*
X53932232Y-38893489D01*
X53757587Y-38965651D01*
X53623850Y-39099154D01*
X53551383Y-39273673D01*
X53551246Y-39431754D01*
X53456330Y-39431672D01*
X53281685Y-39503834D01*
X53147948Y-39637337D01*
X53075481Y-39811856D01*
X53075317Y-40000823D01*
X52902728Y-40000823D01*
X52902728Y-31807255D01*
X54028337Y-30681646D01*
X54028337Y-31114106D01*
X53984077Y-31158366D01*
X53919045Y-31255693D01*
X53900710Y-31347869D01*
X53793758Y-31454634D01*
X53721291Y-31629153D01*
X53721127Y-31818120D01*
X53742061Y-31868783D01*
X53636803Y-31912275D01*
X53503066Y-32045778D01*
X53430599Y-32220297D01*
X53430435Y-32409264D01*
X53502597Y-32583909D01*
X53636100Y-32717646D01*
X53699258Y-32743872D01*
X53668938Y-32774139D01*
X53596471Y-32948658D01*
X53596307Y-33137625D01*
X53668469Y-33312270D01*
X53801972Y-33446007D01*
X53882069Y-33479267D01*
X53836836Y-33524500D01*
X53771804Y-33621827D01*
X53748968Y-33736632D01*
X53748968Y-34403529D01*
X53771804Y-34518334D01*
X53836836Y-34615661D01*
X53971256Y-34750081D01*
X53795128Y-34749928D01*
X53620483Y-34822090D01*
X53486746Y-34955593D01*
X53414279Y-35130112D01*
X53414115Y-35319079D01*
X53486277Y-35493724D01*
X53619780Y-35627461D01*
X53778859Y-35693517D01*
X53714290Y-35849015D01*
X53714126Y-36037982D01*
X53786288Y-36212627D01*
X53919791Y-36346364D01*
X54041727Y-36396997D01*
X54034347Y-36414770D01*
X54034183Y-36603737D01*
X54106345Y-36778382D01*
X54239848Y-36912119D01*
X54414367Y-36984586D01*
X54603334Y-36984750D01*
X54777979Y-36912588D01*
X54833037Y-36857627D01*
X54893626Y-36918322D01*
X55068145Y-36990789D01*
X55257112Y-36990953D01*
X55431757Y-36918791D01*
X55565494Y-36785288D01*
X55637961Y-36610769D01*
X55638125Y-36421802D01*
X55565963Y-36247157D01*
X55432460Y-36113420D01*
X55257941Y-36040953D01*
X55068974Y-36040789D01*
X54894329Y-36112951D01*
X54839271Y-36167912D01*
X54778682Y-36107217D01*
X54656746Y-36056584D01*
X54664126Y-36038811D01*
X54664290Y-35849844D01*
X54592128Y-35675199D01*
X54458625Y-35541462D01*
X54299546Y-35475406D01*
X54364115Y-35319908D01*
X54364279Y-35130941D01*
X54331046Y-35050512D01*
X54412067Y-35066628D01*
X54911374Y-35066628D01*
X55026179Y-35043792D01*
X55123506Y-34978760D01*
X56217989Y-33884277D01*
X56283021Y-33786950D01*
X56305857Y-33672145D01*
X56305857Y-33600000D01*
X56925000Y-33600000D01*
X56925000Y-36900000D01*
X56930129Y-36927259D01*
X56946239Y-36952295D01*
X56970821Y-36969091D01*
X57000000Y-36975000D01*
X60400000Y-36975000D01*
X60427259Y-36969871D01*
X60452295Y-36953761D01*
X60469091Y-36929179D01*
X60475000Y-36900000D01*
X60475000Y-33600000D01*
X60469871Y-33572741D01*
X60453761Y-33547705D01*
X60429179Y-33530909D01*
X60400000Y-33525000D01*
X57000000Y-33525000D01*
X56972741Y-33530129D01*
X56947705Y-33546239D01*
X56930909Y-33570821D01*
X56925000Y-33600000D01*
X56305857Y-33600000D01*
X56305857Y-33004356D01*
X57434918Y-33004356D01*
X57507080Y-33179001D01*
X57640583Y-33312738D01*
X57815102Y-33385205D01*
X58004069Y-33385369D01*
X58178714Y-33313207D01*
X58312451Y-33179704D01*
X58384918Y-33005185D01*
X58385082Y-32816218D01*
X58312920Y-32641573D01*
X58179417Y-32507836D01*
X58004898Y-32435369D01*
X57815931Y-32435205D01*
X57641286Y-32507367D01*
X57507549Y-32640870D01*
X57435082Y-32815389D01*
X57434918Y-33004356D01*
X56305857Y-33004356D01*
X56305857Y-30586493D01*
X56283021Y-30471688D01*
X56217989Y-30374361D01*
X55866644Y-30023016D01*
X55972085Y-29979448D01*
X55982492Y-29969059D01*
X56164971Y-29969059D01*
X56237133Y-30143704D01*
X56370636Y-30277441D01*
X56545155Y-30349908D01*
X56734122Y-30350072D01*
X56908767Y-30277910D01*
X57008527Y-30178325D01*
X57008527Y-30900000D01*
X57013656Y-30927259D01*
X57029766Y-30952295D01*
X57054348Y-30969091D01*
X57083527Y-30975000D01*
X60283527Y-30975000D01*
X60310786Y-30969871D01*
X60335822Y-30953761D01*
X60352618Y-30929179D01*
X60358527Y-30900000D01*
X60358527Y-27700000D01*
X60353398Y-27672741D01*
X60337288Y-27647705D01*
X60312706Y-27630909D01*
X60283527Y-27625000D01*
X57083527Y-27625000D01*
X57056268Y-27630129D01*
X57031232Y-27646239D01*
X57014436Y-27670821D01*
X57008527Y-27700000D01*
X57008527Y-29571770D01*
X56909470Y-29472539D01*
X56734951Y-29400072D01*
X56545984Y-29399908D01*
X56371339Y-29472070D01*
X56237602Y-29605573D01*
X56165135Y-29780092D01*
X56164971Y-29969059D01*
X55982492Y-29969059D01*
X56105822Y-29845945D01*
X56178289Y-29671426D01*
X56178453Y-29482459D01*
X56106291Y-29307814D01*
X55972788Y-29174077D01*
X55838598Y-29118356D01*
X56217641Y-28739313D01*
X56282673Y-28641986D01*
X56305509Y-28527181D01*
X56305509Y-26869079D01*
X56624929Y-26869079D01*
X56697091Y-27043724D01*
X56830594Y-27177461D01*
X57005113Y-27249928D01*
X57194080Y-27250092D01*
X57368725Y-27177930D01*
X57502462Y-27044427D01*
X57574929Y-26869908D01*
X57575093Y-26680941D01*
X57502931Y-26506296D01*
X57369428Y-26372559D01*
X57194909Y-26300092D01*
X57005942Y-26299928D01*
X56831297Y-26372090D01*
X56697560Y-26505593D01*
X56625093Y-26680112D01*
X56624929Y-26869079D01*
X56305509Y-26869079D01*
X56305509Y-26132001D01*
X56282673Y-26017196D01*
X56217641Y-25919869D01*
X53683997Y-23386225D01*
X53753102Y-23414920D01*
X53942069Y-23415084D01*
X54116714Y-23342922D01*
X54250451Y-23209419D01*
X54322918Y-23034900D01*
X54323082Y-22845933D01*
X54250920Y-22671288D01*
X54117417Y-22537551D01*
X53942898Y-22465084D01*
X53753931Y-22464920D01*
X53579286Y-22537082D01*
X53445549Y-22670585D01*
X53373082Y-22845104D01*
X53372918Y-23034071D01*
X53401840Y-23104068D01*
X52354887Y-22057115D01*
X55703959Y-22057115D01*
X58294274Y-24647430D01*
X58294274Y-24647430D01*
G37*
X58294274Y-24647430D02*
X58008389Y-24647430D01*
X57753873Y-24392914D01*
X57753999Y-24248153D01*
X57681837Y-24073508D01*
X57548334Y-23939771D01*
X57373815Y-23867304D01*
X57184848Y-23867140D01*
X57010203Y-23939302D01*
X56949476Y-23999923D01*
X56889429Y-23939771D01*
X56714910Y-23867304D01*
X56525943Y-23867140D01*
X56351298Y-23939302D01*
X56217561Y-24072805D01*
X56145094Y-24247324D01*
X56144930Y-24436291D01*
X56217092Y-24610936D01*
X56350595Y-24744673D01*
X56525114Y-24817140D01*
X56714081Y-24817304D01*
X56888726Y-24745142D01*
X56949453Y-24684521D01*
X57009500Y-24744673D01*
X57184019Y-24817140D01*
X57329697Y-24817266D01*
X57671993Y-25159562D01*
X57769320Y-25224594D01*
X57884125Y-25247430D01*
X58620370Y-25247430D01*
X59714390Y-26341450D01*
X59617699Y-26437972D01*
X59545232Y-26612491D01*
X59545068Y-26801458D01*
X59617230Y-26976103D01*
X59750733Y-27109840D01*
X59925252Y-27182307D01*
X60114219Y-27182471D01*
X60288864Y-27110309D01*
X60422601Y-26976806D01*
X60495068Y-26802287D01*
X60495166Y-26689014D01*
X60505986Y-26699834D01*
X60505860Y-26844595D01*
X60578022Y-27019240D01*
X60711525Y-27152977D01*
X60886044Y-27225444D01*
X61075011Y-27225608D01*
X61249656Y-27153446D01*
X61383393Y-27019943D01*
X61455860Y-26845424D01*
X61456024Y-26656457D01*
X61383862Y-26481812D01*
X61250359Y-26348075D01*
X61075840Y-26275608D01*
X60930162Y-26275482D01*
X60435049Y-25780369D01*
X60543714Y-25735470D01*
X60677451Y-25601967D01*
X60694688Y-25560456D01*
X60694688Y-25633513D01*
X60717524Y-25748318D01*
X60782556Y-25845645D01*
X61837104Y-26900193D01*
X61837104Y-27462282D01*
X60950678Y-28348708D01*
X60805917Y-28348582D01*
X60631272Y-28420744D01*
X60497535Y-28554247D01*
X60425068Y-28728766D01*
X60424904Y-28917733D01*
X60497066Y-29092378D01*
X60630569Y-29226115D01*
X60805088Y-29298582D01*
X60994055Y-29298746D01*
X61168000Y-29226873D01*
X61168000Y-31300998D01*
X61186047Y-31391728D01*
X61105945Y-31391658D01*
X60931300Y-31463820D01*
X60797563Y-31597323D01*
X60725096Y-31771842D01*
X60724932Y-31960809D01*
X60797094Y-32135454D01*
X60930597Y-32269191D01*
X61105116Y-32341658D01*
X61294083Y-32341822D01*
X61468728Y-32269660D01*
X61500503Y-32237940D01*
X61620340Y-32357777D01*
X61525186Y-32397094D01*
X61391449Y-32530597D01*
X61318982Y-32705116D01*
X61318818Y-32894083D01*
X61390980Y-33068728D01*
X61524483Y-33202465D01*
X61699002Y-33274932D01*
X61887969Y-33275096D01*
X62062614Y-33202934D01*
X62100000Y-33165613D01*
X62100000Y-36634866D01*
X61451194Y-37283672D01*
X61386162Y-37380999D01*
X61363326Y-37495804D01*
X61363326Y-39556501D01*
X60612980Y-38806155D01*
X60515653Y-38741123D01*
X60423477Y-38722788D01*
X60316712Y-38615836D01*
X60142193Y-38543369D01*
X59986988Y-38543234D01*
X59987132Y-38376978D01*
X59914970Y-38202333D01*
X59781467Y-38068596D01*
X59606948Y-37996129D01*
X59417981Y-37995965D01*
X59243336Y-38068127D01*
X59109599Y-38201630D01*
X59037132Y-38376149D01*
X59036968Y-38565116D01*
X59109130Y-38739761D01*
X59242633Y-38873498D01*
X59417152Y-38945965D01*
X59572357Y-38946100D01*
X59572213Y-39112356D01*
X59644375Y-39287001D01*
X59729484Y-39372259D01*
X59705673Y-39396029D01*
X59633206Y-39570548D01*
X59633042Y-39759515D01*
X59705204Y-39934160D01*
X59838707Y-40067897D01*
X60013226Y-40140364D01*
X60158904Y-40140490D01*
X60763304Y-40744890D01*
X60763304Y-40936038D01*
X60590133Y-40762867D01*
X60492806Y-40697835D01*
X60378001Y-40674999D01*
X60011535Y-40674999D01*
X59896730Y-40697835D01*
X59799403Y-40762867D01*
X57364866Y-43197404D01*
X55057534Y-43197404D01*
X54495483Y-42635353D01*
X54578311Y-42635353D01*
X54680583Y-42737804D01*
X54855102Y-42810271D01*
X55044069Y-42810435D01*
X55218714Y-42738273D01*
X55352451Y-42604770D01*
X55424918Y-42430251D01*
X55425082Y-42241284D01*
X55352920Y-42066639D01*
X55219417Y-41932902D01*
X55044898Y-41860435D01*
X54855931Y-41860271D01*
X54681286Y-41932433D01*
X54578186Y-42035353D01*
X54320653Y-42035353D01*
X52902728Y-40617428D01*
X52902728Y-40393119D01*
X54222176Y-40393119D01*
X54294338Y-40567764D01*
X54427841Y-40701501D01*
X54602360Y-40773968D01*
X54791327Y-40774132D01*
X54965972Y-40701970D01*
X55099709Y-40568467D01*
X55172176Y-40393948D01*
X55172340Y-40204981D01*
X55100178Y-40030336D01*
X54966675Y-39896599D01*
X54792156Y-39824132D01*
X54603189Y-39823968D01*
X54428544Y-39896130D01*
X54294807Y-40029633D01*
X54222340Y-40204152D01*
X54222176Y-40393119D01*
X52902728Y-40393119D01*
X52902728Y-40000823D01*
X53075317Y-40000823D01*
X53147479Y-40175468D01*
X53280982Y-40309205D01*
X53455501Y-40381672D01*
X53644468Y-40381836D01*
X53819113Y-40309674D01*
X53952850Y-40176171D01*
X54025317Y-40001652D01*
X54025454Y-39843571D01*
X54120370Y-39843653D01*
X54295015Y-39771491D01*
X54428752Y-39637988D01*
X54501219Y-39463469D01*
X54501383Y-39274502D01*
X54448797Y-39147234D01*
X57624606Y-39147234D01*
X57696768Y-39321879D01*
X57830271Y-39455616D01*
X58004790Y-39528083D01*
X58193757Y-39528247D01*
X58368402Y-39456085D01*
X58502139Y-39322582D01*
X58574606Y-39148063D01*
X58574770Y-38959096D01*
X58502608Y-38784451D01*
X58369105Y-38650714D01*
X58194586Y-38578247D01*
X58005619Y-38578083D01*
X57830974Y-38650245D01*
X57697237Y-38783748D01*
X57624770Y-38958267D01*
X57624606Y-39147234D01*
X54448797Y-39147234D01*
X54429221Y-39099857D01*
X54295718Y-38966120D01*
X54121199Y-38893653D01*
X53932232Y-38893489D01*
X53757587Y-38965651D01*
X53623850Y-39099154D01*
X53551383Y-39273673D01*
X53551246Y-39431754D01*
X53456330Y-39431672D01*
X53281685Y-39503834D01*
X53147948Y-39637337D01*
X53075481Y-39811856D01*
X53075317Y-40000823D01*
X52902728Y-40000823D01*
X52902728Y-31807255D01*
X54028337Y-30681646D01*
X54028337Y-31114106D01*
X53984077Y-31158366D01*
X53919045Y-31255693D01*
X53900710Y-31347869D01*
X53793758Y-31454634D01*
X53721291Y-31629153D01*
X53721127Y-31818120D01*
X53742061Y-31868783D01*
X53636803Y-31912275D01*
X53503066Y-32045778D01*
X53430599Y-32220297D01*
X53430435Y-32409264D01*
X53502597Y-32583909D01*
X53636100Y-32717646D01*
X53699258Y-32743872D01*
X53668938Y-32774139D01*
X53596471Y-32948658D01*
X53596307Y-33137625D01*
X53668469Y-33312270D01*
X53801972Y-33446007D01*
X53882069Y-33479267D01*
X53836836Y-33524500D01*
X53771804Y-33621827D01*
X53748968Y-33736632D01*
X53748968Y-34403529D01*
X53771804Y-34518334D01*
X53836836Y-34615661D01*
X53971256Y-34750081D01*
X53795128Y-34749928D01*
X53620483Y-34822090D01*
X53486746Y-34955593D01*
X53414279Y-35130112D01*
X53414115Y-35319079D01*
X53486277Y-35493724D01*
X53619780Y-35627461D01*
X53778859Y-35693517D01*
X53714290Y-35849015D01*
X53714126Y-36037982D01*
X53786288Y-36212627D01*
X53919791Y-36346364D01*
X54041727Y-36396997D01*
X54034347Y-36414770D01*
X54034183Y-36603737D01*
X54106345Y-36778382D01*
X54239848Y-36912119D01*
X54414367Y-36984586D01*
X54603334Y-36984750D01*
X54777979Y-36912588D01*
X54833037Y-36857627D01*
X54893626Y-36918322D01*
X55068145Y-36990789D01*
X55257112Y-36990953D01*
X55431757Y-36918791D01*
X55565494Y-36785288D01*
X55637961Y-36610769D01*
X55638125Y-36421802D01*
X55565963Y-36247157D01*
X55432460Y-36113420D01*
X55257941Y-36040953D01*
X55068974Y-36040789D01*
X54894329Y-36112951D01*
X54839271Y-36167912D01*
X54778682Y-36107217D01*
X54656746Y-36056584D01*
X54664126Y-36038811D01*
X54664290Y-35849844D01*
X54592128Y-35675199D01*
X54458625Y-35541462D01*
X54299546Y-35475406D01*
X54364115Y-35319908D01*
X54364279Y-35130941D01*
X54331046Y-35050512D01*
X54412067Y-35066628D01*
X54911374Y-35066628D01*
X55026179Y-35043792D01*
X55123506Y-34978760D01*
X56217989Y-33884277D01*
X56283021Y-33786950D01*
X56305857Y-33672145D01*
X56305857Y-33600000D01*
X56925000Y-33600000D01*
X56925000Y-36900000D01*
X56930129Y-36927259D01*
X56946239Y-36952295D01*
X56970821Y-36969091D01*
X57000000Y-36975000D01*
X60400000Y-36975000D01*
X60427259Y-36969871D01*
X60452295Y-36953761D01*
X60469091Y-36929179D01*
X60475000Y-36900000D01*
X60475000Y-33600000D01*
X60469871Y-33572741D01*
X60453761Y-33547705D01*
X60429179Y-33530909D01*
X60400000Y-33525000D01*
X57000000Y-33525000D01*
X56972741Y-33530129D01*
X56947705Y-33546239D01*
X56930909Y-33570821D01*
X56925000Y-33600000D01*
X56305857Y-33600000D01*
X56305857Y-33004356D01*
X57434918Y-33004356D01*
X57507080Y-33179001D01*
X57640583Y-33312738D01*
X57815102Y-33385205D01*
X58004069Y-33385369D01*
X58178714Y-33313207D01*
X58312451Y-33179704D01*
X58384918Y-33005185D01*
X58385082Y-32816218D01*
X58312920Y-32641573D01*
X58179417Y-32507836D01*
X58004898Y-32435369D01*
X57815931Y-32435205D01*
X57641286Y-32507367D01*
X57507549Y-32640870D01*
X57435082Y-32815389D01*
X57434918Y-33004356D01*
X56305857Y-33004356D01*
X56305857Y-30586493D01*
X56283021Y-30471688D01*
X56217989Y-30374361D01*
X55866644Y-30023016D01*
X55972085Y-29979448D01*
X55982492Y-29969059D01*
X56164971Y-29969059D01*
X56237133Y-30143704D01*
X56370636Y-30277441D01*
X56545155Y-30349908D01*
X56734122Y-30350072D01*
X56908767Y-30277910D01*
X57008527Y-30178325D01*
X57008527Y-30900000D01*
X57013656Y-30927259D01*
X57029766Y-30952295D01*
X57054348Y-30969091D01*
X57083527Y-30975000D01*
X60283527Y-30975000D01*
X60310786Y-30969871D01*
X60335822Y-30953761D01*
X60352618Y-30929179D01*
X60358527Y-30900000D01*
X60358527Y-27700000D01*
X60353398Y-27672741D01*
X60337288Y-27647705D01*
X60312706Y-27630909D01*
X60283527Y-27625000D01*
X57083527Y-27625000D01*
X57056268Y-27630129D01*
X57031232Y-27646239D01*
X57014436Y-27670821D01*
X57008527Y-27700000D01*
X57008527Y-29571770D01*
X56909470Y-29472539D01*
X56734951Y-29400072D01*
X56545984Y-29399908D01*
X56371339Y-29472070D01*
X56237602Y-29605573D01*
X56165135Y-29780092D01*
X56164971Y-29969059D01*
X55982492Y-29969059D01*
X56105822Y-29845945D01*
X56178289Y-29671426D01*
X56178453Y-29482459D01*
X56106291Y-29307814D01*
X55972788Y-29174077D01*
X55838598Y-29118356D01*
X56217641Y-28739313D01*
X56282673Y-28641986D01*
X56305509Y-28527181D01*
X56305509Y-26869079D01*
X56624929Y-26869079D01*
X56697091Y-27043724D01*
X56830594Y-27177461D01*
X57005113Y-27249928D01*
X57194080Y-27250092D01*
X57368725Y-27177930D01*
X57502462Y-27044427D01*
X57574929Y-26869908D01*
X57575093Y-26680941D01*
X57502931Y-26506296D01*
X57369428Y-26372559D01*
X57194909Y-26300092D01*
X57005942Y-26299928D01*
X56831297Y-26372090D01*
X56697560Y-26505593D01*
X56625093Y-26680112D01*
X56624929Y-26869079D01*
X56305509Y-26869079D01*
X56305509Y-26132001D01*
X56282673Y-26017196D01*
X56217641Y-25919869D01*
X53683997Y-23386225D01*
X53753102Y-23414920D01*
X53942069Y-23415084D01*
X54116714Y-23342922D01*
X54250451Y-23209419D01*
X54322918Y-23034900D01*
X54323082Y-22845933D01*
X54250920Y-22671288D01*
X54117417Y-22537551D01*
X53942898Y-22465084D01*
X53753931Y-22464920D01*
X53579286Y-22537082D01*
X53445549Y-22670585D01*
X53373082Y-22845104D01*
X53372918Y-23034071D01*
X53401840Y-23104068D01*
X52354887Y-22057115D01*
X55703959Y-22057115D01*
X58294274Y-24647430D01*
G36*
X64626571Y-35508373D02*
X64577452Y-35459254D01*
X64494755Y-35425000D01*
X63681250Y-35425000D01*
X63625000Y-35481250D01*
X63625000Y-36475000D01*
X63645000Y-36475000D01*
X63645000Y-36525000D01*
X63625000Y-36525000D01*
X63625000Y-37518750D01*
X63681250Y-37575000D01*
X64494755Y-37575000D01*
X64577452Y-37540746D01*
X64626571Y-37491627D01*
X64626571Y-38690657D01*
X64614230Y-38628615D01*
X64381200Y-38279860D01*
X64032445Y-38046830D01*
X63621060Y-37965000D01*
X63578940Y-37965000D01*
X63167555Y-38046830D01*
X62818800Y-38279860D01*
X62585770Y-38628615D01*
X62503940Y-39040000D01*
X62585770Y-39451385D01*
X62818800Y-39800140D01*
X63108367Y-39993622D01*
X62899715Y-39993622D01*
X62784910Y-40016458D01*
X62687583Y-40081490D01*
X61963326Y-40805747D01*
X61963326Y-38200158D01*
X62071020Y-38308041D01*
X62245539Y-38380508D01*
X62434506Y-38380672D01*
X62609151Y-38308510D01*
X62742888Y-38175007D01*
X62815355Y-38000488D01*
X62815519Y-37811521D01*
X62743357Y-37636876D01*
X62664912Y-37558294D01*
X62705245Y-37575000D01*
X63518750Y-37575000D01*
X63575000Y-37518750D01*
X63575000Y-36525000D01*
X63555000Y-36525000D01*
X63555000Y-36475000D01*
X63575000Y-36475000D01*
X63575000Y-35481250D01*
X63518750Y-35425000D01*
X62705245Y-35425000D01*
X62700000Y-35427173D01*
X62700000Y-34541952D01*
X62859860Y-34781200D01*
X63208615Y-35014230D01*
X63620000Y-35096060D01*
X64031385Y-35014230D01*
X64380140Y-34781200D01*
X64613170Y-34432445D01*
X64626571Y-34365074D01*
X64626571Y-35508373D01*
X64626571Y-35508373D01*
G37*
X64626571Y-35508373D02*
X64577452Y-35459254D01*
X64494755Y-35425000D01*
X63681250Y-35425000D01*
X63625000Y-35481250D01*
X63625000Y-36475000D01*
X63645000Y-36475000D01*
X63645000Y-36525000D01*
X63625000Y-36525000D01*
X63625000Y-37518750D01*
X63681250Y-37575000D01*
X64494755Y-37575000D01*
X64577452Y-37540746D01*
X64626571Y-37491627D01*
X64626571Y-38690657D01*
X64614230Y-38628615D01*
X64381200Y-38279860D01*
X64032445Y-38046830D01*
X63621060Y-37965000D01*
X63578940Y-37965000D01*
X63167555Y-38046830D01*
X62818800Y-38279860D01*
X62585770Y-38628615D01*
X62503940Y-39040000D01*
X62585770Y-39451385D01*
X62818800Y-39800140D01*
X63108367Y-39993622D01*
X62899715Y-39993622D01*
X62784910Y-40016458D01*
X62687583Y-40081490D01*
X61963326Y-40805747D01*
X61963326Y-38200158D01*
X62071020Y-38308041D01*
X62245539Y-38380508D01*
X62434506Y-38380672D01*
X62609151Y-38308510D01*
X62742888Y-38175007D01*
X62815355Y-38000488D01*
X62815519Y-37811521D01*
X62743357Y-37636876D01*
X62664912Y-37558294D01*
X62705245Y-37575000D01*
X63518750Y-37575000D01*
X63575000Y-37518750D01*
X63575000Y-36525000D01*
X63555000Y-36525000D01*
X63555000Y-36475000D01*
X63575000Y-36475000D01*
X63575000Y-35481250D01*
X63518750Y-35425000D01*
X62705245Y-35425000D01*
X62700000Y-35427173D01*
X62700000Y-34541952D01*
X62859860Y-34781200D01*
X63208615Y-35014230D01*
X63620000Y-35096060D01*
X64031385Y-35014230D01*
X64380140Y-34781200D01*
X64613170Y-34432445D01*
X64626571Y-34365074D01*
X64626571Y-35508373D01*
G36*
X65399860Y-34781200D02*
X65748615Y-35014230D01*
X66160000Y-35096060D01*
X66571385Y-35014230D01*
X66920140Y-34781200D01*
X66935001Y-34758959D01*
X66935001Y-35792497D01*
X66732851Y-35596719D01*
X66342814Y-35442430D01*
X66175000Y-35481538D01*
X66175000Y-36475000D01*
X66195000Y-36475000D01*
X66195000Y-36525000D01*
X66175000Y-36525000D01*
X66175000Y-37518462D01*
X66342814Y-37557570D01*
X66732851Y-37403281D01*
X66935001Y-37207503D01*
X66935001Y-38285549D01*
X66931200Y-38279860D01*
X66582445Y-38046830D01*
X66171060Y-37965000D01*
X66128940Y-37965000D01*
X65717555Y-38046830D01*
X65368800Y-38279860D01*
X65226571Y-38492721D01*
X65226571Y-37020794D01*
X65265845Y-37111475D01*
X65567149Y-37403281D01*
X65957186Y-37557570D01*
X66125000Y-37518462D01*
X66125000Y-36525000D01*
X66105000Y-36525000D01*
X66105000Y-36475000D01*
X66125000Y-36475000D01*
X66125000Y-35481538D01*
X65957186Y-35442430D01*
X65567149Y-35596719D01*
X65265845Y-35888525D01*
X65226571Y-35979206D01*
X65226571Y-34521854D01*
X65399860Y-34781200D01*
X65399860Y-34781200D01*
G37*
X65399860Y-34781200D02*
X65748615Y-35014230D01*
X66160000Y-35096060D01*
X66571385Y-35014230D01*
X66920140Y-34781200D01*
X66935001Y-34758959D01*
X66935001Y-35792497D01*
X66732851Y-35596719D01*
X66342814Y-35442430D01*
X66175000Y-35481538D01*
X66175000Y-36475000D01*
X66195000Y-36475000D01*
X66195000Y-36525000D01*
X66175000Y-36525000D01*
X66175000Y-37518462D01*
X66342814Y-37557570D01*
X66732851Y-37403281D01*
X66935001Y-37207503D01*
X66935001Y-38285549D01*
X66931200Y-38279860D01*
X66582445Y-38046830D01*
X66171060Y-37965000D01*
X66128940Y-37965000D01*
X65717555Y-38046830D01*
X65368800Y-38279860D01*
X65226571Y-38492721D01*
X65226571Y-37020794D01*
X65265845Y-37111475D01*
X65567149Y-37403281D01*
X65957186Y-37557570D01*
X66125000Y-37518462D01*
X66125000Y-36525000D01*
X66105000Y-36525000D01*
X66105000Y-36475000D01*
X66125000Y-36475000D01*
X66125000Y-35481538D01*
X65957186Y-35442430D01*
X65567149Y-35596719D01*
X65265845Y-35888525D01*
X65226571Y-35979206D01*
X65226571Y-34521854D01*
X65399860Y-34781200D01*
G36*
X67850000Y-35079408D02*
X69475001Y-35079408D01*
X69475001Y-35425000D01*
X68781250Y-35425000D01*
X68725000Y-35481250D01*
X68725000Y-36475000D01*
X68745000Y-36475000D01*
X68745000Y-36525000D01*
X68725000Y-36525000D01*
X68725000Y-37518750D01*
X68781250Y-37575000D01*
X69475001Y-37575000D01*
X69475001Y-38275718D01*
X69132445Y-38046830D01*
X68721060Y-37965000D01*
X68678940Y-37965000D01*
X68267555Y-38046830D01*
X67918800Y-38279860D01*
X67835010Y-38405261D01*
X67835010Y-37575000D01*
X68618750Y-37575000D01*
X68675000Y-37518750D01*
X68675000Y-36525000D01*
X68655000Y-36525000D01*
X68655000Y-36475000D01*
X68675000Y-36475000D01*
X68675000Y-35481250D01*
X68618750Y-35425000D01*
X67835010Y-35425000D01*
X67835010Y-35076372D01*
X67850000Y-35079408D01*
X67850000Y-35079408D01*
G37*
X67850000Y-35079408D02*
X69475001Y-35079408D01*
X69475001Y-35425000D01*
X68781250Y-35425000D01*
X68725000Y-35481250D01*
X68725000Y-36475000D01*
X68745000Y-36475000D01*
X68745000Y-36525000D01*
X68725000Y-36525000D01*
X68725000Y-37518750D01*
X68781250Y-37575000D01*
X69475001Y-37575000D01*
X69475001Y-38275718D01*
X69132445Y-38046830D01*
X68721060Y-37965000D01*
X68678940Y-37965000D01*
X68267555Y-38046830D01*
X67918800Y-38279860D01*
X67835010Y-38405261D01*
X67835010Y-37575000D01*
X68618750Y-37575000D01*
X68675000Y-37518750D01*
X68675000Y-36525000D01*
X68655000Y-36525000D01*
X68655000Y-36475000D01*
X68675000Y-36475000D01*
X68675000Y-35481250D01*
X68618750Y-35425000D01*
X67835010Y-35425000D01*
X67835010Y-35076372D01*
X67850000Y-35079408D01*
G36*
X34688003Y-24825056D02*
X34543242Y-24824930D01*
X34368597Y-24897092D01*
X34234860Y-25030595D01*
X34162393Y-25205114D01*
X34162229Y-25394081D01*
X34234391Y-25568726D01*
X34367894Y-25702463D01*
X34542413Y-25774930D01*
X34731380Y-25775094D01*
X34906025Y-25702932D01*
X35039762Y-25569429D01*
X35112229Y-25394910D01*
X35112355Y-25249232D01*
X35418631Y-24942956D01*
X46358126Y-24942956D01*
X46324860Y-25023068D01*
X46324696Y-25212035D01*
X46396858Y-25386680D01*
X46530361Y-25520417D01*
X46704880Y-25592884D01*
X46893847Y-25593048D01*
X47068492Y-25520886D01*
X47202229Y-25387383D01*
X47274696Y-25212864D01*
X47274860Y-25023897D01*
X47241416Y-24942956D01*
X47800406Y-24942956D01*
X47672541Y-25070597D01*
X47600074Y-25245116D01*
X47599942Y-25397754D01*
X47430768Y-25467655D01*
X47297031Y-25601158D01*
X47224564Y-25775677D01*
X47224438Y-25921355D01*
X46121202Y-27024591D01*
X46056170Y-27121918D01*
X46033334Y-27236723D01*
X46033334Y-30579835D01*
X45965381Y-30415377D01*
X45831878Y-30281640D01*
X45657359Y-30209173D01*
X45468392Y-30209009D01*
X45293747Y-30281171D01*
X45160010Y-30414674D01*
X45087543Y-30589193D01*
X45087417Y-30734871D01*
X44517889Y-31304399D01*
X42996466Y-31304399D01*
X43002451Y-31298424D01*
X43074918Y-31123905D01*
X43075082Y-30934938D01*
X43002920Y-30760293D01*
X42946745Y-30704020D01*
X43002451Y-30648411D01*
X43074918Y-30473892D01*
X43075082Y-30284925D01*
X43002920Y-30110280D01*
X42869417Y-29976543D01*
X42694898Y-29904076D01*
X42505931Y-29903912D01*
X42331286Y-29976074D01*
X42197549Y-30109577D01*
X42125082Y-30284096D01*
X42124918Y-30473063D01*
X42197080Y-30647708D01*
X42253255Y-30703981D01*
X42197549Y-30759590D01*
X42125082Y-30934109D01*
X42124918Y-31123076D01*
X42197080Y-31297721D01*
X42203746Y-31304399D01*
X42190407Y-31304399D01*
X42075602Y-31327235D01*
X41978275Y-31392267D01*
X41577598Y-31792944D01*
X41577598Y-31562269D01*
X41799670Y-31340197D01*
X41864702Y-31242870D01*
X41887538Y-31128065D01*
X41887538Y-29450094D01*
X41902909Y-29465492D01*
X42077428Y-29537959D01*
X42266395Y-29538123D01*
X42441040Y-29465961D01*
X42574777Y-29332458D01*
X42647244Y-29157939D01*
X42647408Y-28968972D01*
X42575246Y-28794327D01*
X42569987Y-28789059D01*
X42592124Y-28766961D01*
X42664591Y-28592442D01*
X42664755Y-28403475D01*
X42592593Y-28228830D01*
X42466597Y-28102613D01*
X42507610Y-28061672D01*
X42580077Y-27887153D01*
X42580178Y-27770217D01*
X44427943Y-27770217D01*
X44500105Y-27944862D01*
X44633608Y-28078599D01*
X44808127Y-28151066D01*
X44997094Y-28151230D01*
X45171739Y-28079068D01*
X45305476Y-27945565D01*
X45338434Y-27866195D01*
X45405092Y-27893874D01*
X45594059Y-27894038D01*
X45768704Y-27821876D01*
X45902441Y-27688373D01*
X45974908Y-27513854D01*
X45975072Y-27324887D01*
X45902910Y-27150242D01*
X45769407Y-27016505D01*
X45621635Y-26955144D01*
X45621799Y-26766471D01*
X45549637Y-26591826D01*
X45416134Y-26458089D01*
X45241615Y-26385622D01*
X45052648Y-26385458D01*
X44878003Y-26457620D01*
X44744266Y-26591123D01*
X44671799Y-26765642D01*
X44671635Y-26954609D01*
X44743797Y-27129254D01*
X44815489Y-27201072D01*
X44808956Y-27201066D01*
X44634311Y-27273228D01*
X44500574Y-27406731D01*
X44428107Y-27581250D01*
X44427943Y-27770217D01*
X42580178Y-27770217D01*
X42580241Y-27698186D01*
X42508079Y-27523541D01*
X42374576Y-27389804D01*
X42200057Y-27317337D01*
X42011090Y-27317173D01*
X41836445Y-27389335D01*
X41702708Y-27522838D01*
X41667076Y-27608650D01*
X41556169Y-27497549D01*
X41381650Y-27425082D01*
X41192683Y-27424918D01*
X41018038Y-27497080D01*
X40884301Y-27630583D01*
X40811834Y-27805102D01*
X40811670Y-27994069D01*
X40883832Y-28168714D01*
X40986752Y-28271814D01*
X40986752Y-29494476D01*
X40936253Y-29443888D01*
X40761734Y-29371421D01*
X40572767Y-29371257D01*
X40475000Y-29411654D01*
X40475000Y-28371689D01*
X40577451Y-28269417D01*
X40649918Y-28094898D01*
X40650082Y-27905931D01*
X40577920Y-27731286D01*
X40444417Y-27597549D01*
X40269898Y-27525082D01*
X40080931Y-27524918D01*
X39906286Y-27597080D01*
X39772549Y-27730583D01*
X39700082Y-27905102D01*
X39699918Y-28094069D01*
X39772080Y-28268714D01*
X39875000Y-28371814D01*
X39875000Y-29569454D01*
X39776197Y-29528427D01*
X39587230Y-29528263D01*
X39412585Y-29600425D01*
X39278848Y-29733928D01*
X39221090Y-29873023D01*
X39177309Y-29767064D01*
X39043806Y-29633327D01*
X38869287Y-29560860D01*
X38680320Y-29560696D01*
X38505675Y-29632858D01*
X38496110Y-29642406D01*
X38496110Y-29088318D01*
X39109472Y-28474956D01*
X39254233Y-28475082D01*
X39428878Y-28402920D01*
X39562615Y-28269417D01*
X39635082Y-28094898D01*
X39635246Y-27905931D01*
X39563084Y-27731286D01*
X39429581Y-27597549D01*
X39255062Y-27525082D01*
X39066095Y-27524918D01*
X38891450Y-27597080D01*
X38757713Y-27730583D01*
X38685246Y-27905102D01*
X38685120Y-28050780D01*
X37983978Y-28751922D01*
X37918946Y-28849249D01*
X37896110Y-28964054D01*
X37896110Y-29546683D01*
X37815998Y-29513417D01*
X37627031Y-29513253D01*
X37452386Y-29585415D01*
X37388503Y-29649187D01*
X37340688Y-29601288D01*
X37166169Y-29528821D01*
X36977202Y-29528657D01*
X36802557Y-29600819D01*
X36668820Y-29734322D01*
X36596353Y-29908841D01*
X36596189Y-30097808D01*
X36668351Y-30272453D01*
X36801854Y-30406190D01*
X36976373Y-30478657D01*
X37165340Y-30478821D01*
X37339985Y-30406659D01*
X37403868Y-30342887D01*
X37451683Y-30390786D01*
X37626202Y-30463253D01*
X37815169Y-30463417D01*
X37896110Y-30429973D01*
X37896110Y-31991989D01*
X37877164Y-31896740D01*
X37812132Y-31799413D01*
X35745002Y-29732283D01*
X35647675Y-29667251D01*
X35532870Y-29644415D01*
X30905004Y-29644415D01*
X30802732Y-29541964D01*
X30628213Y-29469497D01*
X30439246Y-29469333D01*
X30264601Y-29541495D01*
X30130864Y-29674998D01*
X30058397Y-29849517D01*
X30058233Y-30038484D01*
X30130395Y-30213129D01*
X30263898Y-30346866D01*
X30438417Y-30419333D01*
X30627384Y-30419497D01*
X30802029Y-30347335D01*
X30905129Y-30244415D01*
X35408606Y-30244415D01*
X36250583Y-31086392D01*
X36148310Y-31128651D01*
X36014573Y-31262154D01*
X35942106Y-31436673D01*
X35941942Y-31625640D01*
X36014104Y-31800285D01*
X36020990Y-31807183D01*
X35997549Y-31830583D01*
X35925082Y-32005102D01*
X35924918Y-32194069D01*
X35997080Y-32368714D01*
X36130583Y-32502451D01*
X36305102Y-32574918D01*
X36494069Y-32575082D01*
X36668714Y-32502920D01*
X36802451Y-32369417D01*
X36874918Y-32194898D01*
X36875082Y-32005931D01*
X36802920Y-31831286D01*
X36796034Y-31824388D01*
X36819475Y-31800988D01*
X36862225Y-31698034D01*
X37300000Y-32135809D01*
X37300000Y-35148906D01*
X36975290Y-35473617D01*
X36634908Y-35133235D01*
X36537581Y-35068203D01*
X36422776Y-35045367D01*
X35855098Y-35045367D01*
X35740293Y-35068203D01*
X35642966Y-35133235D01*
X35421438Y-35354763D01*
X35421438Y-33133013D01*
X35411491Y-33083007D01*
X35958775Y-33630291D01*
X35816497Y-33630168D01*
X35641852Y-33702330D01*
X35508115Y-33835833D01*
X35435648Y-34010352D01*
X35435484Y-34199319D01*
X35507646Y-34373964D01*
X35641149Y-34507701D01*
X35815668Y-34580168D01*
X36004635Y-34580332D01*
X36179280Y-34508170D01*
X36207517Y-34479982D01*
X36326108Y-34598781D01*
X36500627Y-34671248D01*
X36689594Y-34671412D01*
X36864239Y-34599250D01*
X36997976Y-34465747D01*
X37070443Y-34291228D01*
X37070607Y-34102261D01*
X36998445Y-33927616D01*
X36890989Y-33819971D01*
X36872689Y-33727972D01*
X36807657Y-33630645D01*
X34091978Y-30914966D01*
X33994651Y-30849934D01*
X33879846Y-30827098D01*
X30489362Y-30827098D01*
X28449981Y-28787717D01*
X28449981Y-27952109D01*
X36544384Y-27952109D01*
X36616546Y-28126754D01*
X36750049Y-28260491D01*
X36924568Y-28332958D01*
X37113535Y-28333122D01*
X37288180Y-28260960D01*
X37421917Y-28127457D01*
X37494384Y-27952938D01*
X37494548Y-27763971D01*
X37422386Y-27589326D01*
X37288883Y-27455589D01*
X37114364Y-27383122D01*
X36925397Y-27382958D01*
X36750752Y-27455120D01*
X36617015Y-27588623D01*
X36544548Y-27763142D01*
X36544384Y-27952109D01*
X28449981Y-27952109D01*
X28449981Y-25990582D01*
X28906331Y-26446932D01*
X28906205Y-26591693D01*
X28978367Y-26766338D01*
X29044205Y-26832291D01*
X28998495Y-26877921D01*
X28926028Y-27052440D01*
X28925864Y-27241407D01*
X28998026Y-27416052D01*
X29131529Y-27549789D01*
X29306048Y-27622256D01*
X29495015Y-27622420D01*
X29669660Y-27550258D01*
X29777305Y-27442802D01*
X29869304Y-27424502D01*
X29966631Y-27359470D01*
X30312132Y-27013969D01*
X30377164Y-26916642D01*
X30400000Y-26801837D01*
X30400000Y-26666313D01*
X30807685Y-26666313D01*
X30879847Y-26840958D01*
X30935520Y-26896729D01*
X30884424Y-26947736D01*
X30811957Y-27122255D01*
X30811793Y-27311222D01*
X30883955Y-27485867D01*
X31017458Y-27619604D01*
X31191977Y-27692071D01*
X31380944Y-27692235D01*
X31555589Y-27620073D01*
X31556877Y-27618788D01*
X31716432Y-27685041D01*
X31905399Y-27685205D01*
X32080044Y-27613043D01*
X32213781Y-27479540D01*
X32286248Y-27305021D01*
X32286412Y-27116054D01*
X32214250Y-26941409D01*
X32152733Y-26879784D01*
X32213781Y-26818842D01*
X32286248Y-26644323D01*
X32286412Y-26455356D01*
X32214250Y-26280711D01*
X32080747Y-26146974D01*
X31906228Y-26074507D01*
X31717261Y-26074343D01*
X31542616Y-26146505D01*
X31528951Y-26160146D01*
X31377665Y-26097326D01*
X31188698Y-26097162D01*
X31014053Y-26169324D01*
X30880316Y-26302827D01*
X30807849Y-26477346D01*
X30807685Y-26666313D01*
X30400000Y-26666313D01*
X30400000Y-25923433D01*
X31102698Y-25220735D01*
X31137146Y-25304105D01*
X31270649Y-25437842D01*
X31445168Y-25510309D01*
X31634135Y-25510473D01*
X31808780Y-25438311D01*
X31911880Y-25335391D01*
X33285960Y-25335391D01*
X33400765Y-25312555D01*
X33498092Y-25247523D01*
X34102670Y-24642945D01*
X34870114Y-24642945D01*
X34688003Y-24825056D01*
X34688003Y-24825056D01*
G37*
X34688003Y-24825056D02*
X34543242Y-24824930D01*
X34368597Y-24897092D01*
X34234860Y-25030595D01*
X34162393Y-25205114D01*
X34162229Y-25394081D01*
X34234391Y-25568726D01*
X34367894Y-25702463D01*
X34542413Y-25774930D01*
X34731380Y-25775094D01*
X34906025Y-25702932D01*
X35039762Y-25569429D01*
X35112229Y-25394910D01*
X35112355Y-25249232D01*
X35418631Y-24942956D01*
X46358126Y-24942956D01*
X46324860Y-25023068D01*
X46324696Y-25212035D01*
X46396858Y-25386680D01*
X46530361Y-25520417D01*
X46704880Y-25592884D01*
X46893847Y-25593048D01*
X47068492Y-25520886D01*
X47202229Y-25387383D01*
X47274696Y-25212864D01*
X47274860Y-25023897D01*
X47241416Y-24942956D01*
X47800406Y-24942956D01*
X47672541Y-25070597D01*
X47600074Y-25245116D01*
X47599942Y-25397754D01*
X47430768Y-25467655D01*
X47297031Y-25601158D01*
X47224564Y-25775677D01*
X47224438Y-25921355D01*
X46121202Y-27024591D01*
X46056170Y-27121918D01*
X46033334Y-27236723D01*
X46033334Y-30579835D01*
X45965381Y-30415377D01*
X45831878Y-30281640D01*
X45657359Y-30209173D01*
X45468392Y-30209009D01*
X45293747Y-30281171D01*
X45160010Y-30414674D01*
X45087543Y-30589193D01*
X45087417Y-30734871D01*
X44517889Y-31304399D01*
X42996466Y-31304399D01*
X43002451Y-31298424D01*
X43074918Y-31123905D01*
X43075082Y-30934938D01*
X43002920Y-30760293D01*
X42946745Y-30704020D01*
X43002451Y-30648411D01*
X43074918Y-30473892D01*
X43075082Y-30284925D01*
X43002920Y-30110280D01*
X42869417Y-29976543D01*
X42694898Y-29904076D01*
X42505931Y-29903912D01*
X42331286Y-29976074D01*
X42197549Y-30109577D01*
X42125082Y-30284096D01*
X42124918Y-30473063D01*
X42197080Y-30647708D01*
X42253255Y-30703981D01*
X42197549Y-30759590D01*
X42125082Y-30934109D01*
X42124918Y-31123076D01*
X42197080Y-31297721D01*
X42203746Y-31304399D01*
X42190407Y-31304399D01*
X42075602Y-31327235D01*
X41978275Y-31392267D01*
X41577598Y-31792944D01*
X41577598Y-31562269D01*
X41799670Y-31340197D01*
X41864702Y-31242870D01*
X41887538Y-31128065D01*
X41887538Y-29450094D01*
X41902909Y-29465492D01*
X42077428Y-29537959D01*
X42266395Y-29538123D01*
X42441040Y-29465961D01*
X42574777Y-29332458D01*
X42647244Y-29157939D01*
X42647408Y-28968972D01*
X42575246Y-28794327D01*
X42569987Y-28789059D01*
X42592124Y-28766961D01*
X42664591Y-28592442D01*
X42664755Y-28403475D01*
X42592593Y-28228830D01*
X42466597Y-28102613D01*
X42507610Y-28061672D01*
X42580077Y-27887153D01*
X42580178Y-27770217D01*
X44427943Y-27770217D01*
X44500105Y-27944862D01*
X44633608Y-28078599D01*
X44808127Y-28151066D01*
X44997094Y-28151230D01*
X45171739Y-28079068D01*
X45305476Y-27945565D01*
X45338434Y-27866195D01*
X45405092Y-27893874D01*
X45594059Y-27894038D01*
X45768704Y-27821876D01*
X45902441Y-27688373D01*
X45974908Y-27513854D01*
X45975072Y-27324887D01*
X45902910Y-27150242D01*
X45769407Y-27016505D01*
X45621635Y-26955144D01*
X45621799Y-26766471D01*
X45549637Y-26591826D01*
X45416134Y-26458089D01*
X45241615Y-26385622D01*
X45052648Y-26385458D01*
X44878003Y-26457620D01*
X44744266Y-26591123D01*
X44671799Y-26765642D01*
X44671635Y-26954609D01*
X44743797Y-27129254D01*
X44815489Y-27201072D01*
X44808956Y-27201066D01*
X44634311Y-27273228D01*
X44500574Y-27406731D01*
X44428107Y-27581250D01*
X44427943Y-27770217D01*
X42580178Y-27770217D01*
X42580241Y-27698186D01*
X42508079Y-27523541D01*
X42374576Y-27389804D01*
X42200057Y-27317337D01*
X42011090Y-27317173D01*
X41836445Y-27389335D01*
X41702708Y-27522838D01*
X41667076Y-27608650D01*
X41556169Y-27497549D01*
X41381650Y-27425082D01*
X41192683Y-27424918D01*
X41018038Y-27497080D01*
X40884301Y-27630583D01*
X40811834Y-27805102D01*
X40811670Y-27994069D01*
X40883832Y-28168714D01*
X40986752Y-28271814D01*
X40986752Y-29494476D01*
X40936253Y-29443888D01*
X40761734Y-29371421D01*
X40572767Y-29371257D01*
X40475000Y-29411654D01*
X40475000Y-28371689D01*
X40577451Y-28269417D01*
X40649918Y-28094898D01*
X40650082Y-27905931D01*
X40577920Y-27731286D01*
X40444417Y-27597549D01*
X40269898Y-27525082D01*
X40080931Y-27524918D01*
X39906286Y-27597080D01*
X39772549Y-27730583D01*
X39700082Y-27905102D01*
X39699918Y-28094069D01*
X39772080Y-28268714D01*
X39875000Y-28371814D01*
X39875000Y-29569454D01*
X39776197Y-29528427D01*
X39587230Y-29528263D01*
X39412585Y-29600425D01*
X39278848Y-29733928D01*
X39221090Y-29873023D01*
X39177309Y-29767064D01*
X39043806Y-29633327D01*
X38869287Y-29560860D01*
X38680320Y-29560696D01*
X38505675Y-29632858D01*
X38496110Y-29642406D01*
X38496110Y-29088318D01*
X39109472Y-28474956D01*
X39254233Y-28475082D01*
X39428878Y-28402920D01*
X39562615Y-28269417D01*
X39635082Y-28094898D01*
X39635246Y-27905931D01*
X39563084Y-27731286D01*
X39429581Y-27597549D01*
X39255062Y-27525082D01*
X39066095Y-27524918D01*
X38891450Y-27597080D01*
X38757713Y-27730583D01*
X38685246Y-27905102D01*
X38685120Y-28050780D01*
X37983978Y-28751922D01*
X37918946Y-28849249D01*
X37896110Y-28964054D01*
X37896110Y-29546683D01*
X37815998Y-29513417D01*
X37627031Y-29513253D01*
X37452386Y-29585415D01*
X37388503Y-29649187D01*
X37340688Y-29601288D01*
X37166169Y-29528821D01*
X36977202Y-29528657D01*
X36802557Y-29600819D01*
X36668820Y-29734322D01*
X36596353Y-29908841D01*
X36596189Y-30097808D01*
X36668351Y-30272453D01*
X36801854Y-30406190D01*
X36976373Y-30478657D01*
X37165340Y-30478821D01*
X37339985Y-30406659D01*
X37403868Y-30342887D01*
X37451683Y-30390786D01*
X37626202Y-30463253D01*
X37815169Y-30463417D01*
X37896110Y-30429973D01*
X37896110Y-31991989D01*
X37877164Y-31896740D01*
X37812132Y-31799413D01*
X35745002Y-29732283D01*
X35647675Y-29667251D01*
X35532870Y-29644415D01*
X30905004Y-29644415D01*
X30802732Y-29541964D01*
X30628213Y-29469497D01*
X30439246Y-29469333D01*
X30264601Y-29541495D01*
X30130864Y-29674998D01*
X30058397Y-29849517D01*
X30058233Y-30038484D01*
X30130395Y-30213129D01*
X30263898Y-30346866D01*
X30438417Y-30419333D01*
X30627384Y-30419497D01*
X30802029Y-30347335D01*
X30905129Y-30244415D01*
X35408606Y-30244415D01*
X36250583Y-31086392D01*
X36148310Y-31128651D01*
X36014573Y-31262154D01*
X35942106Y-31436673D01*
X35941942Y-31625640D01*
X36014104Y-31800285D01*
X36020990Y-31807183D01*
X35997549Y-31830583D01*
X35925082Y-32005102D01*
X35924918Y-32194069D01*
X35997080Y-32368714D01*
X36130583Y-32502451D01*
X36305102Y-32574918D01*
X36494069Y-32575082D01*
X36668714Y-32502920D01*
X36802451Y-32369417D01*
X36874918Y-32194898D01*
X36875082Y-32005931D01*
X36802920Y-31831286D01*
X36796034Y-31824388D01*
X36819475Y-31800988D01*
X36862225Y-31698034D01*
X37300000Y-32135809D01*
X37300000Y-35148906D01*
X36975290Y-35473617D01*
X36634908Y-35133235D01*
X36537581Y-35068203D01*
X36422776Y-35045367D01*
X35855098Y-35045367D01*
X35740293Y-35068203D01*
X35642966Y-35133235D01*
X35421438Y-35354763D01*
X35421438Y-33133013D01*
X35411491Y-33083007D01*
X35958775Y-33630291D01*
X35816497Y-33630168D01*
X35641852Y-33702330D01*
X35508115Y-33835833D01*
X35435648Y-34010352D01*
X35435484Y-34199319D01*
X35507646Y-34373964D01*
X35641149Y-34507701D01*
X35815668Y-34580168D01*
X36004635Y-34580332D01*
X36179280Y-34508170D01*
X36207517Y-34479982D01*
X36326108Y-34598781D01*
X36500627Y-34671248D01*
X36689594Y-34671412D01*
X36864239Y-34599250D01*
X36997976Y-34465747D01*
X37070443Y-34291228D01*
X37070607Y-34102261D01*
X36998445Y-33927616D01*
X36890989Y-33819971D01*
X36872689Y-33727972D01*
X36807657Y-33630645D01*
X34091978Y-30914966D01*
X33994651Y-30849934D01*
X33879846Y-30827098D01*
X30489362Y-30827098D01*
X28449981Y-28787717D01*
X28449981Y-27952109D01*
X36544384Y-27952109D01*
X36616546Y-28126754D01*
X36750049Y-28260491D01*
X36924568Y-28332958D01*
X37113535Y-28333122D01*
X37288180Y-28260960D01*
X37421917Y-28127457D01*
X37494384Y-27952938D01*
X37494548Y-27763971D01*
X37422386Y-27589326D01*
X37288883Y-27455589D01*
X37114364Y-27383122D01*
X36925397Y-27382958D01*
X36750752Y-27455120D01*
X36617015Y-27588623D01*
X36544548Y-27763142D01*
X36544384Y-27952109D01*
X28449981Y-27952109D01*
X28449981Y-25990582D01*
X28906331Y-26446932D01*
X28906205Y-26591693D01*
X28978367Y-26766338D01*
X29044205Y-26832291D01*
X28998495Y-26877921D01*
X28926028Y-27052440D01*
X28925864Y-27241407D01*
X28998026Y-27416052D01*
X29131529Y-27549789D01*
X29306048Y-27622256D01*
X29495015Y-27622420D01*
X29669660Y-27550258D01*
X29777305Y-27442802D01*
X29869304Y-27424502D01*
X29966631Y-27359470D01*
X30312132Y-27013969D01*
X30377164Y-26916642D01*
X30400000Y-26801837D01*
X30400000Y-26666313D01*
X30807685Y-26666313D01*
X30879847Y-26840958D01*
X30935520Y-26896729D01*
X30884424Y-26947736D01*
X30811957Y-27122255D01*
X30811793Y-27311222D01*
X30883955Y-27485867D01*
X31017458Y-27619604D01*
X31191977Y-27692071D01*
X31380944Y-27692235D01*
X31555589Y-27620073D01*
X31556877Y-27618788D01*
X31716432Y-27685041D01*
X31905399Y-27685205D01*
X32080044Y-27613043D01*
X32213781Y-27479540D01*
X32286248Y-27305021D01*
X32286412Y-27116054D01*
X32214250Y-26941409D01*
X32152733Y-26879784D01*
X32213781Y-26818842D01*
X32286248Y-26644323D01*
X32286412Y-26455356D01*
X32214250Y-26280711D01*
X32080747Y-26146974D01*
X31906228Y-26074507D01*
X31717261Y-26074343D01*
X31542616Y-26146505D01*
X31528951Y-26160146D01*
X31377665Y-26097326D01*
X31188698Y-26097162D01*
X31014053Y-26169324D01*
X30880316Y-26302827D01*
X30807849Y-26477346D01*
X30807685Y-26666313D01*
X30400000Y-26666313D01*
X30400000Y-25923433D01*
X31102698Y-25220735D01*
X31137146Y-25304105D01*
X31270649Y-25437842D01*
X31445168Y-25510309D01*
X31634135Y-25510473D01*
X31808780Y-25438311D01*
X31911880Y-25335391D01*
X33285960Y-25335391D01*
X33400765Y-25312555D01*
X33498092Y-25247523D01*
X34102670Y-24642945D01*
X34870114Y-24642945D01*
X34688003Y-24825056D01*
G36*
X38848489Y-20379984D02*
X38776022Y-20554503D01*
X38775858Y-20743470D01*
X38848020Y-20918115D01*
X38981523Y-21051852D01*
X39156042Y-21124319D01*
X39345009Y-21124483D01*
X39519654Y-21052321D01*
X39653391Y-20918818D01*
X39725858Y-20744299D01*
X39726022Y-20555332D01*
X39653860Y-20380687D01*
X39548358Y-20275000D01*
X58424759Y-20275000D01*
X58424684Y-20361422D01*
X58701938Y-21032429D01*
X59214871Y-21546258D01*
X59885392Y-21824683D01*
X60611422Y-21825316D01*
X61282429Y-21548062D01*
X61796258Y-21035129D01*
X62074683Y-20364608D01*
X62074761Y-20275000D01*
X63262759Y-20275000D01*
X63208615Y-20285770D01*
X62859860Y-20518800D01*
X62626830Y-20867555D01*
X62545000Y-21278940D01*
X62545000Y-21321060D01*
X62626830Y-21732445D01*
X62859860Y-22081200D01*
X63208615Y-22314230D01*
X63620000Y-22396060D01*
X64031385Y-22314230D01*
X64380140Y-22081200D01*
X64613170Y-21732445D01*
X64660835Y-21492814D01*
X65102430Y-21492814D01*
X65256719Y-21882851D01*
X65548525Y-22184155D01*
X65933422Y-22350854D01*
X65967186Y-22357567D01*
X66135000Y-22318443D01*
X66135000Y-21325000D01*
X66185000Y-21325000D01*
X66185000Y-22318443D01*
X66352814Y-22357567D01*
X66386578Y-22350854D01*
X66771475Y-22184155D01*
X67063281Y-21882851D01*
X67217570Y-21492814D01*
X67178462Y-21325000D01*
X66185000Y-21325000D01*
X66135000Y-21325000D01*
X65141538Y-21325000D01*
X65102430Y-21492814D01*
X64660835Y-21492814D01*
X64695000Y-21321060D01*
X64695000Y-21278940D01*
X64613170Y-20867555D01*
X64380140Y-20518800D01*
X64031385Y-20285770D01*
X63977241Y-20275000D01*
X65873727Y-20275000D01*
X65548525Y-20415845D01*
X65256719Y-20717149D01*
X65102430Y-21107186D01*
X65141538Y-21275000D01*
X66135000Y-21275000D01*
X66135000Y-21255000D01*
X66185000Y-21255000D01*
X66185000Y-21275000D01*
X67178462Y-21275000D01*
X67217570Y-21107186D01*
X67063281Y-20717149D01*
X66771475Y-20415845D01*
X66446273Y-20275000D01*
X67706449Y-20275000D01*
X67690040Y-20285559D01*
X67638666Y-20360747D01*
X67620592Y-20450000D01*
X67620592Y-22150000D01*
X67636281Y-22233380D01*
X67685559Y-22309960D01*
X67760747Y-22361334D01*
X67850000Y-22379408D01*
X69550000Y-22379408D01*
X69633380Y-22363719D01*
X69709960Y-22314441D01*
X69725000Y-22292429D01*
X69725000Y-22806802D01*
X69677452Y-22759254D01*
X69594756Y-22725000D01*
X68781250Y-22725000D01*
X68725000Y-22781250D01*
X68725000Y-23775000D01*
X68745000Y-23775000D01*
X68745000Y-23825000D01*
X68725000Y-23825000D01*
X68725000Y-24818750D01*
X68781250Y-24875000D01*
X69594756Y-24875000D01*
X69677452Y-24840746D01*
X69725000Y-24793198D01*
X69725000Y-25306802D01*
X69677452Y-25259254D01*
X69594756Y-25225000D01*
X68781250Y-25225000D01*
X68725000Y-25281250D01*
X68725000Y-26275000D01*
X68745000Y-26275000D01*
X68745000Y-26325000D01*
X68725000Y-26325000D01*
X68725000Y-27318750D01*
X68781250Y-27375000D01*
X69594756Y-27375000D01*
X69677452Y-27340746D01*
X69725000Y-27293198D01*
X69725000Y-27831802D01*
X69677452Y-27784254D01*
X69594756Y-27750000D01*
X68781250Y-27750000D01*
X68725000Y-27806250D01*
X68725000Y-28800000D01*
X68745000Y-28800000D01*
X68745000Y-28850000D01*
X68725000Y-28850000D01*
X68725000Y-28870000D01*
X68675000Y-28870000D01*
X68675000Y-28850000D01*
X67681250Y-28850000D01*
X67625000Y-28906250D01*
X67625000Y-29719755D01*
X67659254Y-29802452D01*
X67722548Y-29865746D01*
X67805244Y-29900000D01*
X67842506Y-29900000D01*
X67777818Y-30055786D01*
X67777654Y-30244753D01*
X67849816Y-30419398D01*
X67983319Y-30553135D01*
X68004791Y-30562051D01*
X67919860Y-30618800D01*
X67835010Y-30745787D01*
X67835010Y-30734010D01*
X67812174Y-30619205D01*
X67747142Y-30521878D01*
X66936654Y-29711390D01*
X66849683Y-29653278D01*
X66920140Y-29606200D01*
X67153170Y-29257445D01*
X67235000Y-28846060D01*
X67235000Y-28803940D01*
X67153170Y-28392555D01*
X66920140Y-28043800D01*
X66750193Y-27930245D01*
X67625000Y-27930245D01*
X67625000Y-28743750D01*
X67681250Y-28800000D01*
X68675000Y-28800000D01*
X68675000Y-27806250D01*
X68618750Y-27750000D01*
X67805244Y-27750000D01*
X67722548Y-27784254D01*
X67659254Y-27847548D01*
X67625000Y-27930245D01*
X66750193Y-27930245D01*
X66571385Y-27810770D01*
X66160000Y-27728940D01*
X65748615Y-27810770D01*
X65399860Y-28043800D01*
X65166830Y-28392555D01*
X65085000Y-28803940D01*
X65085000Y-28846060D01*
X65166830Y-29257445D01*
X65399860Y-29606200D01*
X65425784Y-29623522D01*
X64354216Y-29623522D01*
X64380140Y-29606200D01*
X64613170Y-29257445D01*
X64695000Y-28846060D01*
X64695000Y-28803940D01*
X64613170Y-28392555D01*
X64384332Y-28050074D01*
X64394069Y-28050082D01*
X64568714Y-27977920D01*
X64702451Y-27844417D01*
X64774918Y-27669898D01*
X64775082Y-27480931D01*
X64702920Y-27306286D01*
X64569417Y-27172549D01*
X64394898Y-27100082D01*
X64351937Y-27100045D01*
X64380140Y-27081200D01*
X64613170Y-26732445D01*
X64695000Y-26321060D01*
X64695000Y-26278940D01*
X65085000Y-26278940D01*
X65085000Y-26321060D01*
X65166830Y-26732445D01*
X65399860Y-27081200D01*
X65748615Y-27314230D01*
X66160000Y-27396060D01*
X66571385Y-27314230D01*
X66920140Y-27081200D01*
X67153170Y-26732445D01*
X67223027Y-26381250D01*
X67625000Y-26381250D01*
X67625000Y-27194755D01*
X67659254Y-27277452D01*
X67722548Y-27340746D01*
X67805244Y-27375000D01*
X68618750Y-27375000D01*
X68675000Y-27318750D01*
X68675000Y-26325000D01*
X67681250Y-26325000D01*
X67625000Y-26381250D01*
X67223027Y-26381250D01*
X67235000Y-26321060D01*
X67235000Y-26278940D01*
X67153170Y-25867555D01*
X66920140Y-25518800D01*
X66750193Y-25405245D01*
X67625000Y-25405245D01*
X67625000Y-26218750D01*
X67681250Y-26275000D01*
X68675000Y-26275000D01*
X68675000Y-25281250D01*
X68618750Y-25225000D01*
X67805244Y-25225000D01*
X67722548Y-25259254D01*
X67659254Y-25322548D01*
X67625000Y-25405245D01*
X66750193Y-25405245D01*
X66571385Y-25285770D01*
X66160000Y-25203940D01*
X65748615Y-25285770D01*
X65399860Y-25518800D01*
X65166830Y-25867555D01*
X65085000Y-26278940D01*
X64695000Y-26278940D01*
X64613170Y-25867555D01*
X64380140Y-25518800D01*
X64031385Y-25285770D01*
X63620000Y-25203940D01*
X63208615Y-25285770D01*
X62859860Y-25518800D01*
X62651490Y-25830649D01*
X62649247Y-25827293D01*
X60881622Y-24059668D01*
X60881748Y-23914907D01*
X60825568Y-23778940D01*
X62545000Y-23778940D01*
X62545000Y-23821060D01*
X62626830Y-24232445D01*
X62859860Y-24581200D01*
X63208615Y-24814230D01*
X63620000Y-24896060D01*
X64031385Y-24814230D01*
X64380140Y-24581200D01*
X64613170Y-24232445D01*
X64695000Y-23821060D01*
X64695000Y-23778940D01*
X65085000Y-23778940D01*
X65085000Y-23821060D01*
X65166830Y-24232445D01*
X65399860Y-24581200D01*
X65748615Y-24814230D01*
X66160000Y-24896060D01*
X66571385Y-24814230D01*
X66920140Y-24581200D01*
X67153170Y-24232445D01*
X67223027Y-23881250D01*
X67625000Y-23881250D01*
X67625000Y-24694755D01*
X67659254Y-24777452D01*
X67722548Y-24840746D01*
X67805244Y-24875000D01*
X68618750Y-24875000D01*
X68675000Y-24818750D01*
X68675000Y-23825000D01*
X67681250Y-23825000D01*
X67625000Y-23881250D01*
X67223027Y-23881250D01*
X67235000Y-23821060D01*
X67235000Y-23778940D01*
X67153170Y-23367555D01*
X66920140Y-23018800D01*
X66750193Y-22905245D01*
X67625000Y-22905245D01*
X67625000Y-23718750D01*
X67681250Y-23775000D01*
X68675000Y-23775000D01*
X68675000Y-22781250D01*
X68618750Y-22725000D01*
X67805244Y-22725000D01*
X67722548Y-22759254D01*
X67659254Y-22822548D01*
X67625000Y-22905245D01*
X66750193Y-22905245D01*
X66571385Y-22785770D01*
X66160000Y-22703940D01*
X65748615Y-22785770D01*
X65399860Y-23018800D01*
X65166830Y-23367555D01*
X65085000Y-23778940D01*
X64695000Y-23778940D01*
X64613170Y-23367555D01*
X64380140Y-23018800D01*
X64031385Y-22785770D01*
X63620000Y-22703940D01*
X63208615Y-22785770D01*
X62859860Y-23018800D01*
X62626830Y-23367555D01*
X62545000Y-23778940D01*
X60825568Y-23778940D01*
X60809586Y-23740262D01*
X60676083Y-23606525D01*
X60501564Y-23534058D01*
X60312597Y-23533894D01*
X60137952Y-23606056D01*
X60116631Y-23627340D01*
X60116710Y-23535755D01*
X60044548Y-23361110D01*
X59911045Y-23227373D01*
X59736526Y-23154906D01*
X59547559Y-23154742D01*
X59372914Y-23226904D01*
X59239177Y-23360407D01*
X59238993Y-23360850D01*
X59105749Y-23227373D01*
X58931230Y-23154906D01*
X58742263Y-23154742D01*
X58567618Y-23226904D01*
X58433881Y-23360407D01*
X58388748Y-23469098D01*
X55689994Y-20770344D01*
X55592667Y-20705312D01*
X55477862Y-20682476D01*
X42238470Y-20682476D01*
X42123665Y-20705312D01*
X42026338Y-20770344D01*
X41469777Y-21326905D01*
X32781652Y-21326905D01*
X32666847Y-21349741D01*
X32569520Y-21414773D01*
X32162759Y-21821534D01*
X30120575Y-21821534D01*
X30782429Y-21548062D01*
X31296258Y-21035129D01*
X31574683Y-20364608D01*
X31574761Y-20275000D01*
X38953657Y-20275000D01*
X38848489Y-20379984D01*
X38848489Y-20379984D01*
G37*
X38848489Y-20379984D02*
X38776022Y-20554503D01*
X38775858Y-20743470D01*
X38848020Y-20918115D01*
X38981523Y-21051852D01*
X39156042Y-21124319D01*
X39345009Y-21124483D01*
X39519654Y-21052321D01*
X39653391Y-20918818D01*
X39725858Y-20744299D01*
X39726022Y-20555332D01*
X39653860Y-20380687D01*
X39548358Y-20275000D01*
X58424759Y-20275000D01*
X58424684Y-20361422D01*
X58701938Y-21032429D01*
X59214871Y-21546258D01*
X59885392Y-21824683D01*
X60611422Y-21825316D01*
X61282429Y-21548062D01*
X61796258Y-21035129D01*
X62074683Y-20364608D01*
X62074761Y-20275000D01*
X63262759Y-20275000D01*
X63208615Y-20285770D01*
X62859860Y-20518800D01*
X62626830Y-20867555D01*
X62545000Y-21278940D01*
X62545000Y-21321060D01*
X62626830Y-21732445D01*
X62859860Y-22081200D01*
X63208615Y-22314230D01*
X63620000Y-22396060D01*
X64031385Y-22314230D01*
X64380140Y-22081200D01*
X64613170Y-21732445D01*
X64660835Y-21492814D01*
X65102430Y-21492814D01*
X65256719Y-21882851D01*
X65548525Y-22184155D01*
X65933422Y-22350854D01*
X65967186Y-22357567D01*
X66135000Y-22318443D01*
X66135000Y-21325000D01*
X66185000Y-21325000D01*
X66185000Y-22318443D01*
X66352814Y-22357567D01*
X66386578Y-22350854D01*
X66771475Y-22184155D01*
X67063281Y-21882851D01*
X67217570Y-21492814D01*
X67178462Y-21325000D01*
X66185000Y-21325000D01*
X66135000Y-21325000D01*
X65141538Y-21325000D01*
X65102430Y-21492814D01*
X64660835Y-21492814D01*
X64695000Y-21321060D01*
X64695000Y-21278940D01*
X64613170Y-20867555D01*
X64380140Y-20518800D01*
X64031385Y-20285770D01*
X63977241Y-20275000D01*
X65873727Y-20275000D01*
X65548525Y-20415845D01*
X65256719Y-20717149D01*
X65102430Y-21107186D01*
X65141538Y-21275000D01*
X66135000Y-21275000D01*
X66135000Y-21255000D01*
X66185000Y-21255000D01*
X66185000Y-21275000D01*
X67178462Y-21275000D01*
X67217570Y-21107186D01*
X67063281Y-20717149D01*
X66771475Y-20415845D01*
X66446273Y-20275000D01*
X67706449Y-20275000D01*
X67690040Y-20285559D01*
X67638666Y-20360747D01*
X67620592Y-20450000D01*
X67620592Y-22150000D01*
X67636281Y-22233380D01*
X67685559Y-22309960D01*
X67760747Y-22361334D01*
X67850000Y-22379408D01*
X69550000Y-22379408D01*
X69633380Y-22363719D01*
X69709960Y-22314441D01*
X69725000Y-22292429D01*
X69725000Y-22806802D01*
X69677452Y-22759254D01*
X69594756Y-22725000D01*
X68781250Y-22725000D01*
X68725000Y-22781250D01*
X68725000Y-23775000D01*
X68745000Y-23775000D01*
X68745000Y-23825000D01*
X68725000Y-23825000D01*
X68725000Y-24818750D01*
X68781250Y-24875000D01*
X69594756Y-24875000D01*
X69677452Y-24840746D01*
X69725000Y-24793198D01*
X69725000Y-25306802D01*
X69677452Y-25259254D01*
X69594756Y-25225000D01*
X68781250Y-25225000D01*
X68725000Y-25281250D01*
X68725000Y-26275000D01*
X68745000Y-26275000D01*
X68745000Y-26325000D01*
X68725000Y-26325000D01*
X68725000Y-27318750D01*
X68781250Y-27375000D01*
X69594756Y-27375000D01*
X69677452Y-27340746D01*
X69725000Y-27293198D01*
X69725000Y-27831802D01*
X69677452Y-27784254D01*
X69594756Y-27750000D01*
X68781250Y-27750000D01*
X68725000Y-27806250D01*
X68725000Y-28800000D01*
X68745000Y-28800000D01*
X68745000Y-28850000D01*
X68725000Y-28850000D01*
X68725000Y-28870000D01*
X68675000Y-28870000D01*
X68675000Y-28850000D01*
X67681250Y-28850000D01*
X67625000Y-28906250D01*
X67625000Y-29719755D01*
X67659254Y-29802452D01*
X67722548Y-29865746D01*
X67805244Y-29900000D01*
X67842506Y-29900000D01*
X67777818Y-30055786D01*
X67777654Y-30244753D01*
X67849816Y-30419398D01*
X67983319Y-30553135D01*
X68004791Y-30562051D01*
X67919860Y-30618800D01*
X67835010Y-30745787D01*
X67835010Y-30734010D01*
X67812174Y-30619205D01*
X67747142Y-30521878D01*
X66936654Y-29711390D01*
X66849683Y-29653278D01*
X66920140Y-29606200D01*
X67153170Y-29257445D01*
X67235000Y-28846060D01*
X67235000Y-28803940D01*
X67153170Y-28392555D01*
X66920140Y-28043800D01*
X66750193Y-27930245D01*
X67625000Y-27930245D01*
X67625000Y-28743750D01*
X67681250Y-28800000D01*
X68675000Y-28800000D01*
X68675000Y-27806250D01*
X68618750Y-27750000D01*
X67805244Y-27750000D01*
X67722548Y-27784254D01*
X67659254Y-27847548D01*
X67625000Y-27930245D01*
X66750193Y-27930245D01*
X66571385Y-27810770D01*
X66160000Y-27728940D01*
X65748615Y-27810770D01*
X65399860Y-28043800D01*
X65166830Y-28392555D01*
X65085000Y-28803940D01*
X65085000Y-28846060D01*
X65166830Y-29257445D01*
X65399860Y-29606200D01*
X65425784Y-29623522D01*
X64354216Y-29623522D01*
X64380140Y-29606200D01*
X64613170Y-29257445D01*
X64695000Y-28846060D01*
X64695000Y-28803940D01*
X64613170Y-28392555D01*
X64384332Y-28050074D01*
X64394069Y-28050082D01*
X64568714Y-27977920D01*
X64702451Y-27844417D01*
X64774918Y-27669898D01*
X64775082Y-27480931D01*
X64702920Y-27306286D01*
X64569417Y-27172549D01*
X64394898Y-27100082D01*
X64351937Y-27100045D01*
X64380140Y-27081200D01*
X64613170Y-26732445D01*
X64695000Y-26321060D01*
X64695000Y-26278940D01*
X65085000Y-26278940D01*
X65085000Y-26321060D01*
X65166830Y-26732445D01*
X65399860Y-27081200D01*
X65748615Y-27314230D01*
X66160000Y-27396060D01*
X66571385Y-27314230D01*
X66920140Y-27081200D01*
X67153170Y-26732445D01*
X67223027Y-26381250D01*
X67625000Y-26381250D01*
X67625000Y-27194755D01*
X67659254Y-27277452D01*
X67722548Y-27340746D01*
X67805244Y-27375000D01*
X68618750Y-27375000D01*
X68675000Y-27318750D01*
X68675000Y-26325000D01*
X67681250Y-26325000D01*
X67625000Y-26381250D01*
X67223027Y-26381250D01*
X67235000Y-26321060D01*
X67235000Y-26278940D01*
X67153170Y-25867555D01*
X66920140Y-25518800D01*
X66750193Y-25405245D01*
X67625000Y-25405245D01*
X67625000Y-26218750D01*
X67681250Y-26275000D01*
X68675000Y-26275000D01*
X68675000Y-25281250D01*
X68618750Y-25225000D01*
X67805244Y-25225000D01*
X67722548Y-25259254D01*
X67659254Y-25322548D01*
X67625000Y-25405245D01*
X66750193Y-25405245D01*
X66571385Y-25285770D01*
X66160000Y-25203940D01*
X65748615Y-25285770D01*
X65399860Y-25518800D01*
X65166830Y-25867555D01*
X65085000Y-26278940D01*
X64695000Y-26278940D01*
X64613170Y-25867555D01*
X64380140Y-25518800D01*
X64031385Y-25285770D01*
X63620000Y-25203940D01*
X63208615Y-25285770D01*
X62859860Y-25518800D01*
X62651490Y-25830649D01*
X62649247Y-25827293D01*
X60881622Y-24059668D01*
X60881748Y-23914907D01*
X60825568Y-23778940D01*
X62545000Y-23778940D01*
X62545000Y-23821060D01*
X62626830Y-24232445D01*
X62859860Y-24581200D01*
X63208615Y-24814230D01*
X63620000Y-24896060D01*
X64031385Y-24814230D01*
X64380140Y-24581200D01*
X64613170Y-24232445D01*
X64695000Y-23821060D01*
X64695000Y-23778940D01*
X65085000Y-23778940D01*
X65085000Y-23821060D01*
X65166830Y-24232445D01*
X65399860Y-24581200D01*
X65748615Y-24814230D01*
X66160000Y-24896060D01*
X66571385Y-24814230D01*
X66920140Y-24581200D01*
X67153170Y-24232445D01*
X67223027Y-23881250D01*
X67625000Y-23881250D01*
X67625000Y-24694755D01*
X67659254Y-24777452D01*
X67722548Y-24840746D01*
X67805244Y-24875000D01*
X68618750Y-24875000D01*
X68675000Y-24818750D01*
X68675000Y-23825000D01*
X67681250Y-23825000D01*
X67625000Y-23881250D01*
X67223027Y-23881250D01*
X67235000Y-23821060D01*
X67235000Y-23778940D01*
X67153170Y-23367555D01*
X66920140Y-23018800D01*
X66750193Y-22905245D01*
X67625000Y-22905245D01*
X67625000Y-23718750D01*
X67681250Y-23775000D01*
X68675000Y-23775000D01*
X68675000Y-22781250D01*
X68618750Y-22725000D01*
X67805244Y-22725000D01*
X67722548Y-22759254D01*
X67659254Y-22822548D01*
X67625000Y-22905245D01*
X66750193Y-22905245D01*
X66571385Y-22785770D01*
X66160000Y-22703940D01*
X65748615Y-22785770D01*
X65399860Y-23018800D01*
X65166830Y-23367555D01*
X65085000Y-23778940D01*
X64695000Y-23778940D01*
X64613170Y-23367555D01*
X64380140Y-23018800D01*
X64031385Y-22785770D01*
X63620000Y-22703940D01*
X63208615Y-22785770D01*
X62859860Y-23018800D01*
X62626830Y-23367555D01*
X62545000Y-23778940D01*
X60825568Y-23778940D01*
X60809586Y-23740262D01*
X60676083Y-23606525D01*
X60501564Y-23534058D01*
X60312597Y-23533894D01*
X60137952Y-23606056D01*
X60116631Y-23627340D01*
X60116710Y-23535755D01*
X60044548Y-23361110D01*
X59911045Y-23227373D01*
X59736526Y-23154906D01*
X59547559Y-23154742D01*
X59372914Y-23226904D01*
X59239177Y-23360407D01*
X59238993Y-23360850D01*
X59105749Y-23227373D01*
X58931230Y-23154906D01*
X58742263Y-23154742D01*
X58567618Y-23226904D01*
X58433881Y-23360407D01*
X58388748Y-23469098D01*
X55689994Y-20770344D01*
X55592667Y-20705312D01*
X55477862Y-20682476D01*
X42238470Y-20682476D01*
X42123665Y-20705312D01*
X42026338Y-20770344D01*
X41469777Y-21326905D01*
X32781652Y-21326905D01*
X32666847Y-21349741D01*
X32569520Y-21414773D01*
X32162759Y-21821534D01*
X30120575Y-21821534D01*
X30782429Y-21548062D01*
X31296258Y-21035129D01*
X31574683Y-20364608D01*
X31574761Y-20275000D01*
X38953657Y-20275000D01*
X38848489Y-20379984D01*
G36*
X54036677Y-26284549D02*
X53956507Y-26317675D01*
X53848862Y-26425131D01*
X53756863Y-26443431D01*
X53659536Y-26508463D01*
X53019041Y-27148958D01*
X52988177Y-27074263D01*
X52854674Y-26940526D01*
X52680155Y-26868059D01*
X52491188Y-26867895D01*
X52316543Y-26940057D01*
X52182806Y-27073560D01*
X52110339Y-27248079D01*
X52110260Y-27338552D01*
X52019417Y-27247549D01*
X51844898Y-27175082D01*
X51655931Y-27174918D01*
X51481286Y-27247080D01*
X51347549Y-27380583D01*
X51275082Y-27555102D01*
X51274918Y-27744069D01*
X51347080Y-27918714D01*
X51480583Y-28052451D01*
X51655102Y-28124918D01*
X51844069Y-28125082D01*
X51869103Y-28114738D01*
X51869103Y-29933812D01*
X51780337Y-29896953D01*
X51591370Y-29896789D01*
X51416725Y-29968951D01*
X51338170Y-30047369D01*
X51306489Y-30015633D01*
X51131970Y-29943166D01*
X50943003Y-29943002D01*
X50768358Y-30015164D01*
X50634621Y-30148667D01*
X50570668Y-30302682D01*
X50570668Y-24904638D01*
X50547832Y-24789833D01*
X50482800Y-24692506D01*
X49527415Y-23737121D01*
X51489249Y-23737121D01*
X54036677Y-26284549D01*
X54036677Y-26284549D01*
G37*
X54036677Y-26284549D02*
X53956507Y-26317675D01*
X53848862Y-26425131D01*
X53756863Y-26443431D01*
X53659536Y-26508463D01*
X53019041Y-27148958D01*
X52988177Y-27074263D01*
X52854674Y-26940526D01*
X52680155Y-26868059D01*
X52491188Y-26867895D01*
X52316543Y-26940057D01*
X52182806Y-27073560D01*
X52110339Y-27248079D01*
X52110260Y-27338552D01*
X52019417Y-27247549D01*
X51844898Y-27175082D01*
X51655931Y-27174918D01*
X51481286Y-27247080D01*
X51347549Y-27380583D01*
X51275082Y-27555102D01*
X51274918Y-27744069D01*
X51347080Y-27918714D01*
X51480583Y-28052451D01*
X51655102Y-28124918D01*
X51844069Y-28125082D01*
X51869103Y-28114738D01*
X51869103Y-29933812D01*
X51780337Y-29896953D01*
X51591370Y-29896789D01*
X51416725Y-29968951D01*
X51338170Y-30047369D01*
X51306489Y-30015633D01*
X51131970Y-29943166D01*
X50943003Y-29943002D01*
X50768358Y-30015164D01*
X50634621Y-30148667D01*
X50570668Y-30302682D01*
X50570668Y-24904638D01*
X50547832Y-24789833D01*
X50482800Y-24692506D01*
X49527415Y-23737121D01*
X51489249Y-23737121D01*
X54036677Y-26284549D01*
G36*
X23467555Y-20286830D02*
X23118800Y-20519860D01*
X22885770Y-20868615D01*
X22803940Y-21280000D01*
X22885770Y-21691385D01*
X23118800Y-22040140D01*
X23467555Y-22273170D01*
X23878940Y-22355000D01*
X23921060Y-22355000D01*
X24332445Y-22273170D01*
X24681200Y-22040140D01*
X24914230Y-21691385D01*
X24957706Y-21472814D01*
X25442433Y-21472814D01*
X25449146Y-21506578D01*
X25615845Y-21891475D01*
X25917149Y-22183281D01*
X26307186Y-22337570D01*
X26475000Y-22298462D01*
X26475000Y-21305000D01*
X26525000Y-21305000D01*
X26525000Y-22298462D01*
X26692814Y-22337570D01*
X27082851Y-22183281D01*
X27384155Y-21891475D01*
X27550854Y-21506578D01*
X27557567Y-21472814D01*
X27518443Y-21305000D01*
X26525000Y-21305000D01*
X26475000Y-21305000D01*
X25481557Y-21305000D01*
X25442433Y-21472814D01*
X24957706Y-21472814D01*
X24996060Y-21280000D01*
X24914230Y-20868615D01*
X24681200Y-20519860D01*
X24332445Y-20286830D01*
X24272972Y-20275000D01*
X26174291Y-20275000D01*
X25917149Y-20376719D01*
X25615845Y-20668525D01*
X25449146Y-21053422D01*
X25442433Y-21087186D01*
X25481557Y-21255000D01*
X26475000Y-21255000D01*
X26475000Y-21235000D01*
X26525000Y-21235000D01*
X26525000Y-21255000D01*
X27518443Y-21255000D01*
X27557567Y-21087186D01*
X27550854Y-21053422D01*
X27384155Y-20668525D01*
X27082851Y-20376719D01*
X26825709Y-20275000D01*
X27924759Y-20275000D01*
X27924684Y-20361422D01*
X28201938Y-21032429D01*
X28714871Y-21546258D01*
X29377808Y-21821534D01*
X28912895Y-21821534D01*
X28798090Y-21844370D01*
X28700763Y-21909402D01*
X27634761Y-22975404D01*
X27569729Y-23072731D01*
X27546893Y-23187536D01*
X27546893Y-23572822D01*
X27514230Y-23408615D01*
X27281200Y-23059860D01*
X26932445Y-22826830D01*
X26521060Y-22745000D01*
X26478940Y-22745000D01*
X26067555Y-22826830D01*
X25718800Y-23059860D01*
X25485770Y-23408615D01*
X25403940Y-23820000D01*
X25485770Y-24231385D01*
X25718800Y-24580140D01*
X25946349Y-24732183D01*
X24453651Y-24732183D01*
X24681200Y-24580140D01*
X24914230Y-24231385D01*
X24996060Y-23820000D01*
X24914230Y-23408615D01*
X24681200Y-23059860D01*
X24332445Y-22826830D01*
X23921060Y-22745000D01*
X23878940Y-22745000D01*
X23467555Y-22826830D01*
X23118800Y-23059860D01*
X22885770Y-23408615D01*
X22803940Y-23820000D01*
X22885770Y-24231385D01*
X23118800Y-24580140D01*
X23451268Y-24802287D01*
X23424683Y-24820051D01*
X22323943Y-25920791D01*
X22309791Y-25941971D01*
X22081200Y-25599860D01*
X21732445Y-25366830D01*
X21321060Y-25285000D01*
X21278940Y-25285000D01*
X20867555Y-25366830D01*
X20518800Y-25599860D01*
X20285770Y-25948615D01*
X20275000Y-26002759D01*
X20275000Y-24177241D01*
X20285770Y-24231385D01*
X20518800Y-24580140D01*
X20867555Y-24813170D01*
X21278940Y-24895000D01*
X21321060Y-24895000D01*
X21732445Y-24813170D01*
X22081200Y-24580140D01*
X22314230Y-24231385D01*
X22396060Y-23820000D01*
X22314230Y-23408615D01*
X22081200Y-23059860D01*
X21732445Y-22826830D01*
X21321060Y-22745000D01*
X21278940Y-22745000D01*
X20867555Y-22826830D01*
X20518800Y-23059860D01*
X20285770Y-23408615D01*
X20275000Y-23462759D01*
X20275000Y-21637241D01*
X20285770Y-21691385D01*
X20518800Y-22040140D01*
X20867555Y-22273170D01*
X21278940Y-22355000D01*
X21321060Y-22355000D01*
X21732445Y-22273170D01*
X22081200Y-22040140D01*
X22314230Y-21691385D01*
X22396060Y-21280000D01*
X22314230Y-20868615D01*
X22081200Y-20519860D01*
X21732445Y-20286830D01*
X21672972Y-20275000D01*
X23527028Y-20275000D01*
X23467555Y-20286830D01*
X23467555Y-20286830D01*
G37*
X23467555Y-20286830D02*
X23118800Y-20519860D01*
X22885770Y-20868615D01*
X22803940Y-21280000D01*
X22885770Y-21691385D01*
X23118800Y-22040140D01*
X23467555Y-22273170D01*
X23878940Y-22355000D01*
X23921060Y-22355000D01*
X24332445Y-22273170D01*
X24681200Y-22040140D01*
X24914230Y-21691385D01*
X24957706Y-21472814D01*
X25442433Y-21472814D01*
X25449146Y-21506578D01*
X25615845Y-21891475D01*
X25917149Y-22183281D01*
X26307186Y-22337570D01*
X26475000Y-22298462D01*
X26475000Y-21305000D01*
X26525000Y-21305000D01*
X26525000Y-22298462D01*
X26692814Y-22337570D01*
X27082851Y-22183281D01*
X27384155Y-21891475D01*
X27550854Y-21506578D01*
X27557567Y-21472814D01*
X27518443Y-21305000D01*
X26525000Y-21305000D01*
X26475000Y-21305000D01*
X25481557Y-21305000D01*
X25442433Y-21472814D01*
X24957706Y-21472814D01*
X24996060Y-21280000D01*
X24914230Y-20868615D01*
X24681200Y-20519860D01*
X24332445Y-20286830D01*
X24272972Y-20275000D01*
X26174291Y-20275000D01*
X25917149Y-20376719D01*
X25615845Y-20668525D01*
X25449146Y-21053422D01*
X25442433Y-21087186D01*
X25481557Y-21255000D01*
X26475000Y-21255000D01*
X26475000Y-21235000D01*
X26525000Y-21235000D01*
X26525000Y-21255000D01*
X27518443Y-21255000D01*
X27557567Y-21087186D01*
X27550854Y-21053422D01*
X27384155Y-20668525D01*
X27082851Y-20376719D01*
X26825709Y-20275000D01*
X27924759Y-20275000D01*
X27924684Y-20361422D01*
X28201938Y-21032429D01*
X28714871Y-21546258D01*
X29377808Y-21821534D01*
X28912895Y-21821534D01*
X28798090Y-21844370D01*
X28700763Y-21909402D01*
X27634761Y-22975404D01*
X27569729Y-23072731D01*
X27546893Y-23187536D01*
X27546893Y-23572822D01*
X27514230Y-23408615D01*
X27281200Y-23059860D01*
X26932445Y-22826830D01*
X26521060Y-22745000D01*
X26478940Y-22745000D01*
X26067555Y-22826830D01*
X25718800Y-23059860D01*
X25485770Y-23408615D01*
X25403940Y-23820000D01*
X25485770Y-24231385D01*
X25718800Y-24580140D01*
X25946349Y-24732183D01*
X24453651Y-24732183D01*
X24681200Y-24580140D01*
X24914230Y-24231385D01*
X24996060Y-23820000D01*
X24914230Y-23408615D01*
X24681200Y-23059860D01*
X24332445Y-22826830D01*
X23921060Y-22745000D01*
X23878940Y-22745000D01*
X23467555Y-22826830D01*
X23118800Y-23059860D01*
X22885770Y-23408615D01*
X22803940Y-23820000D01*
X22885770Y-24231385D01*
X23118800Y-24580140D01*
X23451268Y-24802287D01*
X23424683Y-24820051D01*
X22323943Y-25920791D01*
X22309791Y-25941971D01*
X22081200Y-25599860D01*
X21732445Y-25366830D01*
X21321060Y-25285000D01*
X21278940Y-25285000D01*
X20867555Y-25366830D01*
X20518800Y-25599860D01*
X20285770Y-25948615D01*
X20275000Y-26002759D01*
X20275000Y-24177241D01*
X20285770Y-24231385D01*
X20518800Y-24580140D01*
X20867555Y-24813170D01*
X21278940Y-24895000D01*
X21321060Y-24895000D01*
X21732445Y-24813170D01*
X22081200Y-24580140D01*
X22314230Y-24231385D01*
X22396060Y-23820000D01*
X22314230Y-23408615D01*
X22081200Y-23059860D01*
X21732445Y-22826830D01*
X21321060Y-22745000D01*
X21278940Y-22745000D01*
X20867555Y-22826830D01*
X20518800Y-23059860D01*
X20285770Y-23408615D01*
X20275000Y-23462759D01*
X20275000Y-21637241D01*
X20285770Y-21691385D01*
X20518800Y-22040140D01*
X20867555Y-22273170D01*
X21278940Y-22355000D01*
X21321060Y-22355000D01*
X21732445Y-22273170D01*
X22081200Y-22040140D01*
X22314230Y-21691385D01*
X22396060Y-21280000D01*
X22314230Y-20868615D01*
X22081200Y-20519860D01*
X21732445Y-20286830D01*
X21672972Y-20275000D01*
X23527028Y-20275000D01*
X23467555Y-20286830D01*
M02*
