M48
;DRILL file {KiCad 4.0.7-e2-6376~58~ubuntu16.04.1} date Mon Mar 12 00:56:06 2018
;FORMAT={-:-/ absolute / inch / decimal}
FMAT,2
INCH,TZ
T1C0.012
T2C0.039
T3C0.126
%
G90
G05
M72
T1
X1.0945Y-1.2126
X1.0945Y-1.2559
X1.1024Y-0.8465
X1.1128Y-1.3306
X1.1128Y-1.3641
X1.1128Y-1.3976
X1.1359Y-1.4278
X1.1417Y-1.8898
X1.1449Y-1.4521
X1.1567Y-1.0432
X1.1575Y-1.0688
X1.1576Y-0.9758
X1.1594Y-1.0178
X1.1643Y-0.9511
X1.1644Y-0.9255
X1.1752Y-1.1654
X1.1795Y-1.8195
X1.1806Y-1.3086
X1.1811Y-1.4307
X1.1811Y-1.8898
X1.1842Y-0.9707
X1.1966Y-1.5433
X1.2021Y-1.1789
X1.2059Y-1.4717
X1.2224Y-1.8589
X1.2244Y-0.8504
X1.2316Y-1.0462
X1.2318Y-1.0715
X1.233Y-1.5433
X1.2402Y-1.3652
X1.2403Y-1.7391
X1.2417Y-0.9856
X1.2431Y-1.4124
X1.2439Y-1.3113
X1.252Y-0.8238
X1.252Y-0.8504
X1.2524Y-1.0453
X1.2524Y-1.0713
X1.2618Y-1.1358
X1.2677Y-1.903
X1.2697Y-1.3113
X1.2699Y-1.4469
X1.2835Y-1.7717
X1.3253Y-1.3465
X1.3253Y-1.3839
X1.3253Y-1.4154
X1.3262Y-1.8301
X1.3283Y-1.1339
X1.3283Y-1.1543
X1.3406Y-1.7879
X1.3482Y-1.1339
X1.3482Y-1.1547
X1.3484Y-1.9705
X1.3494Y-1.3307
X1.3524Y-1.4005
X1.3546Y-1.5717
X1.3598Y-1.6004
X1.3637Y-0.9961
X1.3758Y-1.4005
X1.38Y-1.5717
X1.3947Y-1.9705
X1.4058Y-1.7483
X1.41Y-1.66
X1.4138Y-1.3427
X1.425Y-1.4103
X1.4331Y-1.2638
X1.4335Y-1.7479
X1.4337Y-1.2414
X1.4398Y-1.5862
X1.4408Y-1.3463
X1.4482Y-1.3713
X1.4502Y-0.8209
X1.453Y-1.6616
X1.4575Y-1.0968
X1.4591Y-1.7477
X1.4595Y-1.1812
X1.4706Y-0.8207
X1.4826Y-1.5247
X1.4826Y-1.549
X1.4851Y-1.1806
X1.4858Y-1.7469
X1.4921Y-1.431
X1.5038Y-1.375
X1.52Y-1.66
X1.5266Y-1.1825
X1.528Y-1.2158
X1.5321Y-1.4008
X1.5326Y-1.3461
X1.5392Y-1.85
X1.5417Y-1.1024
X1.5453Y-0.813
X1.55Y-1.66
X1.5512Y-1.5965
X1.5547Y-1.3781
X1.5609Y-1.4271
X1.5623Y-1.1812
X1.5728Y-1.6201
X1.5729Y-1.6456
X1.5817Y-1.1024
X1.5841Y-1.8487
X1.6004Y-1.7862
X1.6011Y-1.1751
X1.6255Y-1.0984
X1.6267Y-1.9314
X1.6269Y-1.9581
X1.6274Y-1.9051
X1.6458Y-1.844
X1.6467Y-1.7914
X1.6577Y-1.0942
X1.6603Y-1.1442
X1.661Y-1.122
X1.67Y-1.263
X1.6742Y-1.7913
X1.6756Y-1.3025
X1.6772Y-1.196
X1.6772Y-1.2216
X1.6795Y-1.4206
X1.6848Y-1.6769
X1.6885Y-1.6031
X1.6893Y-1.5775
X1.69Y-1.4808
X1.69Y-1.6291
X1.6997Y-1.7918
X1.7068Y-1.4222
X1.7126Y-1.2008
X1.72Y-0.9038
X1.7486Y-1.7893
X1.7569Y-1.2766
X1.759Y-1.9662
X1.7678Y-1.0896
X1.7774Y-1.0575
X1.7835Y-1.252
X1.7913Y-1.0795
X1.7938Y-1.208
X1.805Y-1.8585
X1.8071Y-1.2795
X1.8145Y-1.9452
X1.8166Y-1.3558
X1.8189Y-1.8307
X1.8405Y-1.9459
X1.8425Y-0.9889
X1.8547Y-1.2099
X1.8563Y-1.4066
X1.8568Y-1.437
X1.8612Y-1.5919
X1.863Y-1.765
X1.8661Y-1.6567
X1.8757Y-1.6133
X1.876Y-1.4823
X1.877Y-1.5108
X1.8772Y-1.1887
X1.8779Y-1.0185
X1.8792Y-1.0573
X1.8839Y-1.6751
X1.8854Y-1.2369
X1.886Y-1.277
X1.8927Y-0.9976
X1.896Y-1.5701
X1.8963Y-1.8937
X1.9034Y-1.2552
X1.9055Y-1.6272
X1.9151Y-1.6768
X1.9376Y-1.8937
X1.9395Y-1.3633
X1.94Y-1.4494
X1.94Y-1.414
X1.9409Y-1.7719
X1.9599Y-1.6732
X1.9601Y-1.1959
X1.9605Y-1.2717
X1.9685Y-1.2283
X1.9891Y-1.2452
X2.0093Y-1.1976
X2.012Y-1.839
X2.0177Y-1.6777
X2.0229Y-1.8937
X2.0349Y-1.1957
X2.0374Y-1.0886
X2.0504Y-1.7745
X2.0703Y-1.0765
X2.0748Y-1.6791
X2.0841Y-1.1998
X2.0866Y-1.7756
X2.0915Y-1.0387
X2.096Y-1.4813
X2.1036Y-1.6798
X2.1083Y-1.5711
X2.1091Y-1.0926
X2.1105Y-1.6152
X2.12Y-0.9031
X2.1205Y-1.8067
X2.1216Y-1.3868
X2.1223Y-1.2723
X2.126Y-1.8937
X2.127Y-1.5499
X2.128Y-1.6329
X2.1288Y-1.3009
X2.1334Y-1.4151
X2.1337Y-1.249
X2.1346Y-1.0905
X2.1349Y-1.052
X2.141Y-1.7821
X2.146Y-1.4374
X2.1466Y-1.3455
X2.1475Y-1.8068
X2.1528Y-1.891
X2.1534Y-1.5866
X2.1538Y-1.3163
X2.1634Y-1.6667
X2.1647Y-1.2229
X2.1715Y-1.2476
X2.1718Y-1.4376
X2.1737Y-1.7806
X2.1802Y-1.8076
X2.1863Y-1.6906
X2.1927Y-1.8903
X2.193Y-1.1644
X2.2129Y-1.7798
X2.2291Y-0.9584
X2.2299Y-1.1762
X2.2343Y-1.8884
X2.248Y-1.0541
X2.2551Y-0.9584
X2.2638Y-1.8573
X2.2655Y-1.5842
X2.2799Y-1.2957
X2.2822Y-1.0022
X2.2835Y-1.9685
X2.2874Y-1.5375
X2.3038Y-1.0016
X2.3164Y-0.9303
X2.3169Y-1.5984
X2.3228Y-1.8346
X2.3248Y-1.4783
X2.3414Y-1.721
X2.3425Y-1.2339
X2.343Y-1.5146
X2.3481Y-0.9303
X2.3507Y-0.9754
X2.363Y-1.0515
X2.3641Y-1.5362
X2.3645Y-1.8465
X2.3661Y-1.7276
X2.3665Y-1.5616
X2.3695Y-1.633
X2.3716Y-1.8129
X2.372Y-1.6689
X2.373Y-0.9973
X2.3782Y-0.9452
X2.3976Y-1.1348
X2.4008Y-1.0532
X2.4094Y-1.2546
X2.4254Y-1.9144
X2.4328Y-1.2913
X2.4388Y-1.1599
X2.4412Y-1.1917
X2.4543Y-1.4923
X2.5315Y-1.0856
X2.5551Y-1.8606
X2.5555Y-1.7669
X2.6871Y-1.187
X2.6901Y-1.8859
T2
X0.8386Y-0.8378
X0.8386Y-0.9378
X0.8386Y-1.0378
X0.8386Y-1.1378
X0.8386Y-1.237
X0.8386Y-1.337
X0.8386Y-1.437
X0.8386Y-1.537
X0.8386Y-1.637
X0.8386Y-1.737
X0.8386Y-1.837
X0.8386Y-1.937
X0.9409Y-0.8378
X0.9409Y-0.9378
X0.9409Y-1.0378
X0.9409Y-1.1378
X0.9409Y-1.237
X0.9409Y-1.337
X0.9409Y-1.437
X0.9409Y-1.537
X0.9409Y-1.637
X0.9409Y-1.737
X0.9409Y-1.837
X0.9409Y-1.937
X1.0433Y-0.8378
X1.0433Y-0.9378
X1.0433Y-1.0378
X1.0433Y-1.1378
X1.0433Y-1.237
X1.0433Y-1.337
X1.0433Y-1.437
X1.0433Y-1.537
X1.0433Y-1.637
X1.0433Y-1.737
X1.0433Y-1.837
X1.0433Y-1.937
X2.5039Y-1.2362
X2.5039Y-1.437
X2.5039Y-1.537
X2.5039Y-1.637
X2.5039Y-1.737
X2.5039Y-1.837
X2.5039Y-1.937
X2.5047Y-0.8386
X2.5047Y-0.937
X2.5047Y-1.0354
X2.5047Y-1.1348
X2.5047Y-1.3386
X2.6039Y-1.2362
X2.6043Y-1.437
X2.6043Y-1.537
X2.6043Y-1.637
X2.6043Y-1.737
X2.6043Y-1.837
X2.6043Y-1.937
X2.6047Y-0.8386
X2.6047Y-0.937
X2.6047Y-1.0354
X2.6047Y-1.1348
X2.6047Y-1.3386
X2.7039Y-1.2362
X2.7047Y-0.8386
X2.7047Y-0.937
X2.7047Y-1.0354
X2.7047Y-1.1348
X2.7047Y-1.3386
X2.7047Y-1.437
X2.7047Y-1.537
X2.7047Y-1.637
X2.7047Y-1.737
X2.7047Y-1.837
X2.7047Y-1.937
T3
X1.1713Y-0.7874
X1.1713Y-1.9882
X2.372Y-0.7874
X2.372Y-1.9902
T0
M30
